<svg width="32" height="32" viewBox="0 0 32 32" fill="none" xmlns="http://www.w3.org/2000/svg">
<g clip-path="url(#clip0_2337_5178)">
<path d="M13.1778 9.33331H11.8909V10.6203H13.1778V9.33331Z" fill="#FF6E00"/>
<path d="M1.28697 10.8172H0V12.1042H1.28697V10.8172Z" fill="#6414E6"/>
<path d="M2.77549 22.7124H1.48853V23.9994H2.77549V22.7124Z" fill="#19BEE6"/>
<path d="M10.2041 19.739H8.91711V21.0259H10.2041V19.739Z" fill="#E619DC"/>
<path d="M18.8867 12.3068H17.5997V13.5937H18.8867V12.3068Z" fill="#E61973"/>
<path d="M21.8601 9.33331H20.5731V10.6203H21.8601V9.33331Z" fill="#FFB919"/>
<path d="M20.3712 21.2228H19.0842V22.5097H20.3712V21.2228Z" fill="#1987E6"/>
<path d="M29.2923 22.7124H28.0054V23.9994H29.2923V22.7124Z" fill="#FF4B00"/>
<path d="M32.2657 15.2802H30.9788V16.5672H32.2657V15.2802Z" fill="#14E691"/>
<path d="M32.2657 19.739H30.9788V21.0259H32.2657V19.739Z" fill="#FF1928"/>
<path fill-rule="evenodd" clip-rule="evenodd" d="M4.26099 9.33331H2.97402V10.6203H4.26099V9.33331ZM2.79436 9.33331H1.48539V10.6203H2.77603L2.79436 9.33331ZM4.47732 10.6203H5.76795V9.33331H4.45898L4.47732 10.6203ZM7.23458 9.33331H5.94761V10.6203H7.23458V9.33331ZM8.71954 9.33331H7.43258V10.6203H8.71954V9.33331ZM11.6931 9.33331H10.4062V10.6203H11.6931V9.33331ZM1.48539 12.1089H2.77603V10.8183H1.48539V12.1089ZM0.0187601 13.5755H1.2874V12.3069H0.000427246L0.0187601 13.5755ZM1.50372 13.5755H2.77603V12.3069H1.48539L1.50372 13.5755ZM0.000427246 15.0825H1.2874V13.7919H0.000427246V15.0825ZM1.48539 15.0825H2.77603V13.7919H1.48539V15.0825ZM0.000427246 16.5675H1.2874V15.2805H0.000427246V16.5675ZM1.48539 16.5675H2.77603V15.2805H1.48539V16.5675ZM0.000427246 18.0524H1.2874V16.7655H0.000427246V18.0524ZM1.48539 18.0524H2.77603V16.7655H1.48539V18.0524ZM0.000427246 19.5411H1.2874V18.2504H0.000427246V19.5411ZM1.48539 19.5411H2.77603V18.2504H1.48539V19.5411ZM0.000427246 21.026H1.2874V19.7391H0.000427246V21.026ZM1.48539 21.026H2.77603V19.7391H1.48539V21.026ZM2.97402 19.5411H4.26099V18.2504H2.97402V19.5411ZM2.97402 21.026H4.26099V19.7391H2.97402V21.026ZM4.45898 19.5411H5.74962V18.2504H4.45898V19.5411ZM4.45898 21.026H5.74962V19.7391H4.45898V21.026ZM5.94761 19.5411H7.23458V18.2504H5.94761V19.5411ZM5.94761 21.026H7.23458V19.7391H5.94761V21.026ZM7.43258 19.5411H8.71954V18.2504H7.43258V19.5411ZM7.43258 21.026H8.71954V19.7391H7.43258V21.026ZM10.4062 19.5411H11.6931V18.2504H10.4062V19.5411ZM0.000427246 22.511H1.2874V21.224H0.000427246V22.511ZM0.000427246 23.9996H1.2874V22.7126H0.000427246V23.9996ZM1.48539 22.533H2.77603V21.224H1.48539V22.533ZM2.97402 12.1089H4.26099V10.8183H2.97402V12.1089ZM4.45898 12.1089H5.74962V10.8183H4.45898V12.1089ZM5.94761 12.1089H7.23458V10.8183H5.94761V12.1089ZM7.43258 12.1089H8.71954V10.8183H7.43258V12.1089ZM8.91754 10.6203H10.2082V9.33331H8.91754V10.6203ZM8.91754 19.5411H10.2082V18.2504H8.91754V19.5411ZM8.91754 12.1089H10.2082V10.8183H8.91754V12.1089ZM10.4062 12.1089H11.6931V10.8183H10.4062V12.1089ZM11.8911 12.1089H13.2001V10.8183H11.8911V12.1089ZM10.4062 13.5755H11.6931V12.3069H10.4062V13.5755ZM11.8911 13.5755H13.2001V12.3069H11.8911V13.5755ZM13.3798 12.2886V13.5755H14.6667V12.3069L13.3798 12.2886ZM11.8911 15.0642H13.2001V13.7919H11.8911V15.0642ZM13.3798 15.0642H14.6667V13.7919H13.3798V15.0642ZM11.8911 16.5491H13.2001V15.2805H11.8911V16.5491ZM13.3798 16.5491H14.6667V15.2805H13.3798V16.5491ZM11.8911 18.0341H13.2001V16.7655H11.8911V18.0341ZM11.8911 19.5227H13.2001V18.2504H11.8911V19.5227ZM10.4062 18.0341H11.6931V16.7655H10.4062V18.0341ZM13.3798 18.0341H14.6667V16.7655H13.3798V18.0341Z" fill="#8D9199"/>
<path fill-rule="evenodd" clip-rule="evenodd" d="M17.5997 15.0825H18.8867V13.7919H17.5997V15.0825ZM17.5997 16.5675H18.8867V15.2805H17.5997V16.5675ZM17.5997 18.0524H18.8867V16.7655H17.5997V18.0524ZM17.5997 19.5411H18.8867V18.2504H17.5997V19.5411ZM17.5997 21.026H18.8867V19.7391H17.5997V21.026ZM19.0664 13.5939H20.357V12.3069H19.0847L19.0664 13.5939ZM19.0664 12.1272H20.357V10.8183H19.0847L19.0664 12.1272ZM20.555 13.5939H21.842V12.3069H20.5733L20.555 13.5939ZM20.555 12.1272H21.842V10.8183H20.5733L20.555 12.1272ZM23.3306 10.8366H22.0583V12.1089H23.3489L23.3306 10.8366ZM22.04 10.6386H23.3306V9.33331H22.0583L22.04 10.6386ZM23.5286 12.1272H24.8156V10.8183H23.5469L23.5286 12.1272ZM23.5286 10.6386H24.8156V9.33331H23.5469L23.5286 10.6386ZM24.9952 12.1272H26.2822V10.8183H25.0319L24.9952 12.1272ZM26.3188 9.33331H25.0319V10.6203H26.3188V9.33331ZM27.8075 10.8183H26.5168V12.1089H27.8075V10.8183ZM26.5168 10.6203H27.8075V9.33331H26.5168V10.6203ZM19.0847 15.0825H20.3753V13.7919H19.0847V15.0825ZM19.0847 16.5675H20.3753V15.2805H19.0847V16.5675ZM19.0847 18.0524H20.3753V16.7655H19.0847V18.0524ZM25.0319 16.5675H26.3188V15.2805H25.0319V16.5675ZM25.0319 18.0524H26.3188V16.7655H25.0319V18.0524ZM27.8075 15.2805H26.5168V16.5675H27.8075V15.2805ZM27.8075 16.7655H26.5168V18.0524H27.8075V16.7655ZM28.0055 16.5675H29.2924V15.2805H28.0055V16.5675ZM28.0055 18.0524H29.2924V16.7655H28.0055V18.0524ZM28.0055 21.026H29.2924V19.7391H28.0055V21.026ZM29.4904 16.5675H30.7994V15.2805H29.4904V16.5675ZM29.4904 18.0524H30.7994V16.7655H29.4904V18.0524ZM28.0055 12.1089H29.2924V10.8183H28.0055V12.1089ZM28.0055 13.5755H29.2924V12.3069H28.0055V13.5755ZM29.4904 12.1089H30.7994V10.8183H29.4904V12.1089ZM29.4904 13.5755H30.7994V12.3069H29.4904V13.5755ZM19.0847 19.5411H20.3753V18.2504H19.0847V19.5411ZM19.0847 21.026H20.3753V19.7391H19.0847V21.026ZM20.5733 21.026H21.8603V19.7391H20.5733V21.026ZM20.5733 22.5147H21.8603V21.224H20.5733V22.5147ZM20.5733 23.9813H21.8603V22.7126H20.5733V23.9813ZM23.3489 21.2057H22.0583V22.533H23.3489V21.2057ZM22.0583 23.9996H23.3489V22.7126H22.0583V23.9996ZM23.5469 22.533H24.8339V21.224H23.5469V22.533ZM23.5469 23.9996H24.8339V22.7126H23.5469V23.9996ZM25.0135 22.533H26.3005V21.224H25.0319L25.0135 22.533ZM25.0135 23.9996H26.3005V22.7126H25.0319L25.0135 23.9996ZM27.7891 21.224H26.5168V22.533H27.8075L27.7891 21.224ZM26.5168 23.9996H27.8075V22.7126H26.5168V23.9996ZM28.0055 22.533H29.2924V21.224H28.0055V22.533ZM29.4904 22.533H30.7994V21.224H29.4904V22.533ZM29.4904 19.5594H30.7994V18.2504H29.4904V19.5594ZM29.4904 21.0444H30.7994V19.7391H29.4904V21.0444ZM30.9791 16.7838V18.0708H32.266V16.7655L30.9791 16.7838ZM30.9791 19.5594H32.266V18.2504H30.9791V19.5594Z" fill="#8D9199"/>
</g>
<defs>
<clipPath id="clip0_2337_5178">
<rect width="32" height="32" fill="white"/>
</clipPath>
</defs>
</svg>