<svg width="130" height="56" viewBox="0 0 130 56" fill="none" xmlns="http://www.w3.org/2000/svg">
<path d="M16.0352 12.1333C7.1995 12.1333 0 19.2754 0 28.0406C0 29.6638 0.245437 31.2058 0.6545 32.6667C0.98175 32.2609 1.22719 31.8551 1.55444 31.4493C2.69981 29.8261 3.76337 28.2029 4.82694 26.4986L5.64506 25.2812C5.8905 24.8754 6.13594 24.4696 6.46319 23.9826C6.95406 23.171 7.44494 22.2783 8.01762 21.4667C8.26306 21.0609 8.5085 20.5739 8.75393 20.1681C8.99937 19.7623 9.24481 19.2754 9.49025 18.8696C9.73569 18.4638 9.98112 17.9768 10.1447 17.571L10.7992 16.2725L10.7174 16.1913C11.0447 15.4609 11.9446 15.2174 12.6809 15.542C13.2536 15.7855 13.4991 16.4348 13.4991 17.0029C13.4991 17.7333 13.3354 18.5449 13.3354 19.3565C13.2536 20.1681 13.2536 20.8986 13.1718 21.7101C13.09 23.171 13.09 24.713 13.09 26.2551C13.09 27.7971 13.1718 29.3391 13.3354 30.8812C13.4172 31.6116 13.4991 32.342 13.6627 33.0725C13.8263 33.8029 13.9899 34.4522 14.3172 34.9391C14.4808 35.1826 14.5626 35.3449 14.6444 35.4261C14.7262 35.5072 14.6444 35.4261 14.7262 35.4261C14.7262 35.4261 14.7262 35.4261 14.8081 35.4261H14.8899H14.9717C14.9717 35.4261 15.0535 35.3449 15.1353 35.3449C15.2989 35.1826 15.5444 35.0203 15.7898 34.7768C16.1989 34.2899 16.6897 33.6406 17.0988 33.0725C17.5079 32.4232 17.9169 31.7739 18.2442 31.1246C18.9805 29.8261 19.7168 28.3652 20.3713 26.9855C20.6986 26.2551 21.0258 25.6058 21.3531 24.8754C21.6803 24.1449 22.0076 23.4145 22.253 22.7652C22.5802 22.0348 23.3984 21.7101 24.1347 22.0348C24.6256 22.1971 24.9528 22.6841 25.0346 23.0899C25.0346 23.2522 25.0346 23.4957 25.1164 23.7391L25.1982 24.3884C25.2801 24.7942 25.2801 25.2812 25.3619 25.687C25.5255 26.5797 25.6891 27.4725 25.9346 28.2841C26.18 29.1768 26.4254 29.9884 26.8345 30.8C27.1617 31.6116 27.6526 32.4232 28.2253 33.0725C28.3889 33.2348 28.3071 33.4783 28.1435 33.6406C27.9799 33.7217 27.8162 33.7217 27.6526 33.6406C26.9163 32.9913 26.2618 32.2609 25.6891 31.4493C25.1164 30.6377 24.6256 29.8261 24.2165 28.9333C23.9711 28.3652 23.6438 27.7971 23.3984 27.1478C23.2347 27.4725 23.0711 27.8783 22.9075 28.2029C22.1712 29.6638 21.5167 31.0435 20.6986 32.5043C20.2895 33.2348 19.8804 33.8841 19.3896 34.6145C18.8987 35.3449 18.4078 35.9942 17.8351 36.6435C17.5079 36.9681 17.1806 37.2928 16.7716 37.6174C16.6897 37.6986 16.5261 37.7797 16.3625 37.8609C16.2807 37.942 16.1989 37.942 16.1171 38.0232L16.0352 38.1043H15.9534H15.8716H15.7898C15.708 38.1043 15.6262 38.1855 15.5444 38.1855C15.3807 38.1855 15.2171 38.2667 15.0535 38.2667C14.7262 38.2667 14.2354 38.2667 13.9081 38.1043C13.4991 37.942 13.1718 37.7797 12.9264 37.5362C12.3537 37.1304 12.1082 36.6435 11.8628 36.1565C11.3719 35.2638 11.2083 34.371 10.9629 33.5594C10.7992 32.7478 10.6356 31.8551 10.5538 31.0435C10.3902 29.4203 10.3084 27.7971 10.3084 26.1739C10.3084 25.3623 10.3084 24.6319 10.3084 23.9014C9.98112 24.4696 9.73568 25.0377 9.40843 25.5246C9.163 25.9304 8.91756 26.4174 8.67212 26.8232L7.93581 28.1217C6.95406 29.9072 5.8905 31.6116 4.82694 33.3159C4.17244 34.4522 3.43612 35.5072 2.69981 36.6435C5.56325 40.9449 10.472 43.8667 16.1171 43.8667C24.9528 43.8667 32.1523 36.7246 32.1523 27.9594C32.1523 19.2754 24.9528 12.1333 16.0352 12.1333Z" fill="url(#paint0_linear_267_3518)"/>
<path d="M45.9786 33.8029V23.2522H45.7332L42.2971 33.884H41.4789L38.0428 23.2522H37.7974V33.884H36.4066V22.1159H38.9427L41.9698 31.4493L44.9969 22.1159H47.4513V33.8029H45.9786Z" fill="url(#paint1_linear_267_3518)"/>
<path d="M49.4965 23.658V22.116H51.051V23.658H49.4965ZM49.4965 33.8029V24.7942H50.9691V33.8029H49.4965Z" fill="url(#paint2_linear_267_3518)"/>
<path d="M60.1322 30.8812C60.1322 32.6667 59.4777 33.9653 56.5324 33.9653C52.8508 33.9653 52.6054 31.8551 52.6054 29.3392C52.6054 26.7421 52.8508 24.632 56.5324 24.632C59.4777 24.632 60.1322 26.0117 60.1322 27.716H58.7413C58.7413 26.2551 58.2505 25.6059 56.5324 25.6059C54.2417 25.6059 54.078 26.8233 54.078 29.3392C54.078 31.774 54.2417 32.9914 56.5324 32.9914C58.2505 32.9914 58.7413 32.2609 58.7413 30.8812H60.1322Z" fill="url(#paint3_linear_267_3518)"/>
<path d="M63.0774 25.7681C63.8137 25.3623 64.7137 24.713 65.5318 24.713C65.6954 24.713 65.8591 24.713 66.1045 24.713C66.3499 24.713 66.5954 24.713 66.8408 24.713L66.759 25.7681C66.5136 25.7681 66.3499 25.7681 66.1045 25.7681C65.9409 25.7681 65.7772 25.7681 65.5318 25.7681C64.7137 25.7681 63.8956 26.3362 63.2411 26.742V33.8029H61.7684V24.7942H62.9956L63.0774 25.7681Z" fill="url(#paint4_linear_267_3518)"/>
<path d="M75.1857 29.3392C75.1857 31.9363 74.9403 33.9653 71.1769 33.9653C67.4135 33.9653 67.1681 31.8551 67.1681 29.3392C67.1681 26.7421 67.4135 24.632 71.1769 24.632C74.9403 24.632 75.1857 26.7421 75.1857 29.3392ZM68.7225 29.3392C68.7225 31.774 68.8862 32.9914 71.1769 32.9914C73.5495 32.9914 73.6313 31.774 73.6313 29.3392C73.6313 26.9044 73.4676 25.6059 71.1769 25.6059C68.8862 25.6059 68.7225 26.8233 68.7225 29.3392Z" fill="url(#paint5_linear_267_3518)"/>
<path d="M77.9673 35.9131C78.54 35.9943 79.2763 35.9943 80.0944 35.9943C82.3852 35.9943 82.7124 35.4261 82.7124 32.9914C82.0579 33.3972 81.0762 33.803 80.0944 33.803C76.7401 33.8841 76.5765 32.0986 76.5765 29.258C76.5765 26.4174 76.7401 24.5508 80.0126 24.5508C81.0762 24.5508 82.1397 25.0377 82.8761 25.5247L83.0397 24.7131H84.2669V32.7479C84.2669 35.9943 83.5306 36.9682 80.5035 36.9682C79.4399 36.9682 78.6218 36.887 77.8855 36.8059L77.9673 35.9131ZM82.7124 26.4174C82.0579 26.0117 81.2398 25.6059 80.4217 25.6059C78.2127 25.6059 78.0491 26.8232 78.0491 29.258C78.0491 31.6928 78.2127 32.829 80.4217 32.829C81.2398 32.829 82.0579 32.4232 82.7124 32.0986V26.4174Z" fill="url(#paint6_linear_267_3518)"/>
<path d="M92.2845 33.803L92.1208 32.9914C91.3845 33.4783 90.4028 33.9653 89.3392 33.9653C85.9849 34.0464 85.8213 32.1798 85.8213 29.258C85.8213 26.4174 85.9849 24.5508 89.2574 24.5508C90.321 24.5508 91.3027 25.0377 92.039 25.5247L92.2027 24.7131H93.4298V33.7218H92.2845V33.803ZM92.039 26.4174C91.3845 26.0928 90.5664 25.687 89.7483 25.687C87.5393 25.687 87.3757 26.9044 87.3757 29.3392C87.3757 31.774 87.5393 32.9914 89.7483 32.9914C90.5664 32.9914 91.3845 32.5856 92.039 32.1798V26.4174Z" fill="url(#paint7_linear_267_3518)"/>
<path d="M96.6206 25.6057C97.2751 25.1999 98.175 24.713 99.1567 24.6318C100.711 24.5507 101.447 24.9565 101.857 25.6057C102.511 25.1999 103.493 24.6318 104.556 24.6318C107.665 24.5507 107.911 26.0927 107.911 28.284V33.8028H106.438V28.3652C106.438 26.4985 106.274 25.6057 104.311 25.6057C103.575 25.6057 102.838 26.0115 102.184 26.4173C102.347 26.9855 102.347 27.6347 102.347 28.3652V33.8028H101.038V28.3652C101.038 26.4985 100.875 25.6057 98.9113 25.6057C98.175 25.6057 97.4387 26.0115 96.866 26.4173V33.884H95.3934V24.7941H96.6206V25.6057Z" fill="url(#paint8_linear_267_3518)"/>
<path d="M109.792 23.658V22.116H111.347V23.658H109.792ZM109.792 33.8029V24.7942H111.265V33.8029H109.792Z" fill="url(#paint9_linear_267_3518)"/>
<path d="M114.456 25.6057C115.192 25.1999 116.174 24.713 117.237 24.6318C120.592 24.5507 120.755 26.0927 120.755 28.284V33.8028H119.283V28.3651C119.283 26.4985 119.119 25.6057 116.91 25.6057C116.092 25.6057 115.274 26.0115 114.619 26.4173V33.884H113.147V24.7941H114.374L114.456 25.6057Z" fill="url(#paint10_linear_267_3518)"/>
<path d="M123.701 35.9131C124.273 35.9943 125.01 35.9943 125.828 35.9943C128.118 35.9943 128.446 35.4261 128.446 32.9914C127.791 33.3972 126.809 33.803 125.828 33.803C122.473 33.8841 122.31 32.0986 122.31 29.258C122.31 26.4174 122.473 24.5508 125.746 24.5508C126.809 24.5508 127.873 25.0377 128.609 25.5247L128.773 24.7131H130V32.7479C130 35.9943 129.264 36.9682 126.237 36.9682C125.173 36.9682 124.355 36.887 123.619 36.8059L123.701 35.9131ZM128.446 26.4174C127.791 26.0117 126.973 25.6059 126.155 25.6059C123.946 25.6059 123.782 26.8232 123.782 29.258C123.782 31.6928 123.946 32.829 126.155 32.829C126.973 32.829 127.791 32.4232 128.446 32.0986V26.4174Z" fill="url(#paint11_linear_267_3518)"/>
<defs>
<linearGradient id="paint0_linear_267_3518" x1="24.0976" y1="14.2663" x2="8.22357" y2="41.9822" gradientUnits="userSpaceOnUse">
<stop stop-color="#0099D8"/>
<stop offset="1" stop-color="#4AAF65"/>
</linearGradient>
<linearGradient id="paint1_linear_267_3518" x1="35.9923" y1="32.0925" x2="144.618" y2="-44.5802" gradientUnits="userSpaceOnUse">
<stop stop-color="#0099D8"/>
<stop offset="1" stop-color="#4AAF65"/>
</linearGradient>
<linearGradient id="paint2_linear_267_3518" x1="-6.80261" y1="67.6215" x2="386.939" y2="-210.297" gradientUnits="userSpaceOnUse">
<stop stop-color="#0099D8"/>
<stop offset="1" stop-color="#4AAF65"/>
</linearGradient>
<linearGradient id="paint3_linear_267_3518" x1="36.8882" y1="42.9463" x2="129.868" y2="-22.6828" gradientUnits="userSpaceOnUse">
<stop stop-color="#0099D8"/>
<stop offset="1" stop-color="#4AAF65"/>
</linearGradient>
<linearGradient id="paint4_linear_267_3518" x1="21.8986" y1="57.4821" x2="163.12" y2="-42.1981" gradientUnits="userSpaceOnUse">
<stop stop-color="#0099D8"/>
<stop offset="1" stop-color="#4AAF65"/>
</linearGradient>
<linearGradient id="paint5_linear_267_3518" x1="37.9738" y1="52.4059" x2="127.5" y2="-10.785" gradientUnits="userSpaceOnUse">
<stop stop-color="#0099D8"/>
<stop offset="1" stop-color="#4AAF65"/>
</linearGradient>
<linearGradient id="paint6_linear_267_3518" x1="23.6423" y1="70.2498" x2="145.163" y2="-15.5244" gradientUnits="userSpaceOnUse">
<stop stop-color="#0099D8"/>
<stop offset="1" stop-color="#4AAF65"/>
</linearGradient>
<linearGradient id="paint7_linear_267_3518" x1="31.0961" y1="70.62" x2="134.933" y2="-2.67244" gradientUnits="userSpaceOnUse">
<stop stop-color="#0099D8"/>
<stop offset="1" stop-color="#4AAF65"/>
</linearGradient>
<linearGradient id="paint8_linear_267_3518" x1="39.4611" y1="72.4967" x2="127.749" y2="10.1793" gradientUnits="userSpaceOnUse">
<stop stop-color="#0099D8"/>
<stop offset="1" stop-color="#4AAF65"/>
</linearGradient>
<linearGradient id="paint9_linear_267_3518" x1="-203.167" y1="245.897" x2="190.571" y2="-32.0226" gradientUnits="userSpaceOnUse">
<stop stop-color="#0099D8"/>
<stop offset="1" stop-color="#4AAF65"/>
</linearGradient>
<linearGradient id="paint10_linear_267_3518" x1="25.484" y1="92.8658" x2="130.704" y2="18.5969" gradientUnits="userSpaceOnUse">
<stop stop-color="#0099D8"/>
<stop offset="1" stop-color="#4AAF65"/>
</linearGradient>
<linearGradient id="paint11_linear_267_3518" x1="9.27933" y1="112.022" x2="130.797" y2="26.25" gradientUnits="userSpaceOnUse">
<stop stop-color="#0099D8"/>
<stop offset="1" stop-color="#4AAF65"/>
</linearGradient>
</defs>
</svg>
