<svg width="164" height="56" viewBox="0 0 164 56" fill="none" xmlns="http://www.w3.org/2000/svg">
<path d="M88.3399 55.8095L84.8101 45.9832H87.0043L89.4847 53.2336L91.8697 45.9832H93.9685L90.4387 55.8095H88.3399Z" fill="#E21E2D"/>
<path d="M97.2599 45.9832H95.2565V55.8095H97.2599V45.9832Z" fill="#E21E2D"/>
<path d="M101.983 55.8095L98.5006 45.9832H100.647L103.128 53.2336L105.513 45.9832H107.611L104.129 55.8095H101.983Z" fill="#E21E2D"/>
<path d="M116.817 55.8095H114.671L113.812 53.5675H109.901L109.09 55.8095H106.991L110.807 45.9832H112.906L116.817 55.8095ZM113.192 51.898L111.856 48.2728L110.521 51.898H113.192Z" fill="#E21E2D"/>
<path d="M121.205 53.7584L123.113 53.4722C123.208 53.8538 123.351 54.14 123.59 54.2831C123.828 54.4739 124.162 54.5693 124.639 54.5693C125.116 54.5693 125.498 54.4739 125.736 54.2831C125.879 54.14 125.975 53.9969 125.975 53.7584C125.975 53.6153 125.927 53.5199 125.832 53.4245C125.736 53.3291 125.546 53.2337 125.212 53.186C123.685 52.8521 122.731 52.5659 122.302 52.2797C121.73 51.8981 121.443 51.3734 121.443 50.6579C121.443 50.0378 121.682 49.5131 122.159 49.0838C122.636 48.6545 123.399 48.4637 124.401 48.4637C125.355 48.4637 126.118 48.6068 126.595 48.9407C127.072 49.2746 127.406 49.7039 127.597 50.324L125.832 50.6579C125.736 50.3717 125.593 50.1809 125.402 50.0378C125.212 49.8947 124.878 49.7993 124.496 49.7993C124.019 49.7993 123.638 49.847 123.447 49.9901C123.304 50.0855 123.208 50.2286 123.208 50.3717C123.208 50.5148 123.256 50.6102 123.399 50.7056C123.59 50.8487 124.162 50.9918 125.164 51.2303C126.166 51.4688 126.881 51.755 127.263 52.0889C127.644 52.4228 127.835 52.8998 127.835 53.4722C127.835 54.14 127.549 54.6647 127.024 55.1417C126.5 55.6187 125.689 55.8572 124.592 55.8572C123.638 55.8572 122.874 55.6664 122.302 55.2848C121.73 54.9509 121.348 54.4262 121.205 53.7584Z" fill="#E21E2D"/>
<path d="M133.083 48.7017V50.1804H131.795V53.0424C131.795 53.6148 131.795 53.9487 131.842 54.0441C131.89 54.1395 131.938 54.2349 132.033 54.2826C132.129 54.3303 132.224 54.378 132.367 54.378C132.558 54.378 132.796 54.3303 133.13 54.1872L133.273 55.6659C132.844 55.8567 132.319 55.9522 131.795 55.9522C131.461 55.9522 131.127 55.9044 130.888 55.7613C130.602 55.6659 130.411 55.5228 130.268 55.332C130.125 55.1412 130.03 54.9027 129.982 54.6165C129.934 54.378 129.934 53.9487 129.934 53.2809V50.1804H129.076V48.7017H129.934V47.2707L131.842 46.1736V48.7017H133.083V48.7017Z" fill="#E21E2D"/>
<path d="M139.427 55.8093V54.7599C139.189 55.1415 138.807 55.4277 138.426 55.6662C137.996 55.9047 137.567 56.0001 137.09 56.0001C136.613 56.0001 136.184 55.9047 135.802 55.6662C135.42 55.4754 135.134 55.1415 134.991 54.7599C134.8 54.3783 134.753 53.8535 134.753 53.1857V48.7019H136.613V51.9932C136.613 52.9949 136.661 53.615 136.708 53.8535C136.756 54.0921 136.899 54.2352 137.09 54.3783C137.281 54.5214 137.519 54.5691 137.806 54.5691C138.139 54.5691 138.426 54.4737 138.664 54.2829C138.903 54.0921 139.093 53.9012 139.189 53.615C139.284 53.3765 139.332 52.7087 139.332 51.707V48.7019H141.192V55.8093H139.427Z" fill="#E21E2D"/>
<path d="M150.017 55.8093H148.252V54.7599C147.966 55.1892 147.632 55.4754 147.203 55.6662C146.821 55.857 146.392 55.9524 146.01 55.9524C145.199 55.9524 144.484 55.6185 143.911 54.9507C143.339 54.2829 143.053 53.3766 143.053 52.1841C143.053 50.9916 143.339 50.0376 143.911 49.4175C144.484 48.7973 145.199 48.4634 146.058 48.4634C146.869 48.4634 147.536 48.7973 148.109 49.4652V45.9353H149.969V55.8093H150.017ZM144.961 52.0887C144.961 52.8519 145.056 53.3766 145.295 53.7582C145.581 54.2352 146.01 54.4737 146.582 54.4737C147.012 54.4737 147.393 54.2829 147.68 53.9013C147.966 53.5197 148.157 52.995 148.157 52.2318C148.157 51.4209 148.013 50.8485 147.727 50.4669C147.441 50.0853 147.059 49.9422 146.582 49.9422C146.153 49.9422 145.772 50.133 145.438 50.4669C145.104 50.8485 144.961 51.3732 144.961 52.0887Z" fill="#E21E2D"/>
<path d="M152.211 45.9832H154.071V47.7481H152.211V45.9832ZM152.211 48.7021H154.071V55.8095H152.211V48.7021Z" fill="#E21E2D"/>
<path d="M155.932 52.1367C155.932 51.5166 156.075 50.8965 156.409 50.3241C156.695 49.7517 157.172 49.2747 157.697 48.9885C158.269 48.7023 158.889 48.5115 159.605 48.5115C160.702 48.5115 161.56 48.8454 162.228 49.5609C162.896 50.2764 163.278 51.135 163.278 52.2321C163.278 53.3293 162.944 54.1879 162.228 54.9034C161.513 55.6189 160.654 55.9528 159.605 55.9528C158.937 55.9528 158.317 55.8097 157.744 55.5235C157.172 55.2373 156.695 54.808 156.409 54.2356C156.075 53.6632 155.932 52.9477 155.932 52.1367ZM157.84 52.2321C157.84 52.9477 158.03 53.4724 158.364 53.854C158.698 54.2356 159.128 54.4264 159.605 54.4264C160.082 54.4264 160.511 54.2356 160.845 53.854C161.179 53.4724 161.322 52.9477 161.322 52.2321C161.322 51.5166 161.179 50.9919 160.845 50.6103C160.511 50.2287 160.082 50.0379 159.605 50.0379C159.128 50.0379 158.698 50.2287 158.364 50.6103C158.03 50.9919 157.84 51.5166 157.84 52.2321Z" fill="#E21E2D"/>
<path d="M49.5114 13.213C40.2098 18.8417 17.5998 29.9559 1 24.8042C1 24.8042 1.81091 33.2949 12.6389 33.6288C23.4669 33.9627 39.9236 21.9422 44.8844 19.9388C48.2712 18.5555 49.9407 20.1296 49.2729 22.2284C48.6051 24.3272 37.3001 42.6442 50.2746 46.6988C66.8267 51.8504 80.0874 23.7548 80.0874 23.7548C80.0874 23.7548 75.3173 34.8213 82.5678 37.0156C91.9171 39.8776 98.3567 24.6611 98.3567 24.6611C98.3567 24.6611 94.2544 35.3937 101.934 37.111C109.519 38.8282 113.716 31.53 117.628 25.2812C116.197 28.9065 114.956 34.392 119.297 36.634C123.113 38.5897 128.074 36.3478 130.554 32.1024C130.554 36.4909 134.275 38.0173 136.231 38.3512C140.285 39.019 144.006 37.0156 146.439 35.0598C148.013 33.7719 149.062 32.5317 149.301 32.007C149.921 30.6714 149.825 30.7191 149.539 30.0513C147.107 31.2915 144.388 33.915 138.759 33.5811C137.662 33.5334 136.803 33.438 136.279 32.961C135.563 32.3409 135.992 31.0053 137.089 29.0496C138.854 25.9491 133.941 23.7071 132.224 26.6169C129.982 30.3852 126.977 33.9627 123.829 32.5317C121.11 31.2915 121.825 26.8077 124.067 23.2778C125.689 20.702 127.597 19.4141 130.268 19.7957C132.653 20.1773 132.51 22.8008 134.943 22.3238C137.233 21.8945 137.423 18.4124 133.655 15.9797C129.076 12.9745 122.97 15.5027 119.297 19.5572C114.67 24.6611 109.805 34.7736 105.226 33.3903C101.266 32.1978 104.939 24.518 107.42 19.7957C109.9 15.121 103.079 12.5452 100.599 17.3153C98.0705 22.0853 91.7263 34.7736 86.8131 33.438C82.9494 32.3886 86.3838 23.6594 88.6258 19.5095C90.8677 15.455 83.0925 12.736 80.7075 16.6952C78.7518 19.9865 69.8318 41.0701 60.3871 38.542C51.3717 36.1093 59.0992 24.995 61.4365 19.6049C63.1537 15.6458 59.9578 11.5435 55.0923 11.5435C53.4228 11.5435 51.5148 12.0205 49.5114 13.213ZM80.8029 0.620106C82.9494 3.33903 84.2373 6.58266 87.0994 8.82459C88.2919 9.7786 89.1505 10.2556 90.343 9.39699C90.9154 9.01539 91.4878 8.39528 91.6309 7.77518C91.9648 6.58266 92.0602 5.34245 92.1079 4.10224C92.1556 3.67294 91.9648 2.95743 91.6786 2.81433C90.0091 2.09882 88.3396 1.47871 86.6224 0.954009C85.3821 0.572406 84.0465 0.381604 82.7586 0.190802C82.1385 0.0954009 81.4707 0.0477005 80.8029 0C80.8029 0.429304 80.7552 0.572406 80.8029 0.620106Z" fill="url(#paint0_linear_1653_3041)"/>
<defs>
<linearGradient id="paint0_linear_1653_3041" x1="1" y1="23.6624" x2="149.735" y2="23.6624" gradientUnits="userSpaceOnUse">
<stop stop-color="#E21E2D"/>
<stop offset="0.5" stop-color="#E21E2D"/>
<stop offset="0.6" stop-color="#ED8023"/>
<stop offset="0.7" stop-color="#FEE200"/>
<stop offset="0.8" stop-color="#7EB942"/>
</linearGradient>
</defs>
</svg>
