<?xml version="1.0" encoding="UTF-8"?>
<!-- Generator: Adobe Illustrator 26.1.0, SVG Export Plug-In . SVG Version: 6.00 Build 0)  -->
<svg version="1.1" id="Layer_1" xmlns="http://www.w3.org/2000/svg" xmlns:xlink="http://www.w3.org/1999/xlink" x="0px" y="0px" viewBox="0 0 2931 763" style="enable-background:new 0 0 2931 763;" xml:space="preserve">
<style type="text/css">
	.st0{fill:#D4B372;}
	.st1{fill:url(#SVGID_1_);}
	.st2{fill-rule:evenodd;clip-rule:evenodd;fill:#FFFFFF;}
</style>
<path d="M1457,0h-10.6v762.3h10.6V0z"/>
<path d="M859,253.4c63.1-9.4,76.9-42.1,76.9-98.2V96.2C935.9,34.1,886.1,3,786.6,3C687,3,637.3,34.3,637.3,96.2v69.6  c0,48.8,10.8,74.4,68.3,84.2c-57.5,12.7-68.3,48.6-68.3,100.8v76.4c0,62.8,49.8,94.1,149.3,94.1c99.5-0.1,149.3-31.4,149.3-94.1  v-75.6C935.9,294,922.1,261.2,859,253.4z M785.8,220.7c-22,0-32.7-10.5-32.7-31.3V90.1c0-20.3,10.8-30,32.7-30  c22.4,0,33.6,10.1,33.6,30v99.3C819.5,210.2,808.2,220.7,785.8,220.7z M785.8,461c-22,0-32.7-10.5-32.7-31.3V317.3  c0-21.5,10.8-32,32.7-32c22.4,0,33.6,10.5,33.6,32v112.5C819.5,450.5,808.2,461,785.8,461z"/>
<path d="M1201.3,253.4c63.1-9.4,76.9-42.1,76.9-98.2V96.2c0-62.1-49.7-93.2-149.4-93.2c-99.7,0-149.4,31.3-149.4,93.2v69.6  c0,48.8,10.8,74.4,68.3,84.2c-57.5,12.7-68.3,48.6-68.3,100.8v76.4c0,62.9,49.6,94.1,149.4,94.1c99.7,0,149.4-31.3,149.4-94.1v-75.6  C1278.2,294,1264.4,261.2,1201.3,253.4z M1128.2,220.7c-22,0-32.9-10.5-32.9-31.3V90.1c0-20.3,10.8-30,32.9-30  c22.4,0,33.6,10.1,33.6,30v99.3C1162,210.2,1151,220.7,1128.2,220.7z M1128.2,461c-22,0-32.9-10.5-32.9-31.3V317.3  c0-21.5,10.8-32,32.9-32c22.4,0,33.6,10.5,33.6,32v112.5C1162,450.5,1151,461,1128.2,461z"/>
<path d="M231.2,751.8v-9.7c-21.4-2.2-22.8-4.2-23.4-29.5l-2.5-103.2c-0.6-22.8,0.6-25,22.5-27.2v-9.7h-55.2l-53.8,120.8L66,572.5  H9.1v9.7c23.6,2.2,25.6,6.1,23.4,37.5L28.1,674c-1.9,28.9-4.1,43.3-5.8,52.1c-1.7,9.7-6.9,14.7-22.3,16v9.7h66v-9.7  c-18.1-1.7-23.7-4.2-24.8-16.6c-1.1-8.6-1.1-21.4,0-44.4l3.3-71.9h1.1l56,140.6h7.9l60.7-143.4h1.4l0.5,106.2  c0.3,25.3-1.4,27.2-22,29.5v9.7h81.2L231.2,751.8z"/>
<path d="M427.6,751.8v-9.7c-17.3-2.2-20.9-5.8-30.1-30c-17.9-47.4-34.9-95.5-52.4-143.7l-14,3.6l-56.3,141.8  c-9.2,23.1-12.3,26.2-30.4,28.3l-0.3,9.7h61.5v-9.7c-20-2.5-20.6-6.4-16.7-19.6c3.3-11.1,6.9-21,10-29.5h52.6  c4.1,11.3,8.3,22.8,10.9,31.1c4.4,12.2,3,15.5-13.1,18v9.7L427.6,751.8L427.6,751.8z M346,678.4h-42.9c7.2-19.6,14-39.4,21.7-59.6  h0.8L346,678.4z"/>
<path d="M631.8,572.5h-67.1v9.7c20.1,1.1,25.9,5.8,27.2,17.7c0.5,8,2.2,21,2.2,45.2v48.5h-1.1l-105-121h-50.8v9.7  c11.5,1.1,17.9,3.3,22.8,10c5.2,6.3,5.8,11.6,5.8,29.5v57.6c0.1,15.2-0.8,30.4-2.8,45.5c-1.1,11.9-7.5,16.3-22.8,17.4v9.7h67.4v-9.7  c-20.3-0.8-25.1-6-26.4-18.3c-1.6-14.8-2.3-29.8-2.2-44.7v-62.1h0.8l114.2,137.4h13.1V645.1c-0.1-15.3,0.8-30.6,2.5-45.8  c1.3-12.7,7.2-16.3,22-17.1L631.8,572.5z"/>
<path d="M757.6,615.2c-2.2-17.2-4.2-29.2-5.2-39.4c-12.2-4.7-25.1-7.2-38.2-7.5c-39,0-62.9,23.7-62.9,54.1  c0,26.4,19.5,41.3,47.9,55.7c20.6,11.1,32.6,21.3,32.6,37.5c0,17.4-10.7,28.9-27.5,28.9c-26.4,0-42.6-30.8-48.1-48.5l-9.7,3  c1.9,16.9,5.5,40,8,46.9c5.4,2.4,11,4.4,16.7,6.1c9,2.6,18.4,4,27.8,3.9c40.1,0,66.8-24.5,66.8-56c0-27.2-19.8-42.7-48.7-56.8  c-24.2-12.2-34-21-34-36.1c0-15.7,11.2-27.2,26.7-27.2c22.5,0,32.6,20.5,38.5,37.8L757.6,615.2z"/>
<path d="M864.3,751.8v-9.7c-20.3-1.9-22.8-3.9-22.8-27V609.4c0-23.4,2.5-25.3,22.8-27.2v-9.7h-82.5v9.7c20.3,1.9,22.8,3.9,22.8,27.2  v105.7c0,23.1-2.5,25-22.8,27v9.7L864.3,751.8L864.3,751.8z"/>
<path d="M980.6,568.5c-62.9,0-96.4,46.6-96.4,94.1c0,53,38.2,93.5,93.1,93.5c51.6,0,94.2-36.1,94.2-95.7  C1071.4,605.7,1030.5,568.5,980.6,568.5z M975.6,579.9c31.5,0,53.8,33.1,53.8,88c0,50.8-21.2,76.3-47.3,76.3c-35.1,0-56-40-56-87.1  C926.1,609.5,947.8,579.9,975.6,579.9z"/>
<path d="M1278.4,572.5h-67.1v9.7c20.1,1.1,25.9,5.8,27.2,17.7c0.6,8,2.2,21,2.2,45.2v48.5h-1.1l-105-121h-50.8v9.7  c11.5,1.1,17.8,3.3,22.8,10c5.2,6.3,5.8,11.6,5.8,29.5v57.6c0.2,15.2-0.8,30.4-2.8,45.5c-1.1,11.9-7.5,16.3-22.8,17.4v9.7h67.4v-9.7  c-20.3-0.8-25-6.1-26.4-18.2c-1.6-14.8-2.3-29.8-2.2-44.7v-62.1h0.8l114.3,137.4h13.1V645.1c-0.1-15.3,0.8-30.6,2.5-45.8  c1.4-12.7,7.2-16.3,22-17.1L1278.4,572.5z"/>
<path class="st0" d="M8,10.5c0-1,0.2-1.9,0.6-2.9s0.9-1.7,1.6-2.4s1.5-1.2,2.4-1.6S14.5,3,15.5,3h570.8c1,0,2,0.2,2.9,0.6  c0.9,0.4,1.7,0.9,2.4,1.6c0.7,0.7,1.2,1.5,1.6,2.4c0.4,0.9,0.6,1.9,0.6,2.9v506.9c0,1-0.2,2-0.6,2.9s-0.9,1.7-1.6,2.4  c-0.7,0.7-1.5,1.2-2.4,1.6c-0.9,0.4-1.9,0.6-2.9,0.6H15.5c-1,0-1.9-0.2-2.9-0.6s-1.7-0.9-2.4-1.6c-0.7-0.7-1.2-1.5-1.6-2.4  c-0.4-0.9-0.6-1.9-0.6-2.9V10.5z"/>
<radialGradient id="SVGID_1_" cx="1498.3982" cy="2416.4299" r="1" gradientTransform="matrix(936.399 0 0 822.859 -1402782.125 -1988323.875)" gradientUnits="userSpaceOnUse">
	<stop offset="0" style="stop-color:#BF2026"/>
	<stop offset="0.51" style="stop-color:#BE2126"/>
	<stop offset="1" style="stop-color:#C62127"/>
</radialGradient>
<path class="st1" d="M36.9,39.4c0-1,0.2-2,0.6-2.9c0.4-0.9,0.9-1.7,1.6-2.4s1.5-1.2,2.4-1.6c0.9-0.4,1.9-0.6,2.9-0.6h513  c1,0,2,0.2,2.9,0.6s1.7,0.9,2.4,1.6c0.7,0.7,1.2,1.5,1.6,2.4c0.4,0.9,0.6,1.9,0.6,2.9v448.9c0,1-0.2,2-0.6,2.9  c-0.4,0.9-0.9,1.7-1.6,2.4c-0.7,0.7-1.5,1.2-2.4,1.6c-0.9,0.4-1.9,0.6-2.9,0.6h-513c-1,0-2-0.2-2.9-0.6s-1.7-0.9-2.4-1.6  c-0.7-0.7-1.2-1.5-1.6-2.4c-0.4-0.9-0.6-1.9-0.6-2.9V39.4z"/>
<path class="st2" d="M234.3,261.8v164.3c0,3.6-1,5.8-4.1,5.8s-4.6-2.2-4.6-5.8v-21.7h-8.2c-5.8,0-24.8,14.5-36.7,23.6  c-3.9,2.9-6.9,5.4-8.7,6.6c-13.3-7.7-27.3-14.2-41.8-19.5c-2.2,2.1-4.2,3.9-6.1,5.5c-3.9,3.5-6.8,6.2-8.9,8.5  c-0.7,0.7-1.3,1.4-2.1,2.1c-1.8,1.9-2.8,2.9-3.9,2.9c-1.3-0.1-2.4-0.7-3.3-1.6c-0.9-0.9-1.5-2.1-1.6-3.4c0-2.2,5-7.6,28.2-31.3  c15.9-16.3,22.3-35.7,22.3-65.6c0-49.4-21.3-91.4-45.8-91.4c-8.2,0-12.3,3.2-13.6,11.4c-0.4,4.2-2.2,5.4-4.2,5.4  c-3.6,0-5.4-5.9-5.4-15.9c0-22.7,15.9-40.7,35.3-40.7c9.2,0,15.2,4,20.6,7.5c4.6,2.9,8.4,5.4,13,4.8v-33.1c0.1-4-0.7-8.1-2.3-11.7  s-4.1-7-7.2-9.6c-5.4-4.6-33.6-23.6-44.1-23.6c-1.7,0-3.3,0.3-4.8,0.8c-0.9,0.3-1.9,0.5-2.9,0.6c-1.3,0-1.8-0.4-1.8-1.4  c0-1.3,0.7-2.1,2.8-4.4c0.3-0.3,0.6-0.7,0.8-1l36-35.2c0.3-0.3,0.7-0.4,1-0.7c1-0.9,2.2-1.5,3.6-1.5c7.2,0,27.4,13.6,43.7,24.8  c11.4,7.8,21,14.2,23.4,14.2c4.3,0,17.3-8,31.3-16.7c16.4-10.2,34.4-21.4,41.5-21.4c3.3,0,6.9,2.8,30.1,21.6l0.1,0.1  c1.5,1.3,3,2.5,4.7,3.7c1.1,0.8,2.5,2.1,4.1,3.5c4.9,4,11.5,9.7,17.7,13.4c7.3,4.6,7.8,5.4,7.8,14c4.6-1,9.5-4.6,38.2-27.7  c8.2-6.8,32.2-26.3,34-26.3c2.2,0,22.3,8.2,51.9,20.3c8.7,3.6,10,4.6,10,10v234c0,7.6,1,10.4,4.1,13.1  c13.5,11.8,21.9,16.3,26.4,16.3c1.7,0,3.3-0.7,4.6-1.8c2.2-3.2,2.8-3.6,4.2-3.6s2.8,1.8,2.8,3.6c0,2.8-20.3,28.1-41.4,44.4  c-12.7-4.6-34.4-19.5-46.8-32.1c-4.1-4.6-5-5.4-5-13.1V219.4c0-19.5,6.2-32.7,29-62.9c11.9-15.4,12.7-19.9,10.4-19.9  c-1.1,0-11.3,7.1-20.6,13.4c-6.4,4.3-12.2,8.4-14.4,9.7l-2.9-1.7c-22.3-12.7-29.5-16.9-42.2-16.9c-7.2,0-12.3,3.6-12.3,8.2v278.4  c0,3.6-1.8,6.4-4.6,6.4c-2.2,0-3.6-2.2-3.6-5.8v-20.9c-12.7,2.1-24.1,12.4-31.5,19.4c-4,3.7-6.9,6.4-8.4,6.4c-5,0-34.4-35.3-34.4-38  V261.8H234.3z M226,146.4c0-9.2-1-12.2-2.6-12.2c-4,0-18.7,9.2-18.7,12.2v125.3c0,60.9-6.9,68.1-22.7,84.6c-0.3,0.4-0.6,0.7-1,1  c-7.3,7.6-9.2,9.5-14.5,15.9c9.5,13.1,41.4,19.1,59.5,18.1L226,146.4L226,146.4z M287.4,218.9h-53.1v-76.1c0-5.9,2.6-9.2,7.7-9.2  c11.4,0,45.4,25.7,45.4,35.3L287.4,218.9z M362,154.5c0-1-0.4-1.4-1.8-1.4c-1.8,0.2-3.5,0.9-5,1.8l-10.4,6.4  c-5.8,3.6-7.7,5.4-7.7,8.2v45.2c0,3.2,4.1,5.4,7.3,5.4h17.7v-65.6H362z M344.6,261h17.1v131.2c-16.7-1.4-24.5-10-24.5-28.1v-92.8  C337.3,264.6,339.7,261,344.6,261z"/>
<path d="M1630.1,259.6h21.9c0.4,11.5,4.4,21.2,12.2,29.4c7.9,8,17.6,11.9,28.8,11.9c11.8,0,21.8-3.8,29.9-11.4  c8.3-7.8,12.5-17.5,12.5-29.1c0-11.6-4.7-21.3-14.1-29.1c-6.5-5.2-17-9.7-31.6-13.6c-8.7-2.2-15-4.2-18.8-5.8  c-6.8-2.6-12.6-5.8-17.2-9.7c-11.5-9.8-17.2-22.5-17.2-38.2c0-16.3,5.7-29.6,17.2-39.9c10.9-10.2,24.6-15.2,41-15.2  c15.7,0,29,5.4,39.9,16.1c11.1,10.7,16.5,23.8,16.4,39.4h-21.3c-0.7-10.5-4.5-19.1-11.4-25.8s-15.5-10-26.1-10  c-9.8,0-18.1,3.5-24.9,10.5c-6.8,7-10.2,15.4-10.2,25.2c0,10.9,4.2,19.3,12.8,25.2c5.2,3.5,14.4,7.1,27.7,10.8  c10.7,3,17.7,5.1,20.8,6.4c7,2.8,13.2,6.5,18.6,11.1c12.8,11.3,19.1,25.6,19.1,43c0,16.6-6.2,30.8-18.6,42.4  c-12.4,11.6-27,17.5-43.8,17.5c-17.7,0-32.8-5.7-45.2-17.2C1636,291.8,1629.9,277.2,1630.1,259.6z M1811.1,317V130.7H1764v-18.6  h114.2v18.6h-46.6V317H1811.1z M1901.2,317V112.1h112v18.6h-91.5v73.7h88.4V223h-88.4v75.4h91.5V317H1901.2z M2116,317l-84.6-204.9  h22.5l71.8,179.4l72.4-179.4h22.4L2135.4,317H2116z M2244.4,317V112.1h112v18.6h-91.5v73.7h88.4V223h-88.4v75.4h91.5V317H2244.4z   M2393,317V112.1h27.7l114.8,169.9V112.1h20.5V317h-20.5l-122-180.2V317H2393z M1715.2,565.5h139.2c-1.8,27.7-13.4,51-34.7,69.8  c-21.2,18.8-45.8,28.3-73.7,28.3c-29.8,0-55.5-10.3-77.3-31c-21.6-20.9-32.4-46.2-32.4-76c0-28.3,10.5-52.8,31.6-73.5  c21.2-20.9,47.3-31.3,78.2-31.3c22.5,0,42.6,5.8,60.2,17.5c19,12.6,30.9,26.1,35.8,40.5h-23.3c-7-11.8-17.3-21.2-30.8-28  c-13.3-6.8-27.3-10.3-41.9-10.3c-24,0-44.3,7.7-61,23c-18.8,17.4-28.3,38.2-28.3,62.4c0,24.6,9,45.3,26.9,62.1  c17.4,16.6,38.4,25,63.2,25c18.7,0,35.8-5.5,51.6-16.6c15.9-11.3,26.3-25.7,31.3-43.2h-114.5V565.5z M1886.8,660V455.1h112v18.6  h-91.5v73.7h88.4V566h-88.4v75.4h91.5V660H1886.8z M2035.4,660V455.1h48.8c27.2,0,46.6,3.3,58.2,10c21.2,12,31.9,31,31.9,56.8  c0,16.6-5.9,31-17.7,43c-11.8,12-26.1,18.2-42.7,18.6l57.7,76.5H2146l-69.6-92.9h6.1c21.6,0,36.5-1.8,44.6-5.5  c17.8-8.1,26.6-22,26.6-41.6c0-15.3-6.4-27.5-19.1-36.6c-9.2-6.5-24.7-9.7-46.3-9.7h-32.4V660H2035.4z M2203.8,660V455.1h48.8  c27.2,0,46.6,3.3,58.2,10c21.2,12,31.9,31,31.9,56.8c0,16.6-5.9,31-17.8,43c-11.8,12-26.1,18.2-42.7,18.6l57.6,76.5h-25.5  l-69.6-92.9h6.1c21.6,0,36.5-1.8,44.6-5.5c17.7-8.1,26.6-22,26.6-41.6c0-15.3-6.4-27.5-19.1-36.6c-9.2-6.5-24.7-9.7-46.3-9.7h-32.4  V660H2203.8z M2354.2,660l88.4-204.8h22.7l87.9,204.8H2531l-29.7-68.8H2406l-29.7,68.8H2354.2z M2414,572.7h79.3l-39.4-94  L2414,572.7z M2577.4,660V455.1h48.8c27.2,0,46.6,3.3,58.2,10c21.2,12,31.9,31,31.9,56.8c0,16.6-5.9,31-17.7,43  c-11.8,12-26.1,18.2-42.7,18.6l57.6,76.5H2688l-69.6-92.9h6.1c21.6,0,36.5-1.8,44.6-5.5c17.7-8.1,26.6-22,26.6-41.6  c0-15.3-6.4-27.5-19.1-36.6c-9.2-6.5-24.7-9.7-46.3-9.7h-32.4V660H2577.4z M2745.8,660V455.1h55.2c34,0,60.8,8,80.4,23.8  c11.6,9.4,20.8,21.2,27.4,35.2c6.6,13.9,10,28.2,10,43c0,30.3-11.2,55.7-33.5,76.2c-11.3,10.3-24.2,17.6-38.8,21.6  c-11.6,3.3-26.3,5-44.1,5H2745.8z M2766.3,641.4h26.3c16.8,0,29.7-0.9,38.5-2.8c13.3-2.6,25.1-8,35.5-16.1  c21.1-16.6,31.6-38.4,31.6-65.4c0-26.6-10.6-48.2-31.9-64.9c-10.2-8-21.9-13.2-35.2-15.8c-8.9-1.9-21.7-2.8-38.5-2.8h-26.3  L2766.3,641.4L2766.3,641.4z"/>
</svg>