<svg id="Layer_1" width="194" height="32" data-name="Layer 1" xmlns="http://www.w3.org/2000/svg" xmlns:xlink="http://www.w3.org/1999/xlink" viewBox="0 0 166 32"><defs><radialGradient id="radial-gradient" cx="-1197.395" cy="0.585" r="0.03" gradientTransform="translate(1544196.752 -660.406) scale(1289.62 1133.08)" gradientUnits="userSpaceOnUse"><stop offset="0" stop-color="#be2026"/><stop offset="0.505" stop-color="#bc2126"/><stop offset="1" stop-color="#c52127"/></radialGradient></defs><rect x="60.032" y="0.269" width="0.435" height="31.402" style="fill:#fff"/><circle cx="82.624" cy="15.905" r="5.184" style="fill:#fff"/><polygon points="111.754 21.995 103.66 21.995 103.66 7.894 107.322 7.894 107.322 18.791 111.754 18.791 111.754 21.995" style="fill:#fff"/><path d="M118.493,13.637a2.6,2.6,0,0,0-2.675,2.523c0,.061,0,.122,0,.183a2.627,2.627,0,0,0,2.391,2.844q.087.007.174.009a2.713,2.713,0,0,0,2.783-2.64c0-.04,0-.081,0-.121a2.655,2.655,0,0,0-2.508-2.8c-.055,0-.111,0-.166,0M112.358,16.4a5.709,5.709,0,0,1,5.458-5.928,4.367,4.367,0,0,1,3.241,1.381v-1.16h3.37v11.3H121v-1.1a4.744,4.744,0,0,1-3.369,1.381c-3.132,0-5.275-2.247-5.275-5.872" style="fill:#fff"/><polygon points="134.537 21.995 126.443 21.995 126.443 7.894 130.106 7.894 130.106 18.791 134.537 18.791 134.537 21.995" style="fill:#fff"/><path d="M139.463,21.994h-3.407v-11.3h3.407ZM135.728,7.821a2.06,2.06,0,0,1,4.12-.037,2.1,2.1,0,0,1-2.1,2.1h-.007a2.02,2.02,0,0,1-2.013-2.029V7.823" style="fill:#fff"/><path d="M146.623,13.4a2.441,2.441,0,0,0-2.394,2.487c0,.073.006.147.014.22a2.4,2.4,0,0,0,2.136,2.638c.075.008.151.012.227.013a2.572,2.572,0,0,0,2.617-2.528c0-.035,0-.069,0-.1a2.477,2.477,0,0,0-2.211-2.717,2.525,2.525,0,0,0-.389-.009m-5.695,2.726c0-3.056,1.941-5.652,4.909-5.652a4.218,4.218,0,0,1,3.368,1.491V10.693h3.262v9.958c0,3.5-2.621,5.319-5.771,5.319-2.765,0-5.182-1.4-5.547-3.94h3.827a1.741,1.741,0,0,0,1.794.92c1.19,0,2.288-.55,2.288-1.784a6.3,6.3,0,0,0-.018-.847,5.146,5.146,0,0,1-3.223,1.308c-2.91,0-4.889-2.431-4.889-5.5" style="fill:#fff"/><path d="M160.067,13.637a2.6,2.6,0,0,0-2.675,2.523c0,.061,0,.122,0,.183a2.626,2.626,0,0,0,2.389,2.844q.087.007.174.009a2.713,2.713,0,0,0,2.784-2.639c0-.04,0-.081,0-.122a2.655,2.655,0,0,0-2.506-2.8c-.056,0-.111,0-.167,0M153.93,16.4a5.709,5.709,0,0,1,5.457-5.928,4.364,4.364,0,0,1,3.243,1.381v-1.16H166v11.3h-3.425v-1.1a4.746,4.746,0,0,1-3.369,1.381c-3.132,0-5.276-2.247-5.276-5.872" style="fill:#fff"/><path d="M71.7,6.786a.18.18,0,0,0,.01.182.194.194,0,0,0,.066.058l5.474,3.182.013.007a.176.176,0,0,0,.186-.012.188.188,0,0,0,.044-.045.138.138,0,0,0,.014-.027,7.179,7.179,0,0,1,5.007-3.538.081.081,0,0,0,.022,0,.165.165,0,0,0,.062-.028.179.179,0,0,0,.073-.173V6.38L81.511.153V.142a.17.17,0,0,0-.032-.071A.177.177,0,0,0,81.314,0H81.3a13.908,13.908,0,0,0-9.6,6.781" style="fill:#883994"/><path d="M68.575,18.81a.181.181,0,0,0,.149.106.17.17,0,0,0,.086-.014l5.908-2.277.013-.006a.176.176,0,0,0,.108-.152.191.191,0,0,0-.008-.063.136.136,0,0,0-.011-.028,7.17,7.17,0,0,1,.376-6.119l.01-.019a.161.161,0,0,0,.017-.065.177.177,0,0,0-.089-.166L75.123,10,69.544,7.008h-.009a.164.164,0,0,0-.075-.019.176.176,0,0,0-.157.083l0,.008h0a13.9,13.9,0,0,0-.721,11.729" style="fill:#0064b0"/><path d="M76.084,28.691a.179.179,0,0,0,.175-.05.173.173,0,0,0,.042-.076l1.884-6.045v-.013a.177.177,0,0,0-.053-.18.167.167,0,0,0-.054-.033.1.1,0,0,0-.029-.008,7.176,7.176,0,0,1-4.563-4.1l-.008-.02a.18.18,0,0,0-.041-.054.176.176,0,0,0-.185-.032h-.011L67.434,20.6h-.01a.2.2,0,0,0-.061.046.179.179,0,0,0-.033.175l.006.015h0a13.9,13.9,0,0,0,8.747,7.848" style="fill:#059ad6"/><path d="M88.429,28.986a.179.179,0,0,0,.037-.249L84.938,23.48l-.009-.011a.175.175,0,0,0-.172-.071.185.185,0,0,0-.06.02l-.024.018a7.184,7.184,0,0,1-6.051.989l-.021-.006a.189.189,0,0,0-.067,0,.18.18,0,0,0-.142.125v.012l-1.684,6.1v.011a.171.171,0,0,0,0,.078.178.178,0,0,0,.116.134h.015a13.91,13.91,0,0,0,11.6-1.9" style="fill:#09af5e"/><path d="M96.467,19.557a.177.177,0,0,0-.173-.184l-6.312-.492h-.014a.177.177,0,0,0-.163.092.185.185,0,0,0-.02.06.15.15,0,0,0,0,.03,7.174,7.174,0,0,1-2.977,5.359l-.017.012a.2.2,0,0,0-.045.052.177.177,0,0,0,.01.188l.008.01L90.5,29.789l.008.009a.176.176,0,0,0,.236.042l.013-.009h0a13.915,13.915,0,0,0,5.707-10.273" style="fill:#fcdb2b"/><path d="M94.08,7.376a.181.181,0,0,0-.179-.032.191.191,0,0,0-.072.05l-4.357,4.6-.009.01a.175.175,0,0,0-.032.184.19.19,0,0,0,.034.054.209.209,0,0,0,.022.02,7.176,7.176,0,0,1,2.29,5.687v.022a.184.184,0,0,0,.012.066.177.177,0,0,0,.152.111h.012l6.324.307h.011a.166.166,0,0,0,.076-.014.178.178,0,0,0,.106-.143v-.016a13.914,13.914,0,0,0-4.389-10.9" style="fill:#f58b31"/><path d="M83.012,1.714a.18.18,0,0,0-.136.121.188.188,0,0,0-.005.088L83.8,8.187V8.2a.176.176,0,0,0,.189.145.135.135,0,0,0,.029-.005A7.178,7.178,0,0,1,89.9,10.049l.017.014a.193.193,0,0,0,.06.032.174.174,0,0,0,.181-.051l.008-.01L94.31,5.249l.007-.009A.181.181,0,0,0,94.31,5l-.01-.01h0A13.912,13.912,0,0,0,83.012,1.714" style="fill:#ed3335"/><path d="M86.428,18.856a3.027,3.027,0,0,0,.132-.653,3.321,3.321,0,0,1-.341.285A3.016,3.016,0,0,1,85.1,19l-1.013-1.1-.014.009.734,1.3a2.962,2.962,0,0,1-.842.923,3.236,3.236,0,0,1-.375.236,3.106,3.106,0,0,0,.659.077,4.818,4.818,0,0,1-3.244,0,3.132,3.132,0,0,0,.661-.077,3.236,3.236,0,0,1-.375-.236,2.962,2.962,0,0,1-.842-.923l.734-1.3-.013-.01L80.152,19a3,3,0,0,1-1.123-.512,3.187,3.187,0,0,1-.34-.285,3,3,0,0,0,.132.657,4.8,4.8,0,0,1-1.015-2.955v-.158a2.95,2.95,0,0,0,.284.627,3.353,3.353,0,0,1,.108-.431,2.991,2.991,0,0,1,.623-1.089l1.449.294v-.016l-1.354-.619a2.984,2.984,0,0,1,.139-1.223,3.181,3.181,0,0,1,.166-.411,2.792,2.792,0,0,0-.614.352,4.82,4.82,0,0,1,2.707-1.964,2.638,2.638,0,0,0-.536.481,3.26,3.26,0,0,1,.442-.03,2.976,2.976,0,0,1,1.22.251l.168,1.465h.017l.168-1.466a2.981,2.981,0,0,1,1.217-.25,3.286,3.286,0,0,1,.443.03,2.744,2.744,0,0,0-.535-.48,4.812,4.812,0,0,1,2.7,1.961,2.78,2.78,0,0,0-.61-.35,3.181,3.181,0,0,1,.166.411,3.006,3.006,0,0,1,.138,1.224l-1.351.618v.017l1.448-.294a2.983,2.983,0,0,1,.621,1.088,3.2,3.2,0,0,1,.108.431,2.839,2.839,0,0,0,.283-.622v.153a4.787,4.787,0,0,1-1.012,2.951m-3.8-8.189a5.238,5.238,0,1,0,5.238,5.238h0a5.244,5.244,0,0,0-5.238-5.238" style="fill:#231f20"/><polygon points="80.508 15.215 81.317 17.704 83.934 17.704 84.742 15.215 82.625 13.677 80.508 15.215" style="fill:#231f20"/><path d="M35.478,10.747c2.609-.389,3.18-1.742,3.18-4.059V4.246Q38.658.4,32.484.389T26.31,4.246V7.123c0,2.022.447,3.08,2.824,3.484-2.377.529-2.824,2.006-2.824,4.168v3.158q0,3.9,6.174,3.888t6.174-3.888V14.806C38.658,12.427,38.087,11.074,35.478,10.747ZM32.453,9.394c-.911,0-1.358-.435-1.358-1.291V4c0-.84.447-1.244,1.358-1.244s1.389.42,1.389,1.244V8.1C33.842,8.959,33.379,9.394,32.453,9.394Zm0,9.938c-.911,0-1.358-.435-1.358-1.291v-4.65a1.182,1.182,0,0,1,1.015-1.327,1.2,1.2,0,0,1,.343.005c.926,0,1.389.436,1.389,1.322v4.65C33.842,18.9,33.379,19.332,32.453,19.332Z" style="fill:#fff"/><path d="M49.638,10.747c2.61-.389,3.182-1.742,3.182-4.059V4.246Q52.82.4,46.641.389c-4.125,0-6.179,1.291-6.179,3.857V7.123c0,2.022.447,3.08,2.827,3.484-2.38.529-2.827,2.006-2.827,4.168v3.158c0,2.6,2.054,3.888,6.179,3.888s6.179-1.291,6.179-3.888V14.806C52.82,12.427,52.248,11.074,49.638,10.747ZM46.61,9.394c-.912,0-1.359-.435-1.359-1.291V4c0-.84.447-1.244,1.359-1.244.927,0,1.39.42,1.39,1.244V8.1C48.016,8.959,47.552,9.394,46.61,9.394Zm0,9.938c-.912,0-1.359-.435-1.359-1.291v-4.65a1.181,1.181,0,0,1,1.015-1.327,1.2,1.2,0,0,1,.344.005c.927,0,1.39.436,1.39,1.322v4.65C48.016,18.9,47.552,19.332,46.61,19.332Z" style="fill:#fff"/><path d="M9.516,31.358v-.4c-.887-.091-.943-.171-.966-1.22l-.1-4.265c-.023-.947.022-1.038.931-1.129v-.4H7.1l-2.232,5L2.675,23.946H.323v.4c.978.091,1.057.251.966,1.551l-.182,2.246A17.964,17.964,0,0,1,.869,30.3c-.068.4-.284.6-.921.661v.4H2.675v-.4c-.75-.068-.977-.171-1.022-.684a11.484,11.484,0,0,1,0-1.836l.136-2.977h.046l2.318,5.817h.318L6.982,25.35h.057l.022,4.391c.012,1.049-.056,1.129-.909,1.22v.4Z" style="fill:#fff"/><path d="M17.636,31.358v-.4c-.716-.091-.863-.239-1.25-1.243-.738-1.961-1.443-3.946-2.17-5.942l-.579.149-2.33,5.862c-.375.958-.511,1.083-1.261,1.174l-.011.4H12.58v-.4c-.829-.1-.852-.262-.693-.809.136-.457.284-.867.409-1.221h2.182c.17.468.34.947.454,1.289.182.5.125.639-.545.741v.4Zm-3.374-3.033H12.489c.3-.81.58-1.631.9-2.464h.034Z" style="fill:#fff"/><path d="M26.079,23.946H23.307v.4c.829.045,1.068.239,1.125.73.022.33.091.866.091,1.87v2.007h-.046l-4.34-5.006h-2.1v.4a1.156,1.156,0,0,1,.943.41c.216.263.238.479.238,1.221v2.383a13.613,13.613,0,0,1-.113,1.882c-.046.49-.307.673-.943.718v.4h2.783v-.4c-.84-.034-1.034-.251-1.09-.752a16.072,16.072,0,0,1-.091-1.848V25.793H19.8l4.727,5.679h.545V26.945a16.189,16.189,0,0,1,.1-1.893c.057-.525.3-.673.909-.707Z" style="fill:#fff"/><path d="M31.286,25.713c-.091-.707-.17-1.209-.216-1.631a4.637,4.637,0,0,0-1.579-.308A2.322,2.322,0,0,0,26.907,25.8a2.08,2.08,0,0,0-.016.208c0,1.095.806,1.71,1.977,2.3.852.457,1.352.879,1.352,1.551a1.1,1.1,0,0,1-1.136,1.2c-1.091,0-1.762-1.277-1.989-2.007l-.4.125a13.852,13.852,0,0,0,.33,1.939,5.511,5.511,0,0,0,.693.251,4.055,4.055,0,0,0,1.148.16,2.474,2.474,0,0,0,2.748-2.166c.006-.05.01-.1.013-.15,0-1.129-.818-1.767-2.011-2.349-1-.5-1.409-.867-1.409-1.494a1.082,1.082,0,0,1,1.036-1.128h.064c.932,0,1.352.844,1.59,1.562Z" style="fill:#fff"/><path d="M35.7,31.358v-.4c-.841-.08-.943-.159-.943-1.117V25.474c0-.97.1-1.049.943-1.129v-.4H32.288v.4c.841.08.943.159.943,1.129v4.368c0,.958-.1,1.037-.943,1.117v.4Z" style="fill:#fff"/><path d="M40.505,23.774a3.806,3.806,0,0,0-3.985,3.619q-.006.135,0,.27a3.875,3.875,0,0,0,7.75-.006c0-.028,0-.057,0-.085a3.686,3.686,0,0,0-3.571-3.8C40.631,23.773,40.568,23.773,40.505,23.774Zm-.205.479c1.307,0,2.228,1.369,2.228,3.639,0,2.1-.875,3.158-1.955,3.158-1.454,0-2.318-1.653-2.318-3.6C38.255,25.474,39.153,24.253,40.3,24.253Z" style="fill:#fff"/><path d="M52.821,23.946H50.048v.4c.83.045,1.069.239,1.125.73.023.33.091.866.091,1.87v2.007h-.045l-4.341-5.006h-2.1v.4a1.153,1.153,0,0,1,.943.41c.216.263.239.479.239,1.221v2.383a13.163,13.163,0,0,1-.114,1.882c-.045.49-.306.673-.943.718v.4h2.784v-.4c-.841-.034-1.034-.251-1.091-.752a16.072,16.072,0,0,1-.091-1.848V25.793h.035l4.726,5.679h.546V26.945a16.189,16.189,0,0,1,.1-1.893c.057-.525.3-.673.909-.707Z" style="fill:#fff"/><path d="M.279.7A.309.309,0,0,1,.586.389H24.2A.31.31,0,0,1,24.506.7V21.662a.309.309,0,0,1-.309.309H.588a.309.309,0,0,1-.309-.309h0Z" style="fill:#d3b271"/><path d="M1.475,1.9a.309.309,0,0,1,.309-.309H23a.309.309,0,0,1,.309.309h0V20.463a.309.309,0,0,1-.309.309H1.784a.309.309,0,0,1-.309-.309h0Z" style="fill:url(#radial-gradient)"/><path d="M9.639,11.1v6.8c0,.148-.038.241-.17.241s-.188-.093-.188-.241V17H8.945a5.8,5.8,0,0,0-1.517.981h0c-.159.122-.289.222-.362.272a10.233,10.233,0,0,0-1.73-.8c-.09.085-.174.161-.249.231h0c-.158.146-.282.26-.368.349-.033.032-.06.061-.085.086-.074.078-.116.121-.158.121a.239.239,0,0,1-.209-.207c0-.093.209-.318,1.167-1.3a3.538,3.538,0,0,0,.921-2.713c0-2.04-.882-3.784-1.9-3.784a.487.487,0,0,0-.556.408.434.434,0,0,0-.006.062c-.017.169-.094.224-.171.224-.149,0-.226-.245-.226-.656a1.584,1.584,0,0,1,1.47-1.688,1.493,1.493,0,0,1,.851.308.811.811,0,0,0,.538.2V7.727a1.107,1.107,0,0,0-.4-.88,5.463,5.463,0,0,0-1.823-.974.68.68,0,0,0-.2.032.454.454,0,0,1-.122.023c-.056,0-.077-.017-.077-.055s.03-.084.114-.183h0l.035-.041,1.483-1.46L5.4,4.161a.23.23,0,0,1,.15-.066,6.52,6.52,0,0,1,1.81,1.024,4.806,4.806,0,0,0,.968.589,5.187,5.187,0,0,0,1.29-.69,5.992,5.992,0,0,1,1.717-.884c.14,0,.284.115,1.247.89h.005l.192.155c.047.037.1.086.171.141h0a6.563,6.563,0,0,0,.732.553c.3.187.32.225.32.58.187-.038.4-.186,1.576-1.143A16.728,16.728,0,0,1,17,4.227c.094,0,.92.338,2.143.842.358.148.413.186.413.411v9.684c0,.318.039.432.171.542.562.487.9.673,1.09.673A.278.278,0,0,0,21,16.3c.093-.131.115-.148.17-.148s.115.076.115.148a7.691,7.691,0,0,1-1.708,1.837,6.387,6.387,0,0,1-1.934-1.329.577.577,0,0,1-.2-.542V9.336c0-.8.26-1.351,1.2-2.6.49-.634.524-.825.43-.825a8.473,8.473,0,0,0-.855.558c-.261.179-.5.346-.594.4L17.5,6.8c-.919-.527-1.219-.7-1.742-.7-.3,0-.507.148-.507.338V17.954c0,.148-.077.262-.188.262-.093,0-.149-.093-.149-.241v-.864a2.773,2.773,0,0,0-1.3.8c-.165.152-.286.264-.351.264A6.643,6.643,0,0,1,11.837,16.6V11.1ZM9.3,6.322c0-.377-.038-.5-.11-.5-.167,0-.772.377-.772.5v5.185c0,2.516-.286,2.817-.936,3.5l-.039.041c-.3.317-.375.393-.6.656a3.462,3.462,0,0,0,2.463.749V6.322Zm2.539,3h-2.2V6.174c0-.246.111-.377.32-.377.468,0,1.878,1.067,1.878,1.46Zm3.08-2.663c0-.038-.017-.055-.076-.055a.489.489,0,0,0-.209.076l-.43.263c-.243.148-.32.224-.32.339v1.87c0,.132.171.225.3.225h.732Zm-.715,4.4h.711V16.49c-.694-.055-1.014-.41-1.014-1.16V11.49c0-.279.1-.432.3-.432Z" style="fill:#fff;fill-rule:evenodd"/></svg>