<svg width="32" height="32" viewBox="0 0 32 32" fill="none" xmlns="http://www.w3.org/2000/svg">
<path d="M18.6 10.36C15.582 12.181 8.24903 15.777 2.87903 14.112C2.87903 14.112 3.13703 16.867 6.64403 16.974C10.151 17.081 15.48 13.186 17.087 12.541C18.187 12.097 18.721 12.604 18.506 13.281C18.291 13.958 14.633 19.899 18.831 21.202C24.199 22.868 28.488 13.765 28.488 13.765C28.488 13.765 29.746 11.565 28.698 11.476C26.288 11.27 25.173 19.376 22.121 18.557C19.197 17.775 21.697 14.163 22.46 12.418C22.5757 12.106 22.6094 11.7695 22.5579 11.4408C22.5063 11.112 22.3713 10.802 22.1657 10.5403C21.9602 10.2787 21.6909 10.0741 21.3837 9.94625C21.0764 9.81839 20.7416 9.77148 20.411 9.81003C19.7684 9.82387 19.1419 10.0141 18.6 10.36Z" fill="url(#paint0_linear_1987_4961)"/>
<defs>
<linearGradient id="paint0_linear_1987_4961" x1="-1.31297" y1="15.601" x2="41.93" y2="15.601" gradientUnits="userSpaceOnUse">
<stop stop-color="#E21E2D"/>
<stop offset="0.4" stop-color="#E21E2D"/>
<stop offset="0.6" stop-color="#ED8023"/>
<stop offset="0.7" stop-color="#FEE200"/>
<stop offset="0.8" stop-color="#7EB942"/>
</linearGradient>
</defs>
</svg>
