<svg width="32" height="32" viewBox="0 0 32 32" fill="none" xmlns="http://www.w3.org/2000/svg">
    <path fill-rule="evenodd" clip-rule="evenodd" d="M23.956 0H8.019C3.603 0 0 3.606 0 8.025V24c0 4.394 3.603 8 8.019 8h15.962C28.396 32 32 28.394 32 23.975V8.025C31.975 3.606 28.371 0 23.956 0zm-3.013 9.685c0-.77.63-1.4 1.414-1.4.77 0 1.4.63 1.414 1.4a1.41 1.41 0 0 1-1.414 1.414 1.41 1.41 0 0 1-1.414-1.414zm-4.845.406a5.91 5.91 0 0 0 0 11.818 5.91 5.91 0 0 0 0-11.818zm0 9.704a3.783 3.783 0 0 1-3.78-3.781 3.783 3.783 0 0 1 3.78-3.78 3.783 3.783 0 0 1 3.78 3.78 3.783 3.783 0 0 1-3.78 3.78zM11.211 28h9.578A7.219 7.219 0 0 0 28 20.789V11.21A7.219 7.219 0 0 0 20.789 4H11.21A7.219 7.219 0 0 0 4 11.211v9.578A7.219 7.219 0 0 0 11.211 28zM6.254 11.211a4.966 4.966 0 0 1 4.957-4.957h9.578a4.966 4.966 0 0 1 4.957 4.957v9.578a4.966 4.966 0 0 1-4.957 4.957H11.21a4.966 4.966 0 0 1-4.957-4.957V11.21z" fill="#90949C"/>
</svg>