<svg id="Layer_1" data-name="Layer 1" xmlns="http://www.w3.org/2000/svg" xmlns:xlink="http://www.w3.org/1999/xlink" viewBox="0 0 100 100"><defs><style>.cls-1{mask:url(#mask);filter:url(#luminosity-noclip-3);}.cls-2,.cls-4{mix-blend-mode:multiply;}.cls-2{fill:url(#linear-gradient);}.cls-3{mask:url(#mask-2);filter:url(#luminosity-noclip-4);}.cls-4{fill:url(#linear-gradient-2);}.cls-5{fill:url(#radial-gradient);}.cls-6{fill:url(#linear-gradient-3);}.cls-7,.cls-9{fill:#6b001d;}.cls-10,.cls-8,.cls-9{fill-rule:evenodd;}.cls-8{fill:url(#linear-gradient-4);}.cls-10{fill:url(#linear-gradient-5);}.cls-11{fill:url(#radial-gradient-2);}.cls-12{isolation:isolate;}.cls-13{mask:url(#mask-3);}.cls-14{fill:url(#linear-gradient-6);}.cls-15{fill:url(#linear-gradient-7);}.cls-16{fill:url(#linear-gradient-8);}.cls-17{fill:url(#radial-gradient-3);}.cls-18{mask:url(#mask-4);}.cls-19{fill:url(#linear-gradient-9);}.cls-20{fill:url(#linear-gradient-10);}.cls-21{fill:url(#linear-gradient-11);}.cls-22{filter:url(#luminosity-noclip-2);}.cls-23{filter:url(#luminosity-noclip);}</style><filter id="luminosity-noclip" x="24.3" y="-8482" width="18.4" height="32766" filterUnits="userSpaceOnUse" color-interpolation-filters="sRGB"><feFlood flood-color="#fff" result="bg"/><feBlend in="SourceGraphic" in2="bg"/></filter><mask id="mask" x="24.3" y="-8482" width="18.4" height="32766" maskUnits="userSpaceOnUse"><g class="cls-23"/></mask><linearGradient id="linear-gradient" x1="-466.14" y1="149.83" x2="-466.14" y2="129.87" gradientTransform="matrix(0.95, -0.31, 0.31, 0.95, 433.3, -212.41)" gradientUnits="userSpaceOnUse"><stop offset="0" stop-color="#ccc"/><stop offset="0.64" stop-color="#f0f0f0"/><stop offset="1" stop-color="#fff"/></linearGradient><filter id="luminosity-noclip-2" x="60.02" y="-8482" width="31.03" height="32766" filterUnits="userSpaceOnUse" color-interpolation-filters="sRGB"><feFlood flood-color="#fff" result="bg"/><feBlend in="SourceGraphic" in2="bg"/></filter><mask id="mask-2" x="60.02" y="-8482" width="31.03" height="32766" maskUnits="userSpaceOnUse"><g class="cls-22"/></mask><linearGradient id="linear-gradient-2" x1="-1114.45" y1="-484.4" x2="-1114.45" y2="-514.37" gradientTransform="translate(1255.23 -260.08) rotate(-39.14)" xlink:href="#linear-gradient"/><radialGradient id="radial-gradient" cx="-64.9" cy="42.51" r="46.77" gradientTransform="translate(112.34 9.17) scale(0.97 0.97)" gradientUnits="userSpaceOnUse"><stop offset="0" stop-color="#ff4000"/><stop offset="1" stop-color="#800002"/></radialGradient><linearGradient id="linear-gradient-3" x1="47.09" y1="0.66" x2="52.28" y2="99.76" gradientUnits="userSpaceOnUse"><stop offset="0" stop-color="#fff243"/><stop offset="0.12" stop-color="#fce241"/><stop offset="0.35" stop-color="#f6b73a"/><stop offset="0.66" stop-color="#eb7331"/><stop offset="1" stop-color="#de2425"/></linearGradient><linearGradient id="linear-gradient-4" x1="114.78" y1="64.61" x2="191.22" y2="64.61" gradientTransform="translate(-90.7 -28.84) rotate(4.02)" gradientUnits="userSpaceOnUse"><stop offset="0.01" stop-color="#eb0011"/><stop offset="0.32" stop-color="#ea8600"/><stop offset="0.65" stop-color="#fff05e"/><stop offset="1" stop-color="#fff6d1"/></linearGradient><linearGradient id="linear-gradient-5" x1="710.03" y1="12.41" x2="761.54" y2="12.41" gradientTransform="translate(-654.89 -230.37) rotate(22.21)" xlink:href="#linear-gradient-4"/><radialGradient id="radial-gradient-2" cx="-85.14" cy="56.45" fy="42.45941019186299" r="14.16" xlink:href="#radial-gradient"/><filter id="luminosity-noclip-3" x="24.3" y="54.87" width="18.4" height="20.29" filterUnits="userSpaceOnUse" color-interpolation-filters="sRGB"><feFlood flood-color="#fff" result="bg"/><feBlend in="SourceGraphic" in2="bg"/></filter><mask id="mask-3" x="24.3" y="54.87" width="18.4" height="20.29" maskUnits="userSpaceOnUse"><g class="cls-1"><path class="cls-2" d="M31.56,63.62l0,0h0c-.13.79-.45,2.64-1,5.15.82-.25,1.64-.52,2.46-.82-.8-2.56-1.41-4.29-1.41-4.31m4.73,4.57-1,.45c.17.67.31,1.32.41,1.92-.58.25-1.17.48-1.76.7q-.22-.89-.51-1.89c-1.26.47-2.55.87-3.81,1.22Q29.31,69.82,29,69c.84-3.64,1.22-5.3,1.52-7.23.67-.24,1.34-.5,2-.78a47.1,47.1,0,0,1,2,5.13c.12.36.23.71.33,1.06l1-.46c.15.51.27,1,.38,1.47m5-.8a20.76,20.76,0,0,1-4,2.43l-.61.28c-.08-1.13-.14-1.95,1-4.19,2.87-5.62-.28-5.69-.93-5s-.23,1.43.06,2.17c-.36.19-.73.38-1.12.56l-.56.27c-1.63-4.71,2-5.42,3.16-4.86a4.1,4.1,0,0,1,2,3.38c.05,1.92-1.27,3.36-1.74,5.1a18.62,18.62,0,0,0,2.74-1.79,11.44,11.44,0,0,1,0,1.65m.6-4.68a7.52,7.52,0,0,0-11.1-5.35c-7,4.62-5.83,15.28,1.9,16.53,5.89,1,10.32-5.7,9.2-11.18m.42-.37a11.11,11.11,0,0,1-5.76,11.8c-7,2.81-14.4-4.15-10.7-12.63,4-9.24,13.63-7.08,16.13-.41.07.18.33,1.23.33,1.24m.16-.18a8.86,8.86,0,0,0-12.83-6.33c-6.68,4.49-8.2,16.83,1.64,19.11,7.41,1.71,12.46-6.84,11.19-12.78"/></g></mask><linearGradient id="linear-gradient-6" x1="-1037.07" y1="-424.36" x2="-1037.07" y2="-443.55" gradientTransform="translate(1122.98 -211.94) rotate(-36.97)" gradientUnits="userSpaceOnUse"><stop offset="0" stop-color="#a6a3a4"/><stop offset="0.35" stop-color="#cac8c9"/><stop offset="0.78" stop-color="#f0f0f0"/><stop offset="1" stop-color="#fff"/></linearGradient><linearGradient id="linear-gradient-7" x1="-1039.44" y1="-428.16" x2="-1039.44" y2="-438.27" gradientTransform="translate(1122.98 -211.94) rotate(-36.97)" gradientUnits="userSpaceOnUse"><stop offset="0"/><stop offset="0.5" stop-color="#141212"/><stop offset="1" stop-color="#231f20"/></linearGradient><linearGradient id="linear-gradient-8" x1="-461.64" y1="145.72" x2="-461.64" y2="135.13" gradientTransform="matrix(0.95, -0.31, 0.31, 0.95, 433.3, -212.41)" xlink:href="#linear-gradient-7"/><radialGradient id="radial-gradient-3" cx="-43.34" cy="46.08" fy="23.16945623378651" r="23.19" gradientTransform="translate(112.34 9.17) scale(0.97 0.97)" gradientUnits="userSpaceOnUse"><stop offset="0" stop-color="#ffa400"/><stop offset="1" stop-color="#ea6100"/></radialGradient><filter id="luminosity-noclip-4" x="60.02" y="39.95" width="31.03" height="32.28" filterUnits="userSpaceOnUse" color-interpolation-filters="sRGB"><feFlood flood-color="#fff" result="bg"/><feBlend in="SourceGraphic" in2="bg"/></filter><mask id="mask-4" x="60.02" y="39.95" width="31.03" height="32.28" maskUnits="userSpaceOnUse"><g class="cls-3"><path class="cls-4" d="M85,52.63c-.09-.37-1-3.56-3.26-2.23-2.34,1.6-.48,5.71,1,5.91,1.16.15,2.91-1.13,2.26-3.68M77.12,66.47q-1.4.5-2.79.93C73.51,65,72.51,62,71.39,58.54c-.1-.33-.21-.66-.31-1-1.29.4-2.58.77-3.84,1.09-.24-.77-.47-1.55-.69-2.32L67,56.2c1.39-.49,3.5-1.22,3-4,.84-.27,1.67-.55,2.5-.85.73,2,1.43,4.07,2.09,6.13,1.12,3.49,2,6.55,2.54,9M88,54.76c.9,7-4.18,10.68-6.75,9A3,3,0,0,1,80,62.11c.81-.35,1.61-.71,2.39-1.08l.42-.2v0c.71,1.76,2.39.43,2.92-1a7.09,7.09,0,0,0,.2-3.68,4.15,4.15,0,0,1-2.15,2.6c-5.13,2.34-7.1-4.76-5.9-8,1-2.72,5.88-6.46,8.9-.1a14.14,14.14,0,0,1,1.15,4m1.88-1c-.67-8.16-8.59-13.88-18.19-9.33-12,7.12-11.14,23.14,1.32,26C83,72.72,90.49,61.83,89.83,53.77m.84-.63a18.73,18.73,0,0,1-10.8,17.74C68.73,75,56.75,64.24,62.64,51.38c6.43-14,23.39-13.3,27.28-2a14.08,14.08,0,0,1,.75,3.72m.34-.3C90.13,42.3,80.1,37,70,41.65c-12.58,7.62-14.18,25.93.82,30C83.44,75.15,91.7,61.16,91,52.84"/></g></mask><linearGradient id="linear-gradient-9" x1="1743.79" y1="-456.85" x2="1743.79" y2="-490.02" gradientTransform="matrix(0.57, 0.82, -0.82, 0.57, -1314.21, -1098.59)" gradientUnits="userSpaceOnUse"><stop offset="0" stop-color="#d3d2d0"/><stop offset="0.61" stop-color="#f1f1f0"/><stop offset="1" stop-color="#fff"/></linearGradient><linearGradient id="linear-gradient-10" x1="-1118.26" y1="-490.39" x2="-1118.26" y2="-505.96" gradientTransform="translate(1255.23 -260.08) rotate(-39.14)" xlink:href="#linear-gradient-7"/><linearGradient id="linear-gradient-11" x1="1747.44" y1="-473.47" x2="1747.44" y2="-485.82" gradientTransform="matrix(0.57, 0.82, -0.82, 0.57, -1314.21, -1098.59)" xlink:href="#linear-gradient-7"/></defs><ellipse class="cls-5" cx="49.68" cy="50.21" rx="45.34" ry="44.96"/><path class="cls-6" d="M99.64,48.16l0-.71a50.22,50.22,0,0,0-.75-6.26c0-.26-.09-.51-.15-.76A49.64,49.64,0,0,0,97,34.24c-.1-.29-.2-.58-.31-.86-.3-.84-.63-1.67-1-2.49-.52-1.22-1.08-2.4-1.69-3.56-.18-.35-.37-.7-.56-1a49.93,49.93,0,0,0-3.8-5.84c-.33-.44-.67-.87-1-1.3a51.43,51.43,0,0,0-3.65-4c-.52-.51-1-1-1.57-1.49a50.2,50.2,0,0,0-69.12,1.49l-.47.47c-.46.47-.9.94-1.34,1.42A49.39,49.39,0,0,0,8,22.75q-.37.55-.72,1.11a49.48,49.48,0,0,0-3.24,6l-.39.89-.06.14a50.35,50.35,0,0,0-2.13,6c-.07.25-.13.5-.2.76A49.39,49.39,0,0,0,.07,44c0,.23,0,.45-.08.68a51.37,51.37,0,0,0-.31,5.56c0,.26,0,.51,0,.77s0,.44,0,.66A49.16,49.16,0,0,0,.29,58c0,.23.07.46.11.69a48,48,0,0,0,1.52,6.26c.08.27.16.53.25.79.43,1.29.91,2.57,1.45,3.84.33.77.68,1.54,1,2.29.16.32.31.64.48,1a48.39,48.39,0,0,0,3.6,5.94c.28.4.58.79.87,1.19a51.26,51.26,0,0,0,4.72,5.4l.25.24c.54.53,1.09,1,1.65,1.54A50.19,50.19,0,0,0,81,88.91,51,51,0,0,0,85,85.31c.59-.59,1.16-1.19,1.72-1.79s.83-.93,1.23-1.41a48.36,48.36,0,0,0,4.2-5.75c.23-.36.46-.73.68-1.11a50.91,50.91,0,0,0,2.89-5.71c0-.09.07-.19.11-.28.13-.3.25-.6.38-.91a51.21,51.21,0,0,0,2-6.15l.18-.79a46.69,46.69,0,0,0,1-6.24c0-.24,0-.48.06-.72.12-1.4.18-2.82.18-4.24C99.68,49.53,99.67,48.84,99.64,48.16Zm-4.9,7.14a43.5,43.5,0,0,1-1.1,6c-.09.35-.18.71-.28,1.06a45,45,0,0,1-2.11,5.87c-.18.4-.36.8-.55,1.2a46.22,46.22,0,0,1-3.25,5.69c-.32.49-.66,1-1,1.43a45.06,45.06,0,0,1-4.64,5.41c-.61.61-1.24,1.2-1.88,1.77a45.65,45.65,0,0,1-55.86,3.6c-.91-.62-1.8-1.27-2.66-2a45.23,45.23,0,0,1-5.61-5.28c-.45-.5-.89-1-1.31-1.53a44.85,44.85,0,0,1-3.94-5.61c-.24-.42-.48-.83-.71-1.26a44.75,44.75,0,0,1-2.68-5.84l-.39-1.07a42.79,42.79,0,0,1-1.6-6c-.07-.32-.12-.64-.18-1a44.75,44.75,0,0,1-.62-6.06c0-.31,0-.61,0-.92s0-.43,0-.64a44.23,44.23,0,0,1,.33-5.43l.12-.94a44.09,44.09,0,0,1,1.3-6c.1-.34.2-.69.31-1A44.26,44.26,0,0,1,8.73,30.9c.19-.4.39-.8.59-1.19A45.27,45.27,0,0,1,12.83,24c.35-.49.71-1,1.08-1.43a45,45,0,0,1,5-5.4c.68-.62,1.37-1.22,2.09-1.8A45.53,45.53,0,0,1,82.29,19q.78.81,1.53,1.65A44.69,44.69,0,0,1,88,26.13c.29.44.56.89.83,1.34a44.8,44.8,0,0,1,2.87,5.76c.16.38.31.77.45,1.15a43.54,43.54,0,0,1,1.79,5.92c.08.34.15.68.22,1a43.94,43.94,0,0,1,.79,6c0,.32,0,.65.06,1,0,.64,0,1.28,0,1.92,0,1.39-.06,2.76-.19,4.11C94.81,54.65,94.78,55,94.74,55.3Z"/><path class="cls-7" d="M46.64,65.82A13.56,13.56,0,0,1,41.22,61,27.15,27.15,0,1,0,80.3,28.16c-6.1-3.52-10.08-5.71-9.8-14.33-3.35,3.53-4.15,5.3-4.09,6.89.22,5.38.22,7.12-3.33,3-3.75-4.34-5.61-7.91-11.52-6.68,6.3,2.2,6,5.72,5.68,9.14Q55.8,30,53.1,25.85,48.65,19.07,41.67,21c-4.12.68-4.22-2.4-6.47-5.67-.54,3-.78,7.24,5.42,9.13Q51.15,29,42.78,29.64c-5-.34-5.67-3.91-6.93-7.2-.7,4.94-.94,10.26,4.3,12.46Q35,37,31.43,31.22C27.3,26,25.31,21.33,20.78,22.66,26.28,24.54,27.11,30.1,28,34q3,9.4,12.36,9.57Q34,43.43,32,46.61c4.11-.63,7-.25,8.69,1.13s4.87,4.45-.42,2.84c-3.86-2-7.5-2.34-10.92-1,6.42,2,16.23,10,17.89,12.9C48.06,64.19,47.84,65.31,46.64,65.82Z"/><path class="cls-8" d="M46.36,65.7a13.87,13.87,0,0,1-5.14-5.28A27.54,27.54,0,1,0,83.07,29.94c-5.92-4-13.42-7.34-12.52-16-3.65,3.33-2.84,6.42-2.52,8q2.89,9-2,2.34c-3.49-4.67-8.48-7.92-14.54-7.09q9.31,4,8.45,9.17-1.71,3.72-4.15-.65-4-7.18-11.21-5.72-6.31.6-9.37-4.61-1.14,4.51,8.06,8,10.32,5.36,1.82,5.4-7.59-1.07-9.16-6.2Q34.29,30,42,33.91q-5.37,1.8-8.55-4.34-5.72-8.41-12.72-6.89,8.15,3.45,9,9.41c1.56,6.49,4.73,8.74,11,9.3C36.53,41,34.43,43.14,33,45.2q6.3-.53,8.7,1.76c1.47,1.39,4.61,4.85-.61,2.85q-5.66-3.45-11-1.82c6.34,2.5,15.69,11.27,17.16,14.35C47.91,64.14,47.62,65.26,46.36,65.7Z"/><path class="cls-9" d="M11.09,66.57c-.95-1.29-1.15-3.5-1.29-5.16-.39,4.18-1.08,9.19,1.51,12.91A17.76,17.76,0,0,0,36.46,79a18.58,18.58,0,0,0,4.67-25.8c-5.37-7.9-20-8.65-23.6-10a6.86,6.86,0,0,1-3.43-6.92c-1.86,2.85-2.32,6.51.28,9.4q-3.81-.19-4.31-4.81C9,36.36,7.82,33.49,4.63,33a8.51,8.51,0,0,1,2.49,8.49Q6.22,48.16,12,51c-2.59-1.28-2.9-1.94-4.31-1,2.72.8,2.71,2.37,3.34,3.71s1.71,4.17-1.08,1.64C8.1,53,7.77,51.26,5.28,51.07c3.38,3.12,5.29,11.35,5.47,13.64C10.72,66,12,66.61,11.09,66.57Z"/><path class="cls-10" d="M11.89,65.87a9.37,9.37,0,0,1-2.18-4.45A18.54,18.54,0,1,0,42.9,50.75c-5.8-7.6-20.47-7.57-24.11-8.74-3.09-1.52-4.61-3.49-4.56-5.89q-2.58,4.41,1.54,8.53-3.81,0-4.56-4.57Q9.32,33.49,4.51,33q4.5,3.91,3.8,7.91c-.37,4.47,1.42,7.55,5.34,9.24q-4-1.71-6-.19c2.76.66,4.5,1.64,5.2,2.95s1.94,4.07-1,1.69a8.85,8.85,0,0,0-6.64-3.47c3.54,2.94,7.68,10.51,8,12.78C13.21,65.2,12.79,65.86,11.89,65.87Z"/><circle class="cls-11" cx="30.14" cy="63.67" r="13.67"/><g class="cls-12"><g class="cls-12"><g class="cls-13"><path class="cls-14" d="M31.56,63.62l0,0h0c-.13.79-.45,2.64-1,5.15.82-.25,1.64-.52,2.46-.82-.8-2.56-1.41-4.29-1.41-4.31m4.73,4.57-1,.45c.17.67.31,1.32.41,1.92-.58.25-1.17.48-1.76.7q-.22-.89-.51-1.89c-1.26.47-2.55.87-3.81,1.22Q29.31,69.82,29,69c.84-3.64,1.22-5.3,1.52-7.23.67-.24,1.34-.5,2-.78a47.1,47.1,0,0,1,2,5.13c.12.36.23.71.33,1.06l1-.46c.15.51.27,1,.38,1.47m5-.8a20.76,20.76,0,0,1-4,2.43l-.61.28c-.08-1.13-.14-1.95,1-4.19,2.87-5.62-.28-5.69-.93-5s-.23,1.43.06,2.17c-.36.19-.73.38-1.12.56l-.56.27c-1.63-4.71,2-5.42,3.16-4.86a4.1,4.1,0,0,1,2,3.38c.05,1.92-1.27,3.36-1.74,5.1a18.62,18.62,0,0,0,2.74-1.79,11.44,11.44,0,0,1,0,1.65m.6-4.68a7.52,7.52,0,0,0-11.1-5.35c-7,4.62-5.83,15.28,1.9,16.53,5.89,1,10.32-5.7,9.2-11.18m.42-.37a11.11,11.11,0,0,1-5.76,11.8c-7,2.81-14.4-4.15-10.7-12.63,4-9.24,13.63-7.08,16.13-.41.07.18.33,1.23.33,1.24m.16-.18a8.86,8.86,0,0,0-12.83-6.33c-6.68,4.49-8.2,16.83,1.64,19.11,7.41,1.71,12.46-6.84,11.19-12.78"/></g><path class="cls-15" d="M35.91,66.72l-1,.46c-.1-.35-.21-.7-.33-1.06a47.1,47.1,0,0,0-2-5.13c-.65.28-1.32.54-2,.78-.27,1.65-.4,2.4-1.52,7.23q.29.82.57,1.59c1.26-.35,2.55-.75,3.81-1.22q.29,1,.51,1.89c.59-.22,1.18-.45,1.76-.7-.1-.6-.24-1.25-.41-1.92l1-.45C36.18,67.72,36.06,67.23,35.91,66.72ZM33,67.93c-.82.3-1.64.57-2.46.82.21-1,.7-3.19,1-5.15h0l0,0S32.17,65.37,33,67.93Z"/><path class="cls-16" d="M40.12,63.94c.75-2.66-1.15-6.23-4-4.74-2.15,1.33-1.33,3.7-1,4.71l.56-.27c.39-.18.76-.37,1.12-.56-.29-.74-.61-1.59-.06-2.17s3.8-.62.93,5c-1.15,2.24-1.09,3.06-1,4.19l.61-.28a20.76,20.76,0,0,0,4-2.43,11.44,11.44,0,0,0,0-1.65,18.62,18.62,0,0,1-2.74,1.79C38.9,66.26,39.76,65.21,40.12,63.94Z"/></g></g><circle class="cls-17" cx="70.5" cy="53.66" r="22.39"/><g class="cls-12"><g class="cls-12"><g class="cls-18"><path class="cls-19" d="M85,52.63c-.09-.37-1-3.56-3.26-2.23-2.34,1.6-.48,5.71,1,5.91,1.16.15,2.91-1.13,2.26-3.68M77.12,66.47q-1.4.5-2.79.93C73.51,65,72.51,62,71.39,58.54c-.1-.33-.21-.66-.31-1-1.29.4-2.58.77-3.84,1.09-.24-.77-.47-1.55-.69-2.32L67,56.2c1.39-.49,3.5-1.22,3-4,.84-.27,1.67-.55,2.5-.85.73,2,1.43,4.07,2.09,6.13,1.12,3.49,2,6.55,2.54,9M88,54.76c.9,7-4.18,10.68-6.75,9A3,3,0,0,1,80,62.11c.81-.35,1.61-.71,2.39-1.08l.42-.2v0c.71,1.76,2.39.43,2.92-1a7.09,7.09,0,0,0,.2-3.68,4.15,4.15,0,0,1-2.15,2.6c-5.13,2.34-7.1-4.76-5.9-8,1-2.72,5.88-6.46,8.9-.1a14.14,14.14,0,0,1,1.15,4m1.88-1c-.67-8.16-8.59-13.88-18.19-9.33-12,7.12-11.14,23.14,1.32,26C83,72.72,90.49,61.83,89.83,53.77m.84-.63a18.73,18.73,0,0,1-10.8,17.74C68.73,75,56.75,64.24,62.64,51.38c6.43-14,23.39-13.3,27.28-2a14.08,14.08,0,0,1,.75,3.72m.34-.3C90.13,42.3,80.1,37,70,41.65c-12.58,7.62-14.18,25.93.82,30C83.44,75.15,91.7,61.16,91,52.84"/></g><path class="cls-20" d="M70,52.19c.51,2.79-1.6,3.52-3,4l-.45.11c.22.77.45,1.55.69,2.32,1.26-.32,2.55-.69,3.84-1.09.1.34.21.67.31,1C72.51,62,73.51,65,74.33,67.4q1.4-.44,2.79-.93c-.57-2.45-1.42-5.51-2.54-9-.66-2.06-1.36-4.12-2.09-6.13C71.66,51.64,70.83,51.92,70,52.19Z"/><path class="cls-21" d="M80.2,48c-4.77,3.33-2.29,10.39.88,11.16a4.23,4.23,0,0,0,4.83-3l0,0c.68,5.78-2.39,5.56-2.67,5.36a1.54,1.54,0,0,1-.45-.7v0l-.42.2c-.78.37-1.58.73-2.39,1.08,1.72,4,6.06,1.49,7.42-2.18A11,11,0,0,0,88,54.76C87.94,54.65,86.42,44.38,80.2,48Zm4.25,3.28A6.07,6.07,0,0,1,85,52.63,3,3,0,0,1,83.85,56c-2.69,1.33-3.5-3.12-3.12-4.36S83.15,49,84.45,51.32Z"/></g></g></svg>