<svg id="Layer_1" data-name="Layer 1" xmlns="http://www.w3.org/2000/svg" xmlns:xlink="http://www.w3.org/1999/xlink" viewBox="0 0 100 100"><defs><style>.cls-1{fill:url(#linear-gradient);}.cls-2{fill:url(#linear-gradient-2);}.cls-3{fill:url(#linear-gradient-3);}.cls-4{fill:url(#linear-gradient-4);}.cls-5{fill:#523104;opacity:0.24;}.cls-6{fill:#f4df00;}.cls-7{opacity:0.61;fill:url(#linear-gradient-5);}.cls-8{fill:#fffa99;}</style><linearGradient id="linear-gradient" x1="0.23" y1="50.97" x2="100.15" y2="50.97" gradientUnits="userSpaceOnUse"><stop offset="0" stop-color="#db0000"/><stop offset="1" stop-color="#9f0f20"/></linearGradient><linearGradient id="linear-gradient-2" x1="19.57" y1="18.07" x2="80.75" y2="83.67" gradientUnits="userSpaceOnUse"><stop offset="0" stop-color="#e65825"/><stop offset="1" stop-color="#ce2608"/></linearGradient><linearGradient id="linear-gradient-3" x1="33.89" y1="92.86" x2="66.05" y2="9.09" xlink:href="#linear-gradient-2"/><linearGradient id="linear-gradient-4" x1="58.97" y1="62.37" x2="58.97" y2="95.77" gradientUnits="userSpaceOnUse"><stop offset="0" stop-color="#ffa703"/><stop offset="1" stop-color="#ff8000"/></linearGradient><linearGradient id="linear-gradient-5" x1="56.55" y1="56.28" x2="14.46" y2="15.63" gradientUnits="userSpaceOnUse"><stop offset="0" stop-color="#fff" stop-opacity="0.4"/><stop offset="0.05" stop-color="#fff" stop-opacity="0.36"/><stop offset="0.22" stop-color="#fff" stop-opacity="0.23"/><stop offset="0.4" stop-color="#fff" stop-opacity="0.13"/><stop offset="0.59" stop-color="#fff" stop-opacity="0.06"/><stop offset="0.78" stop-color="#fff" stop-opacity="0.01"/><stop offset="1" stop-color="#fff" stop-opacity="0"/></linearGradient></defs><circle class="cls-1" cx="50.19" cy="50.97" r="49.96"/><circle class="cls-2" cx="50.16" cy="50.87" r="44.85"/><circle class="cls-3" cx="49.97" cy="50.97" r="44.85"/><rect class="cls-4" x="22.25" y="62.37" width="73.45" height="33.41" rx="15.6"/><path class="cls-5" d="M51.61,19.68,56.93,36a.62.62,0,0,0,.59.43H74.7a.62.62,0,0,1,.36,1.13L61.17,47.7a.63.63,0,0,0-.22.7l5.29,16.33a.63.63,0,0,1-1,.7L51.38,55.35a.62.62,0,0,0-.73,0L36.75,65.43a.63.63,0,0,1-1-.7L41.08,48.4a.61.61,0,0,0-.22-.7L27,37.59a.62.62,0,0,1,.37-1.13H44.51A.62.62,0,0,0,45.1,36l5.32-16.35A.63.63,0,0,1,51.61,19.68Z"/><path class="cls-6" d="M50.75,18.4l5.32,16.34a.61.61,0,0,0,.59.43H73.84a.63.63,0,0,1,.37,1.13L60.32,46.42a.62.62,0,0,0-.23.69l5.3,16.33a.62.62,0,0,1-1,.7L50.53,54.06a.63.63,0,0,0-.74,0L35.89,64.14a.62.62,0,0,1-1-.7l5.3-16.33a.62.62,0,0,0-.23-.69L26.11,36.3a.62.62,0,0,1,.37-1.13H43.65a.63.63,0,0,0,.6-.43L49.56,18.4A.62.62,0,0,1,50.75,18.4Z"/><path class="cls-7" d="M90.29,21.34C80.75,27.08,69.6,34,58.67,41.39,39.89,54,20.94,70.47,10.28,80.14A48.87,48.87,0,0,1,.15,50.29,49.88,49.88,0,0,1,90.29,21.34Z"/><path class="cls-8" d="M53.39,77.11H51.56L51,74.93l-1.86,2.16H47.37l3-3.4-1-3.37h1.83l.53,2,1.76-2h1.75l-2.93,3.29Z"/><path class="cls-8" d="M60.71,73.75a5.17,5.17,0,0,1-1.57,2.58,3.66,3.66,0,0,1-2.51.93,2,2,0,0,1-2-1,3.39,3.39,0,0,1-.06-2.58,5.33,5.33,0,0,1,1.56-2.57,3.65,3.65,0,0,1,2.51-.94,2.06,2.06,0,0,1,2,1A3.36,3.36,0,0,1,60.71,73.75Zm-1.63,0a4.65,4.65,0,0,0,.18-1,1.77,1.77,0,0,0-.11-.7.76.76,0,0,0-.34-.4,1,1,0,0,0-.5-.12,1.36,1.36,0,0,0-.56.11,1.81,1.81,0,0,0-.57.39,3.44,3.44,0,0,0-.52.7,5.35,5.35,0,0,0-.42,1,4.45,4.45,0,0,0-.19,1,1.78,1.78,0,0,0,.12.69.76.76,0,0,0,.34.4A1,1,0,0,0,57,76a1.61,1.61,0,0,0,.58-.13,2,2,0,0,0,.56-.4,3.29,3.29,0,0,0,.52-.69A5,5,0,0,0,59.08,73.74Zm1.54-4.06H59.53l-.48-.78-.91.78H57.06l1.71-1.5h1Zm1.84-1.16a1,1,0,0,1-.3.49,1.4,1.4,0,0,1-.48.26l-.08.27h-.75L61,69a.88.88,0,0,0,.35-.17.49.49,0,0,0,.18-.28.18.18,0,0,0,0-.18.27.27,0,0,0-.2-.07l-.21,0-.2.06h0l.15-.52.26,0a2.07,2.07,0,0,1,.35,0,.91.91,0,0,1,.71.22A.49.49,0,0,1,62.46,68.52Z"/><path class="cls-8" d="M65.1,77.29a4.77,4.77,0,0,1-1.23-.16,4.59,4.59,0,0,1-.9-.38l.46-1.61h.15a2.23,2.23,0,0,0,.85.67,2.37,2.37,0,0,0,1,.24l.36,0a1.23,1.23,0,0,0,.39-.1,1.2,1.2,0,0,0,.34-.21.81.81,0,0,0,.22-.37.43.43,0,0,0-.06-.42.9.9,0,0,0-.38-.23l-.64-.18a3.75,3.75,0,0,1-.62-.2,1.45,1.45,0,0,1-.83-.75,1.9,1.9,0,0,1,0-1.18,2.68,2.68,0,0,1,1.2-1.53,3.62,3.62,0,0,1,2-.58,4.32,4.32,0,0,1,1.08.13,3.66,3.66,0,0,1,.9.33L69,72.28H68.9a2.07,2.07,0,0,0-.7-.55,2.1,2.1,0,0,0-1-.23,2.17,2.17,0,0,0-.38,0,1.72,1.72,0,0,0-.39.12,1,1,0,0,0-.31.22.64.64,0,0,0-.2.32.41.41,0,0,0,0,.41,1.18,1.18,0,0,0,.58.28l.57.15a4.74,4.74,0,0,1,.56.2,1.5,1.5,0,0,1,.78.69,1.64,1.64,0,0,1,0,1.14,2.91,2.91,0,0,1-1.21,1.62A3.79,3.79,0,0,1,65.1,77.29Z"/><path class="cls-8" d="M75.38,73.82a5.16,5.16,0,0,1-1.56,2.58,3.66,3.66,0,0,1-2.51.93,2,2,0,0,1-2-1,3.3,3.3,0,0,1-.06-2.58,5.14,5.14,0,0,1,1.56-2.57,3.65,3.65,0,0,1,2.51-.94,2.07,2.07,0,0,1,2,1A3.32,3.32,0,0,1,75.38,73.82Zm-1.63,0a4.21,4.21,0,0,0,.19-1,1.74,1.74,0,0,0-.11-.7.8.8,0,0,0-.34-.4,1.06,1.06,0,0,0-.5-.12,1.35,1.35,0,0,0-.56.1,2.06,2.06,0,0,0-.57.4,3.44,3.44,0,0,0-.52.7,4.79,4.79,0,0,0-.42,1,4,4,0,0,0-.19,1,2,2,0,0,0,.11.69.77.77,0,0,0,.35.4,1.15,1.15,0,0,0,.49.13,1.56,1.56,0,0,0,.58-.13,1.91,1.91,0,0,0,.57-.4,3.67,3.67,0,0,0,.52-.69A5.28,5.28,0,0,0,73.75,73.81Zm1.57-4.14H74.23l-.42-1-1,1H71.76l1.79-1.78h1Zm2-1.78-1.23,1.2H75.4l.88-1.21Z"/><path class="cls-8" d="M36.12,88.22H34.55l1.3-4.49-2,2.89H32.79l-.31-2.9-1.3,4.49H29.69l2-6.77h1.82l.42,3.35,2.37-3.34h1.82Z"/><path class="cls-8" d="M40.56,88.24H37.17l.34-1.18h.9l1.28-4.41h-.9l.34-1.19,3.39,0-.34,1.18h-.91L40,87.06h.91Z"/><path class="cls-8" d="M41.6,88.25l2-6.78,4.25,0-.37,1.3-2.68,0L44.42,84h2.47l-.37,1.3-2.47,0L43.55,87l2.68,0-.37,1.29Zm2.81-8.11H43.7l-.53-1.22h1.07Zm3.31.59H46.63l-.42-1-1,1H44.16L46,78.93h1Z"/><path class="cls-8" d="M52.32,88.3H50.8l-1.06-4.73-1.37,4.72H46.93l2-6.77h1.94l.88,3.89,1.13-3.88h1.45Z"/><path class="cls-8" d="M57.34,88.32l1.59-5.48H57.07l.38-1.29,5.29,0-.37,1.3H60.51l-1.59,5.48Z"/><path class="cls-8" d="M67.24,88.37H65.32l-1-2.49h-.57L63,88.35H61.43l2-6.77h2.54a5.64,5.64,0,0,1,.89.07,1.42,1.42,0,0,1,.63.3,1.22,1.22,0,0,1,.37.59,1.75,1.75,0,0,1-.07.91,3,3,0,0,1-.69,1.26,3.58,3.58,0,0,1-1.1.77Zm-1.17-4.71a.86.86,0,0,0,0-.44.42.42,0,0,0-.22-.29,1.07,1.07,0,0,0-.3-.09l-.45,0H64.6l-.53,1.83h.46a3.18,3.18,0,0,0,.57,0,1.14,1.14,0,0,0,.44-.18,1.35,1.35,0,0,0,.32-.31A1.8,1.8,0,0,0,66.07,83.66Z"/><path class="cls-8" d="M70.21,88.52a2.07,2.07,0,0,1-1.76-.66,2.23,2.23,0,0,1-.12-1.94l1.26-4.32h1.58l-1.23,4.23a1.62,1.62,0,0,0-.06,1c.1.23.34.35.71.35a1.2,1.2,0,0,0,.89-.33,2.25,2.25,0,0,0,.57-1.06l1.23-4.23h1.58L73.6,85.94a3.58,3.58,0,0,1-1.22,1.92A3.36,3.36,0,0,1,70.21,88.52Z"/><path class="cls-8" d="M79.49,88.43H78l-1-4.73-1.37,4.72H74.1l2-6.77H78l.88,3.89L80,81.65h1.44Z"/><path class="cls-8" d="M86.14,88.07a9.1,9.1,0,0,1-1.18.35,6.08,6.08,0,0,1-1.35.17,2.37,2.37,0,0,1-2.1-.93A3.1,3.1,0,0,1,81.39,85,5.07,5.07,0,0,1,83,82.49a4.08,4.08,0,0,1,2.69-.95,3.69,3.69,0,0,1,1.24.17,5.64,5.64,0,0,1,.89.44l-.46,1.59h-.14L87,83.47a2.24,2.24,0,0,0-.33-.3,2.15,2.15,0,0,0-.48-.26,1.72,1.72,0,0,0-.62-.1,2.28,2.28,0,0,0-.78.13,2.42,2.42,0,0,0-.72.42,2.92,2.92,0,0,0-.6.69A3.59,3.59,0,0,0,83,85a2.09,2.09,0,0,0,0,1.75,1.52,1.52,0,0,0,1.35.57h.4L85.21,86H84l.37-1.27,2.75,0Z"/></svg>