<svg width="16" height="16" viewBox="0 0 16 16" fill="none" xmlns="http://www.w3.org/2000/svg">
    <g clip-path="url(#a)">
        <path fill-rule="evenodd" clip-rule="evenodd" d="M4.267 2.077C4.267 1.482 4.744 1 5.333 1c.59 0 1.067.482 1.067 1.077V4.23c0 .595-.478 1.077-1.067 1.077S4.267 4.826 4.267 4.23h-3.2C.477 4.23 0 3.749 0 3.154s.478-1.077 1.067-1.077h3.2zM12.8 6.923h2.133C15.523 6.923 16 7.405 16 8s-.478 1.077-1.067 1.077H12.8c0 .595-.478 1.077-1.067 1.077s-1.066-.482-1.066-1.077V6.923c0-.595.477-1.077 1.066-1.077.59 0 1.067.482 1.067 1.077zm2.133-4.846H8c-.59 0-1.067.482-1.067 1.077S7.411 4.23 8 4.23h6.933c.59 0 1.067-.482 1.067-1.077s-.478-1.077-1.067-1.077zM1.067 6.923h8c.589 0 1.066.482 1.066 1.077s-.477 1.077-1.066 1.077h-8C.477 9.077 0 8.595 0 8s.478-1.077 1.067-1.077zm13.866 4.846h-4.266c-.59 0-1.067.482-1.067 1.077s.478 1.077 1.067 1.077h4.266c.59 0 1.067-.482 1.067-1.077s-.478-1.077-1.067-1.077zm-8 0c0-.595.478-1.077 1.067-1.077.59 0 1.067.482 1.067 1.077v2.154C9.067 14.518 8.589 15 8 15c-.59 0-1.067-.482-1.067-1.077H1.067c-.59 0-1.067-.482-1.067-1.077s.478-1.077 1.067-1.077h5.866z" fill="#222939"/>
    </g>
    <defs>
        <clipPath id="a">
            <path fill="#fff" d="M0 0h16v16H0z"/>
        </clipPath>
    </defs>
</svg>