<svg width="32" height="32" viewBox="0 0 32 32" fill="none" xmlns="http://www.w3.org/2000/svg">
    <path fill-rule="evenodd" clip-rule="evenodd" d="M23.956 0H8.019C3.603 0 0 3.606 0 8.025V24c0 4.394 3.603 8 8.019 8h15.962C28.396 32 32 28.394 32 23.975V8.025C31.975 3.606 28.371 0 23.956 0zm-.31 14.12c.164 0 .328-.01.492-.021V10.77A5.343 5.343 0 0 1 19.213 6h-2.867l-.033 13.986c0 1.707-1.51 3.065-3.228 3.065a3.106 3.106 0 0 1-3.108-3.108 3.106 3.106 0 0 1 3.108-3.109c.082 0 .169.01.254.02.04.005.08.01.118.013V13.87c-.12-.011-.24-.022-.372-.022a6.086 6.086 0 0 0 0 12.17 6.086 6.086 0 0 0 6.085-6.085v-8.23a5.342 5.342 0 0 0 4.476 2.418z" fill="#000"/>
</svg>