<?xml version="1.0" encoding="UTF-8"?>
<!-- Generator: Adobe Illustrator 25.4.1, SVG Export Plug-In . SVG Version: 6.00 Build 0)  -->
<svg version="1.1" id="圖層_1" xmlns="http://www.w3.org/2000/svg" xmlns:xlink="http://www.w3.org/1999/xlink" x="0px" y="0px" viewBox="0 0 850.3 192" style="enable-background:new 0 0 850.3 192;" xml:space="preserve">
<style type="text/css">
	.st0{fill:#FFFFFF;}
	.st1{fill:#222939;}
	.st2{fill:#C9334E;}
	.st3{enable-background:new    ;}
	.st4{fill:#A07333;}
	.st5{fill:#CAAB72;}
	.st6{opacity:0.5;fill:#A07333;enable-background:new    ;}
	.st7{fill:url(#SVGID_1_);}
	.st8{fill:#7A1D10;}
	.st9{fill:url(#SVGID_00000164483470090574537940000008789524778387100829_);}
	.st10{fill:#D92147;}
	.st11{fill:#8C002C;}
	.st12{fill:#FF2753;}
	.st13{fill:#AB1A38;}
	.st14{fill:#C41E40;}
	.st15{fill:#F59322;}
	.st16{fill:#C31E40;}
	.st17{fill:#FFC200;}
	.st18{fill:#F7B600;}
	.st19{fill:#F79C00;}
	.st20{fill:#FBDD00;}
	.st21{fill:#FFF940;}
	.st22{fill:#FF6991;}
	.st23{opacity:0.4;fill:url(#SVGID_00000087394239087500092530000010079757733484227481_);enable-background:new    ;}
</style>
<g>
	<g id="圖層_1_00000152986680347456275770000012131438452999171991_">
		<path class="st0" d="M845,32.6c-3.4-3.9-8.4-6.1-13.6-6H159.6C123.7-9,65.7-8.8,30.1,27.1C8.9,48.4-0.4,78.8,5.1,108.3    c-1.1,1.1-2,2.3-2.7,3.7c-3.3,5.8-3.1,13,0.6,18.6c0.2,0.4,0.5,0.7,0.7,1.1c-0.7,4.4,0.3,8.8,2.7,12.5    c31.9,48.8,97.3,62.4,146.1,30.5c4.3-2.8,8.4-5.9,12.2-9.3h446.9c6.6-0.1,12.1-5,13.1-11.5l5.4-37.9c0.2-1.5,0.1-3.1-0.3-4.6    h190.8c10.7,0,20.7-8.7,22.2-19.4l6.3-45C849.9,41.9,848.4,36.6,845,32.6z"/>
		<path class="st1" d="M838.8,91.5l6.3-45c1.2-8.8-4.9-16-13.8-16h-750v77h739.2C829.4,107.5,837.6,100.4,838.8,91.5z"/>
		<path class="st2" d="M611.5,161.5H115.8c-3.7,0.1-6.9-2.8-7-6.6c0-0.5,0-0.9,0.1-1.4l5.3-37.9c0.7-4.5,4.6-7.9,9.1-8h495.7    c3.8-0.1,6.9,2.9,7,6.6c0,0.5,0,0.9-0.1,1.4l-5.3,37.9C619.9,158,616.1,161.4,611.5,161.5z"/>
		<g class="st3">
			<path class="st0" d="M215,135.6c-0.4,2.6-1.2,5-2.6,7.1c-1.4,2.1-3,3.8-5,5c-1.6,1-3.1,1.6-4.7,1.9s-3.5,0.4-5.8,0.4h-6.6l2-14.3     h-3.2l0.4-2.8h3.2l1.7-11.7h6.6c2.7,0,4.8,0.2,6.3,0.6c1.5,0.4,2.7,1,3.7,1.7c1.7,1.2,2.9,2.9,3.6,4.9     C215.3,130.4,215.4,132.8,215,135.6z M211,135.5c0.3-2.2,0.2-4.1-0.3-5.7c-0.5-1.6-1.4-2.8-2.7-3.7c-0.9-0.6-2-1.1-3.1-1.3     c-1.1-0.3-2.5-0.4-4.3-0.4h-2.9l-1.2,8.4h6.3l-0.4,2.8h-6.3l-1.6,11h2.9c1.7,0,3.2-0.1,4.5-0.4c1.3-0.3,2.6-0.8,3.7-1.5     c1.5-0.9,2.6-2.1,3.5-3.6C210.1,139.7,210.7,137.8,211,135.5z"/>
			<path class="st0" d="M241.1,124.5c0.9,1.3,1.5,2.8,1.9,4.7c0.3,1.9,0.3,4,0,6.4c-0.3,2.3-0.9,4.4-1.8,6.3     c-0.9,1.9-1.9,3.5-3.2,4.7c-1.4,1.3-2.9,2.3-4.5,3c-1.7,0.6-3.4,1-5.3,1c-1.9,0-3.7-0.3-5.1-1c-1.5-0.7-2.7-1.6-3.6-2.9     c-0.9-1.3-1.6-2.8-1.9-4.7c-0.3-1.9-0.3-4,0-6.3c0.3-2.4,0.9-4.5,1.8-6.4c0.9-1.8,1.9-3.4,3.2-4.7c1.3-1.3,2.8-2.2,4.4-2.9     c1.7-0.7,3.5-1,5.4-1c2,0,3.7,0.3,5.2,1C239,122.3,240.2,123.2,241.1,124.5z M239,135.6c0.3-1.9,0.3-3.6,0.1-5.1     c-0.2-1.5-0.6-2.7-1.2-3.7c-0.6-1-1.4-1.7-2.4-2.2c-1-0.5-2.2-0.7-3.5-0.7c-1.4,0-2.6,0.2-3.7,0.7c-1.1,0.5-2.1,1.2-3.1,2.3     c-0.9,1-1.7,2.2-2.3,3.7c-0.6,1.5-1.1,3.2-1.3,5c-0.5,3.8-0.2,6.7,1.2,8.7c1.3,2,3.3,3,6,3s4.9-1,6.8-3     C237.3,142.2,238.5,139.4,239,135.6z M229,157.3h-4.1l0.5-3.8h4.1L229,157.3z M239.2,117.7h-3.1l-2.9-5l-4.3,5h-3l5.4-7.3h4.4     L239.2,117.7z"/>
			<path class="st0" d="M256.3,150.5c-1.9,0-3.6-0.3-5.1-0.9s-2.7-1.6-3.7-2.8c-1-1.2-1.6-2.8-2-4.7s-0.4-4,0-6.4     c0.3-2.4,0.9-4.5,1.8-6.3c0.9-1.8,2-3.4,3.3-4.7c1.3-1.3,2.8-2.3,4.5-2.9c1.7-0.7,3.5-1,5.4-1c1,0,1.9,0.1,2.7,0.2     c0.8,0.1,1.6,0.3,2.3,0.5c0.6,0.2,1.2,0.4,1.8,0.7c0.6,0.3,1.2,0.6,1.8,1l-0.7,4.6h-0.3c-0.3-0.3-0.7-0.7-1.1-1.1     c-0.5-0.4-1-0.9-1.8-1.3c-0.7-0.4-1.4-0.7-2.3-1c-0.8-0.3-1.8-0.4-2.9-0.4c-1.2,0-2.4,0.3-3.6,0.8c-1.2,0.5-2.2,1.2-3.2,2.2     c-1,1-1.8,2.2-2.4,3.7c-0.7,1.5-1.1,3.2-1.4,5c-0.3,2-0.3,3.7,0,5.1c0.3,1.4,0.8,2.6,1.4,3.6c0.7,1,1.5,1.7,2.5,2.2     s2.1,0.7,3.3,0.7c1.1,0,2.2-0.1,3.1-0.4c1-0.3,1.9-0.6,2.7-1c0.8-0.4,1.4-0.8,2-1.2c0.6-0.4,1-0.8,1.4-1.1h0.3l-0.6,4.6     c-0.7,0.3-1.3,0.6-1.9,0.9c-0.6,0.3-1.3,0.5-2.2,0.8c-0.9,0.3-1.7,0.5-2.4,0.6C258.4,150.4,257.5,150.5,256.3,150.5z"/>
			<path class="st0" d="M304.2,157c-0.7,0.2-1.5,0.3-2.3,0.4c-0.8,0.1-1.6,0.1-2.3,0.1c-2.2,0-3.8-0.6-5-1.8     c-1.2-1.2-1.7-2.9-1.5-5.2c-0.2,0-0.3,0-0.5,0s-0.3,0-0.4,0c-1.9,0-3.7-0.3-5.1-1c-1.5-0.7-2.7-1.6-3.6-2.9     c-0.9-1.3-1.6-2.8-1.9-4.7c-0.3-1.9-0.3-4,0-6.3c0.3-2.4,0.9-4.5,1.8-6.4c0.9-1.8,1.9-3.4,3.2-4.7c1.3-1.3,2.8-2.2,4.4-2.9     c1.7-0.7,3.5-1,5.4-1c2,0,3.7,0.3,5.2,1c1.5,0.7,2.7,1.6,3.6,2.9c0.9,1.3,1.5,2.8,1.9,4.7c0.3,1.9,0.3,4,0,6.4     c-0.5,3.7-1.7,6.8-3.5,9.2c-1.8,2.4-4,4.1-6.7,4.9c0,0.7,0,1.4,0.1,1.9c0.1,0.6,0.3,1,0.5,1.4c0.3,0.4,0.7,0.7,1.1,0.9     c0.5,0.2,1.1,0.3,2,0.3c0.5,0,1.1-0.1,1.9-0.2c0.7-0.2,1.2-0.3,1.6-0.4h0.5L304.2,157z M303.2,135.6c0.3-1.9,0.3-3.6,0.1-5.1     c-0.2-1.5-0.6-2.7-1.2-3.7c-0.6-1-1.4-1.7-2.4-2.2c-1-0.5-2.2-0.7-3.5-0.7c-1.4,0-2.6,0.2-3.7,0.7c-1.1,0.5-2.1,1.2-3.1,2.3     c-0.9,1-1.7,2.2-2.3,3.7c-0.6,1.5-1.1,3.2-1.3,5c-0.5,3.8-0.2,6.7,1.2,8.7c1.3,2,3.3,3,6,3s4.9-1,6.8-3     C301.5,142.2,302.7,139.4,303.2,135.6z"/>
			<path class="st0" d="M319.3,150.6c-1.7,0-3.1-0.2-4.3-0.7c-1.2-0.4-2.2-1.1-2.9-2c-0.9-1-1.4-2.2-1.6-3.6     c-0.2-1.4-0.2-3.1,0.1-5.2l2.5-18h3.8l-2.5,18c-0.2,1.3-0.3,2.4-0.2,3.4c0,0.9,0.3,1.7,0.6,2.4c0.4,0.8,1,1.4,1.8,1.8     c0.8,0.4,1.9,0.6,3.2,0.6c1.2,0,2.3-0.2,3.3-0.6c1-0.4,1.8-1,2.4-1.8c0.6-0.7,1-1.5,1.3-2.4c0.3-0.9,0.5-2,0.7-3.3l2.6-18.1h3.8     l-2.5,18c-0.3,2-0.7,3.7-1.3,5.1c-0.6,1.4-1.5,2.6-2.7,3.6c-1,0.9-2.2,1.6-3.5,2C322.6,150.3,321.1,150.6,319.3,150.6z"/>
			<path class="st0" d="M359.5,121.2l-12,16l-1.8,12.7h-3.8l1.7-12.3l-7.4-16.5h4.3l5.6,12.7l9.3-12.7H359.5z"/>
			<path class="st0" d="M358.1,150l4.1-28.8h18l-0.5,3.4h-14.2l-1.1,7.9h13.2l-0.5,3.4H364l-1.5,10.7h14.2l-0.5,3.4H358.1z      M366.2,115.5h-2.5l-3.5-5.1h4.3L366.2,115.5z M378.4,117.7h-3.1l-2.9-5l-4.3,5h-3l5.4-7.3h4.4L378.4,117.7z"/>
			<path class="st0" d="M400.9,150h-4.3l-9.2-24.8l-3.5,24.8h-3.6l4.1-28.8h5.4l8.4,22.8l3.2-22.8h3.6L400.9,150z"/>
			<path class="st0" d="M425.9,150l3.6-25.4h-9.7l0.5-3.4h23.2l-0.5,3.4h-9.7l-3.6,25.4H425.9z"/>
			<path class="st0" d="M463.2,150h-3.8l2-14.1h-13.2l-2,14.1h-3.8l4.1-28.8h3.8l-1.6,11.3h13.2l1.6-11.3h3.8L463.2,150z"/>
			<path class="st0" d="M469,150l4.1-28.8h18l-0.5,3.4h-14.2l-1.1,7.9h13.2l-0.5,3.4h-13.2l-1.5,10.7h14.2L487,150H469z      M489.2,118.2h-3.1l-3-4l-4.1,4h-3l5.3-6.4h4.4L489.2,118.2z M495.7,113.2c-0.1,0.8-0.4,1.5-0.9,2c-0.5,0.5-1.2,0.9-2.1,1.2     l-0.2,1.3h-2.1l0.3-2.3c0.6-0.2,1.1-0.4,1.5-0.6s0.6-0.6,0.6-1.1c0-0.3,0-0.6-0.2-0.8c-0.2-0.2-0.5-0.4-1-0.4c-0.4,0-0.7,0-1,0.1     c-0.2,0.1-0.5,0.1-0.9,0.3h-0.1l0.3-2c0.3-0.1,0.6-0.2,1.1-0.2c0.5-0.1,1-0.1,1.5-0.1c1,0,1.9,0.3,2.4,0.8     S495.9,112.4,495.7,113.2z"/>
			<path class="st0" d="M510.3,150l3.6-25.4h-9.7l0.5-3.4h23.2l-0.5,3.4h-9.7l-3.6,25.4H510.3z"/>
			<path class="st0" d="M547.6,150h-3.8l2-14.1h-13.2l-2,14.1h-3.8l4.1-28.8h3.8l-1.6,11.3h13.2l1.6-11.3h3.8L547.6,150z"/>
			<path class="st0" d="M550.4,150l13.8-28.8h4.7l5.6,28.8h-4l-1.5-8h-11l-3.7,8H550.4z M568.4,138.6l-2.5-13.6l-6.3,13.6H568.4z"/>
			<path class="st0" d="M601.2,124.5c0.9,1.3,1.5,2.8,1.9,4.7c0.3,1.9,0.3,4,0,6.4c-0.3,2.3-0.9,4.4-1.8,6.3s-1.9,3.5-3.2,4.7     c-1.4,1.3-2.9,2.3-4.5,3s-3.4,1-5.3,1c-1.9,0-3.7-0.3-5.1-1c-1.5-0.7-2.7-1.6-3.6-2.9c-0.9-1.3-1.6-2.8-1.9-4.7     c-0.3-1.9-0.3-4,0-6.3c0.3-2.4,0.9-4.5,1.8-6.4c0.9-1.8,1.9-3.4,3.2-4.7c1.3-1.3,2.8-2.2,4.4-2.9c1.7-0.7,3.5-1,5.4-1     c2,0,3.7,0.3,5.2,1S600.3,123.2,601.2,124.5z M599.1,135.6c0.3-1.9,0.3-3.6,0.1-5.1c-0.2-1.5-0.6-2.7-1.2-3.7     c-0.6-1-1.4-1.7-2.4-2.2c-1-0.5-2.2-0.7-3.5-0.7c-1.4,0-2.6,0.2-3.7,0.7c-1.1,0.5-2.1,1.2-3.1,2.3c-0.9,1-1.7,2.2-2.3,3.7     c-0.6,1.5-1.1,3.2-1.3,5c-0.5,3.8-0.2,6.7,1.2,8.7s3.3,3,6,3s4.9-1,6.8-3C597.4,142.2,598.6,139.4,599.1,135.6z"/>
		</g>
		<g class="st3">
			<path class="st0" d="M204.2,94.3l4.6-32.6h-11.9L198,54h33.9l-1.1,7.7h-11.9l-4.6,32.6H204.2z"/>
			<path class="st0" d="M264.4,94.3h-10.1l2.5-17.9H243l-2.5,17.9h-10.1l5.7-40.3h10.1l-2.1,14.8h13.8L260,54h10.1L264.4,94.3z"/>
			<path class="st0" d="M288.9,95.1c-5.4,0-9.4-1.3-11.9-3.9c-2.5-2.6-3.5-6.4-2.7-11.5l3.6-25.7H288l-3.6,25.1     c-0.4,2.8-0.2,4.9,0.7,6.3s2.5,2.1,4.9,2.1c2.3,0,4.1-0.7,5.4-2c1.3-1.3,2.1-3.4,2.5-6.3l3.6-25.1h10.2c1.5,0,2.6-0.4,3.3-1.1     c0.7-0.7,1.2-1.7,1.3-3c0.1-0.7,0.1-1.4,0-2.1c-0.1-0.7-0.2-1.3-0.4-1.7l0.1-0.5h5.4c0.1,0.6,0.1,1.5,0.1,2.6     c0,1.1-0.1,2-0.2,2.6c-0.4,2.8-1.5,4.9-3.2,6.2c-1.8,1.4-4.1,2-7,2h-0.1L308,79.7c-0.7,5-2.7,8.8-5.9,11.4     C298.9,93.8,294.5,95.1,288.9,95.1z"/>
			<path class="st0" d="M356,74.1c-0.9,6.5-3.4,11.6-7.4,15.4c-4,3.7-9,5.6-15.1,5.6c-6.1,0-10.6-1.9-13.5-5.7     c-2.9-3.8-3.9-8.9-3-15.3c0.9-6.5,3.4-11.6,7.4-15.4c4-3.8,9-5.6,15.1-5.6c3.8,0,7,0.7,9.6,2.2c2.6,1.5,4.5,3.6,5.7,6.3h1.2     c1.5,0,2.6-0.4,3.3-1.1c0.7-0.7,1.2-1.7,1.3-3c0.1-0.7,0.1-1.4,0-2.1c-0.1-0.7-0.2-1.3-0.4-1.7l0.1-0.5h5.4     c0.1,0.6,0.1,1.5,0.1,2.6c0,1.1-0.1,2-0.2,2.6c-0.4,2.8-1.5,4.8-3.2,6.1c-1.7,1.3-3.8,2-6.2,2.1c0.2,1.1,0.2,2.3,0.2,3.6     C356.3,71.5,356.2,72.8,356,74.1z M345.5,74.1c0.3-2.4,0.4-4.4,0.1-6.1c-0.3-1.7-0.7-3.1-1.4-4.2c-0.7-1.1-1.6-1.9-2.6-2.4     c-1-0.5-2.1-0.7-3.3-0.7c-1.2,0-2.4,0.2-3.5,0.7c-1.1,0.4-2.2,1.2-3.3,2.4c-1,1-1.8,2.4-2.6,4.2c-0.8,1.7-1.3,3.8-1.6,6.2     c-0.3,2.5-0.4,4.5-0.1,6.2c0.3,1.6,0.7,3,1.4,4.1c0.7,1.1,1.6,1.9,2.6,2.4c1,0.5,2.1,0.7,3.3,0.7c1.2,0,2.4-0.3,3.6-0.8     c1.2-0.5,2.3-1.3,3.2-2.4c1-1.2,1.9-2.5,2.6-4.1C344.6,78.7,345.2,76.6,345.5,74.1z M346.5,43c-0.2,1.3-0.7,2.3-1.4,3     c-0.8,0.7-1.7,1.2-2.8,1.5l-0.2,1.6h-4.8l0.4-3c0.9-0.2,1.6-0.5,2.1-1c0.5-0.4,0.8-1,0.9-1.7c0.1-0.4-0.1-0.8-0.4-1     s-0.8-0.4-1.4-0.4c-0.6,0-1,0-1.4,0.1c-0.3,0.1-0.7,0.2-1.2,0.4h-0.1l0.4-3.1c0.4-0.1,0.9-0.2,1.6-0.3c0.7-0.1,1.5-0.2,2.2-0.2     c2.2,0,3.7,0.4,4.7,1.2C346.3,40.9,346.7,41.9,346.5,43z"/>
			<path class="st0" d="M397.6,94.3h-9.7l-11.6-28.1l-4,28.1H363l5.7-40.3h12.4l9.6,23.1L394,54h9.3L397.6,94.3z"/>
			<path class="st0" d="M439.8,92c-1.9,0.7-4.3,1.4-7.2,2.1s-5.8,1-8.5,1c-6.3,0-11.1-1.8-14.4-5.5c-3.2-3.7-4.4-8.8-3.4-15.6     c0.9-6.3,3.5-11.4,7.8-15.2c4.3-3.8,9.7-5.7,16.3-5.7c3.4,0,6.1,0.3,8.1,1c2,0.6,4.1,1.5,6.2,2.6l-1.3,9.4h-0.9     c-0.4-0.4-1.1-0.9-1.9-1.6c-0.8-0.7-1.6-1.3-2.4-1.8c-0.9-0.6-2-1.1-3.3-1.5c-1.3-0.4-2.6-0.6-4.1-0.6c-1.7,0-3.4,0.3-4.9,0.8     s-2.9,1.4-4.2,2.5c-1.2,1.1-2.3,2.5-3.1,4.1c-0.9,1.7-1.4,3.6-1.8,5.8c-0.7,4.7,0,8.2,2.1,10.4c2,2.2,5.1,3.4,9.2,3.4     c0.4,0,0.8,0,1.3,0c0.5,0,0.9,0,1.3-0.1l1.1-7.9h-7.8l1.1-7.6h17.6L439.8,92z"/>
			<path class="st0" d="M480.6,95.1c-6,0-10.6-1.8-13.6-5.5c-3-3.7-4.1-8.8-3.2-15.4c0.9-6.4,3.4-11.5,7.5-15.3     c4.1-3.8,9.2-5.7,15.2-5.7c1.6,0,3,0.1,4.3,0.3c1.3,0.2,2.4,0.4,3.6,0.8c0.9,0.3,1.8,0.6,2.8,1.1s1.8,0.9,2.5,1.2l-1.4,9.6h-1     c-0.4-0.4-1-1-1.6-1.6c-0.7-0.6-1.4-1.2-2.3-1.8s-1.8-1.1-2.9-1.5c-1.1-0.4-2.2-0.6-3.4-0.6c-1.5,0-2.8,0.2-4.1,0.7     c-1.3,0.5-2.6,1.3-3.8,2.4c-1.2,1-2.2,2.4-3.1,4.2c-0.9,1.8-1.5,3.8-1.8,6.2c-0.4,2.5-0.3,4.6,0.1,6.3c0.4,1.7,1.1,3.1,2,4.1     c0.9,1,2,1.7,3.2,2.2c1.2,0.5,2.5,0.7,3.8,0.7c1.3,0,2.6-0.2,3.9-0.7c1.3-0.4,2.4-0.9,3.3-1.5c1-0.6,1.9-1.1,2.6-1.7     c0.8-0.6,1.4-1.1,2-1.5h0.9l-1.3,9.5c-0.8,0.3-1.7,0.7-2.7,1.2c-1,0.4-2.1,0.8-3.2,1.1c-1.3,0.4-2.5,0.7-3.7,0.9     C484,95,482.5,95.1,480.6,95.1z"/>
			<path class="st0" d="M534.3,94.3h-10.1l2.5-17.9H513l-2.5,17.9h-10.1L506,54h10.1l-2.1,14.8h13.8l2.1-14.8H540L534.3,94.3z"/>
			<path class="st0" d="M538.4,94.3L557.7,54h11l7.9,40.3h-10.4l-1.4-8.2h-12.7l-3.7,8.2H538.4z M563.7,78.7l-2.2-13.3l-6,13.3     H563.7z M569.7,49.5h-6.4l-6.6-10.6h9L569.7,49.5z"/>
			<path class="st0" d="M620.2,74.1c-0.9,6.5-3.4,11.6-7.4,15.4c-4,3.7-9,5.6-15.1,5.6c-6.1,0-10.6-1.9-13.5-5.7     c-2.9-3.8-3.9-8.9-3-15.3c0.9-6.5,3.4-11.6,7.4-15.4c4-3.8,9-5.6,15.1-5.6c6.1,0,10.6,1.9,13.5,5.6S621.1,67.6,620.2,74.1z      M609.7,74.1c0.3-2.4,0.4-4.4,0.1-6.1c-0.3-1.7-0.7-3.1-1.4-4.2c-0.7-1.1-1.6-1.9-2.6-2.4c-1-0.5-2.1-0.7-3.3-0.7     c-1.2,0-2.4,0.2-3.5,0.7c-1.1,0.4-2.2,1.2-3.3,2.4c-1,1-1.8,2.4-2.6,4.2c-0.8,1.7-1.3,3.8-1.6,6.2c-0.3,2.5-0.4,4.5-0.1,6.2     c0.3,1.6,0.7,3,1.4,4.1c0.7,1.1,1.6,1.9,2.6,2.4c1,0.5,2.1,0.7,3.3,0.7c1.2,0,2.4-0.3,3.6-0.8c1.2-0.5,2.3-1.3,3.2-2.4     c1-1.2,1.9-2.5,2.6-4.1C608.9,78.7,609.4,76.6,609.7,74.1z"/>
			<path class="st0" d="M680.7,94.3h-10.1l3.8-26.7l-9.8,17.2h-6.9l-4.9-17.2l-3.8,26.7h-9.5l5.7-40.3h11.7l6.1,19.9L674.8,54h11.7     L680.7,94.3z"/>
			<path class="st0" d="M705.3,95.1c-5.4,0-9.4-1.3-11.9-3.9c-2.5-2.6-3.5-6.4-2.7-11.5l3.6-25.7h10.1l-3.6,25.1     c-0.4,2.8-0.2,4.9,0.7,6.3c0.9,1.4,2.5,2.1,4.9,2.1c2.3,0,4.1-0.7,5.4-2c1.3-1.3,2.1-3.4,2.5-6.3l3.6-25.1H728     c1.5,0,2.6-0.4,3.3-1.1c0.7-0.7,1.2-1.7,1.3-3c0.1-0.7,0.1-1.4,0-2.1c-0.1-0.7-0.2-1.3-0.4-1.7l0.1-0.5h5.4     c0.1,0.6,0.1,1.5,0.1,2.6c0,1.1-0.1,2-0.2,2.6c-0.4,2.8-1.5,4.9-3.2,6.2c-1.8,1.4-4.1,2-7,2h-0.1l-2.9,20.7     c-0.7,5-2.7,8.8-5.9,11.4S710.8,95.1,705.3,95.1z M716.9,49.5h-6.4l-6.6-10.6h9L716.9,49.5z"/>
			<path class="st0" d="M767.3,94.3h-9.7L746,66.2l-4,28.1h-9.3l5.7-40.3h12.4l9.6,23.1l3.3-23.1h9.3L767.3,94.3z"/>
			<path class="st0" d="M809.5,92c-1.9,0.7-4.3,1.4-7.2,2.1s-5.8,1-8.5,1c-6.3,0-11.1-1.8-14.4-5.5c-3.2-3.7-4.4-8.8-3.4-15.6     c0.9-6.3,3.5-11.4,7.8-15.2c4.3-3.8,9.7-5.7,16.2-5.7c3.4,0,6.1,0.3,8.1,1c2,0.6,4.1,1.5,6.2,2.6l-1.3,9.4H812     c-0.4-0.4-1.1-0.9-1.9-1.6c-0.8-0.7-1.6-1.3-2.4-1.8c-0.9-0.6-2-1.1-3.3-1.5c-1.3-0.4-2.6-0.6-4.1-0.6c-1.7,0-3.4,0.3-4.9,0.8     s-2.9,1.4-4.2,2.5c-1.2,1.1-2.3,2.5-3.1,4.1c-0.9,1.7-1.4,3.6-1.8,5.8c-0.7,4.7,0,8.2,2.1,10.4c2,2.2,5.1,3.4,9.2,3.4     c0.4,0,0.8,0,1.3,0c0.5,0,0.9,0,1.3-0.1l1.1-7.9h-7.8l1.1-7.6h17.6L809.5,92z"/>
		</g>
		<path class="st1" d="M180.7,110.5c10.4-47.2-19.4-94-66.7-104.4S20,25.5,9.6,72.7c-1.4,6.2-2.1,12.5-2.1,18.9    c0,6.1,0.6,12.2,1.9,18.2c-5.8,4.4-7.2,12.6-3.2,18.6c0.5,0.8,1.1,1.6,1.6,2.4l-0.1,0.4c-0.9,3.7-0.2,7.6,1.9,10.8    c30.7,46.9,93.6,60.1,140.5,29.4c11.7-7.7,21.7-17.7,29.4-29.4c2.1-3.2,2.8-7.1,1.9-10.9c0-0.1,0-0.2-0.1-0.3    c0.6-0.8,1.1-1.6,1.6-2.4C186.8,122.7,185.8,115.1,180.7,110.5z"/>
		<path class="st4" d="M95,160.3c-38,0-68.7-30.8-68.7-68.7c0-38,30.8-68.7,68.7-68.7c38,0,68.7,30.8,68.7,68.7v0    C163.7,129.5,132.9,160.3,95,160.3z"/>
		<path class="st5" d="M95.2,16c-41.8,0-75.6,33.8-75.6,75.6s33.8,75.6,75.6,75.6s75.6-33.8,75.6-75.6l0,0    C170.7,49.9,136.9,16,95.2,16z M95,160.3c-38,0-68.7-30.8-68.7-68.7c0-38,30.8-68.7,68.7-68.7c38,0,68.7,30.8,68.7,68.7v0    C163.7,129.5,132.9,160.3,95,160.3z"/>
		<path class="st6" d="M95.2,24.8c37.6,0,68.1,30.2,68.7,67.7c0-0.3,0-0.7,0-1c0-38-30.8-68.7-68.7-68.7c-38,0-68.7,30.8-68.7,68.7    c0,0.3,0,0.7,0,1C27,55,57.6,24.9,95.2,24.8z"/>
		
			<linearGradient id="SVGID_1_" gradientUnits="userSpaceOnUse" x1="41.0818" y1="60.656" x2="29.0918" y2="85.126" gradientTransform="matrix(1 0 0 -1 0 194)">
			<stop offset="0" style="stop-color:#942639"/>
			<stop offset="1" style="stop-color:#C9334E"/>
		</linearGradient>
		<path class="st7" d="M43,106.2c-0.4-0.5-0.9-0.8-1.6-0.8h-0.1c-0.7,0.1-1.3,0.5-1.6,1.1l-6.3,13.2L17.9,119c-1,0-1.9,0.9-1.9,1.9    c0,0.4,0.1,0.7,0.3,1c8.9,13.7,21.3,24.8,35.8,32.3v-37.5C48.7,113.5,45.6,110,43,106.2z"/>
		<polygon class="st8" points="43.6,119.7 52.1,116.7 52.2,130.3 43,126.3   "/>
		
			<linearGradient id="SVGID_00000000930041421144062280000017451554685568528307_" gradientUnits="userSpaceOnUse" x1="144.4212" y1="57.6455" x2="159.4112" y2="81.6155" gradientTransform="matrix(1 0 0 -1 0 194)">
			<stop offset="0" style="stop-color:#942639"/>
			<stop offset="1" style="stop-color:#C9334E"/>
		</linearGradient>
		<path style="fill:url(#SVGID_00000000930041421144062280000017451554685568528307_);" d="M173.1,119.9c-0.3-0.6-1-1-1.6-1    l-15.6,0.7l-6.3-13.2c-0.3-0.6-0.9-1-1.6-1.1h-0.1c-0.6,0-1.2,0.3-1.6,0.8c-2.6,3.8-5.7,7.4-9.1,10.5v37.5    c14.5-7.5,26.8-18.6,35.8-32.2C173.4,121.3,173.4,120.5,173.1,119.9z"/>
		<polygon class="st8" points="145.7,119.7 137.2,116.7 137.1,130.3 146.3,126.3   "/>
		<path class="st10" d="M62.1,61.7c-1,0-1.9,0-2.8,0C60.1,61.7,61.1,61.7,62.1,61.7z"/>
		<path class="st11" d="M87.3,67.9c2.6-2.3-0.9-3.8-6.1-4.4c-16.6-1.8-27.6-3.1-32.2,0.9c-0.6,1.8,0.3,6.8,0.7,8.3    C52.5,65.8,81.7,66.5,87.3,67.9z"/>
		<path class="st10" d="M49,64.4c-0.6,0.5-1.1,1.1-1.5,1.8c-2.1,3.8-7.4,19.4-2.3,18.5c5-0.9,33.9-13.2,40.5-17.4    c-0.2,0.1-0.4,0.2-0.6,0.4C73.9,70.9,45.8,73.2,49,64.4z"/>
		<path class="st12" d="M49,67c-1.7,2.9-2.8,6.3-4.5,12c1-0.5,1.9-1.1,2.9-1.6c4.2-5.1,5.1-6.2,6.2-7.6C51.3,69.1,49.7,68.2,49,67z"/>
		<path class="st10" d="M128,65.9c0.8,0.1,1.5,0.2,2.1,0.3C129.4,66.1,128.7,66,128,65.9z"/>
		<path class="st13" d="M107.3,68.5c-1.4-2.5,1.6-3.5,5.7-3.4c13,0.4,21.8,0.5,24.3,5c0,1.8-1.9,6.4-2.5,7.8    C134.3,70.9,111.9,67.9,107.3,68.5z"/>
		<path class="st11" d="M113,65.1c-4.1-0.1-7.1,0.9-5.7,3.4c3.7-0.1,7.5,0.2,11.2,1c6.3,0,12.6,0.3,18.8,1.1c0-0.2,0-0.4,0-0.5    C134.8,65.6,126,65.4,113,65.1z"/>
		<path class="st10" d="M137.3,70.1c0.4,0.6,0.6,1.2,0.7,1.9c0.6,3.9,0.9,19.4-2.8,17.9s-22.6-16.8-26.6-21.7    c0.1,0.1,0.2,0.3,0.4,0.4C116.7,73.1,137.5,78.9,137.3,70.1z"/>
		<path class="st10" d="M120.8,49.6c-7.1-1.7-9.8,2.3-33.3,19c0,0-5.5,2.4,0.5,1.8c0-0.1,0.1-0.1,0.1-0.2    c6.1-3.4,12.8-7.1,20.4-10.5c3.7-1.7,7.7-3.5,12.7-3.5c3.7-0.1,5.5,2.4,2.7,4.5c-1.9,1.4-15.8,4.7-19.5,5.9    c-2.9,1-5.6,1.8-8.3,2.6c12.3-1.8,26-2.7,28.7-2.7c9.7,0,16.1-0.4,17.4-2.2S127.4,51.2,120.8,49.6z"/>
		<path class="st14" d="M124.6,52.5c-2.8-1.3-5.8-2.3-8.8-3c-4.8,1.2-10.8,6.7-28.3,19.1c0,0-5.5,2.4,0.5,1.8c0-0.1,0.1-0.1,0.1-0.2    c6.1-3.4,12.8-7.1,20.4-10.5c3.7-1.7,7.7-3.5,12.7-3.5c3.1-0.1,4.9,1.7,3.6,3.5c6,0.2,11.8,1.9,17,4.9c0.1,0,0.1-0.1,0.2-0.2    C136.9,59.5,131,55.5,124.6,52.5z"/>
		<path class="st14" d="M123.2,61c5.2-0.3,10.3,0.6,15.1,2.6c-4.4-2.1-9.3-3.2-14.2-3.2C123.9,60.7,123.6,60.9,123.2,61z"/>
		<path class="st13" d="M121.2,56.1c3.3-0.1,5,1.9,3.4,3.8c1.4-0.5,2.7-1.3,3.8-2.2c1.6-1.6,0.4-3.8-3-5.7    c-11.2-6.3-12.4-1.5-37.9,16.7c0,0-5.5,2.4,0.5,1.8c0-0.1,0.1-0.1,0.1-0.2c6.1-3.4,12.8-7.1,20.4-10.5    C112.2,58,116.2,56.2,121.2,56.1z"/>
		<path class="st11" d="M87.5,68.6c0,0-5.5,2.4,0.5,1.8c0-0.1,0.1-0.1,0.1-0.2c7.3-4.2,14.8-8,22.5-11.4c2-3,3.7-6.1,5.4-9.3    C110.5,50.6,104.2,56.7,87.5,68.6z"/>
		<path class="st10" d="M104,43.7c2.4-2.9,15.5-15.7,15.5-5.9c0.7-3.2-0.5-4.7-1.8-5.2C115,31.6,96,35,89,38.7    c-4.4,2.3-3.8,23.2-4,31.2c0,1.2,0.5,1.8,1.4,1.9C94.8,60.4,95.5,54.1,104,43.7z"/>
		<path class="st12" d="M87.3,41.1c-0.4,1-0.7,2-0.9,3c2.3-1.1,4.7-2,7.1-2.6c4.8-1.4,9.6-2.7,14.4-3.9c1.8-1.6,3.8-2.9,6-3.9    C104.6,34.3,95.5,36.8,87.3,41.1z"/>
		<path class="st12" d="M105.3,40.2c0.5-0.5,1-1,1.5-1.5c-2.9,0.7-5.7,1.5-8.5,2.3C100.6,40.5,102.9,40.3,105.3,40.2z"/>
		<path class="st13" d="M104.3,43.3c0,0.7-0.1,1.3-0.3,2c-2.1,9-9,17.3-16.3,26.3c8.4-2,27.4-21.6,31.2-31.9    c0.2-0.6,0.4-1.3,0.6-1.9C119.5,28.4,107.4,39.8,104.3,43.3z"/>
		<path class="st11" d="M103.8,46.2c0,0.1-0.1,0.2-0.1,0.4c4.3-2.6,9.2-4.1,14.2-4.6c0.3-0.6,0.6-1.1,0.8-1.7    C112.4,40.8,106.5,43.6,103.8,46.2z"/>
		<path class="st11" d="M104.3,43.3c0,0.5-0.1,1-0.2,1.5c4.4-3.1,9.5-4.9,14.9-5.2c0.2-0.6,0.4-1.2,0.5-1.8    C119.5,28.4,107.4,39.8,104.3,43.3z"/>
		<path class="st10" d="M65.8,39.1c-4.4,2.6-16.4,15-13.6,17.5c6.3,5.5,21.3,5.4,33.9,14.1c0,0,2.3,2.8,3.6,2.9    c-0.6-3.4-1.9-6.6-3.7-9.6C81.6,57,63.9,49.7,65.8,39.1z"/>
		<path class="st12" d="M65.8,42.2c-0.1-0.3-0.1-0.7-0.1-1c-4.1,3.2-9.6,8.3-12.1,12.5C57.3,49.5,61.4,45.6,65.8,42.2z"/>
		<path class="st12" d="M66,43.1c-4.8,3.9-10.3,8.9-13.7,13.6c1.9,1.5,4.1,2.6,6.4,3.3c2.8-4.4,6.7-8,11.2-10.6    C68.1,47.6,66.7,45.5,66,43.1z"/>
		<path class="st10" d="M66.6,38.8l0.3-0.1L66.6,38.8z"/>
		<path class="st13" d="M90.9,73.2c1.5-1.4,3.4-5.2,1.5-10.8c-7.3-21.7-21.7-25.8-25.5-23.8c-0.4,0.1-0.7,0.2-1.1,0.4    c-0.5,2.8,0.3,5.7,2,7.9C86.8,55.8,90.2,69.6,90.9,73.2z"/>
		<path class="st11" d="M74.2,39.4c0.4,3.7,1.1,7.4,2.2,11.1c0.3-3.1,0.7-6.2,1.3-9.2C76.5,40.5,75.4,39.9,74.2,39.4z"/>
		<path class="st11" d="M73.3,39c-2.8-1-5.1-1-6.3-0.3c-0.4,0.1-0.7,0.2-1.1,0.4c-0.5,2.8,0.3,5.7,2,7.9c2.7,1.3,5.4,2.8,7.8,4.5    C74.5,47.4,73.6,43.2,73.3,39z"/>
		<polygon class="st15" points="142.8,99.2 135,150.7 91.4,150.7 89,87.4   "/>
		<path class="st16" d="M110.7,92.2c-0.8,19.5-2.9,39-4.7,58.6h14c2.3-18.4,4.5-36.7,6.5-55.1L110.7,92.2z"/>
		<polygon class="st17" points="89,87.4 91.4,150.7 55.6,150.7 45.9,100.6   "/>
		<path class="st10" d="M57.5,97c2.2,18,4.8,36,8.7,53.7h13c-2.7-19.3-5.3-38.6-7.6-58L57.5,97z"/>
		<path class="st18" d="M147.5,80.3l-2.5,20.1c0,0-49-10.1-56.6-11.4l-0.6-28.9C87.8,60.1,128.1,73.1,147.5,80.3z"/>
		<path class="st19" d="M142.2,78.3c1.5,1.4,3.3,2.3,5.2,2.7l0.1-0.7C145.9,79.7,144.1,79,142.2,78.3z"/>
		<path class="st19" d="M130.6,74.3c-3.4-1.2-6.9-2.4-10.4-3.5C124.5,73.7,126.8,74.4,130.6,74.3z"/>
		<path class="st19" d="M99.8,66.2c2.7,0.8,5.4,0.6,8.1,0.5c-11.3-3.8-20.1-6.6-20.1-6.6l0.1,2.9C92.6,62.5,95.8,65,99.8,66.2z"/>
		<path class="st19" d="M126.9,96.7l3.9,0.8C129.5,97.1,128.3,96.8,126.9,96.7z"/>
		<path class="st17" d="M147.5,80.3c-19.4-7.2-59.7-20.2-59.7-20.2v2.5c20,5.8,39.8,12.1,59.6,18.3L147.5,80.3z"/>
		<path class="st10" d="M110.9,67.7c0.2,8.6,0.1,17.2-0.3,25.8l15.7,3.2c0.8-7.6,1.7-15.3,2.5-22.9    C122.9,71.6,116.7,69.6,110.9,67.7z"/>
		<path class="st12" d="M128.9,73.7c-6-2-12.2-4.1-17.9-6c0,0.6,0,1.3,0,1.9c5.9,1.8,11.8,3.7,17.8,5.5    C128.8,74.6,128.8,74.1,128.9,73.7z"/>
		<path class="st10" d="M111,69.5c0.2,8,0.1,15.9-0.3,23.9l15.7,3.2c0.8-7.2,1.6-14.4,2.3-21.6C122.8,73.2,116.9,71.3,111,69.5z"/>
		<path class="st20" d="M87.8,60.1L88.4,89c0,0-40.2,12.5-44.4,14l-4-20.2C40,82.8,65.8,69,87.8,60.1z"/>
		<path class="st21" d="M87.8,60.1C65.8,69,40,82.8,40,82.8l0.3,1.7c15.4-7.8,31.2-15.2,47.5-21.9L87.8,60.1z"/>
		<path class="st12" d="M55.1,75.1c0.8,7.8,1.7,15.7,2.6,23.5l14.1-4.4c-1-8.6-1.9-17.2-2.7-25.9C64.1,70.7,59.3,73,55.1,75.1z"/>
		<path class="st22" d="M69.1,68.3c-5,2.3-9.8,4.7-14,6.7c0.1,0.7,0.2,1.4,0.2,2.1c4.6-2.2,9.3-4.4,14-6.5    C69.2,69.9,69.1,69.1,69.1,68.3z"/>
		
			<linearGradient id="SVGID_00000052067364034212463220000010619430437491284892_" gradientUnits="userSpaceOnUse" x1="94.115" y1="32.36" x2="94.115" y2="100.39" gradientTransform="matrix(1 0 0 -1 0 194)">
			<stop offset="0" style="stop-color:#000000"/>
			<stop offset="0.59" style="stop-color:#000000;stop-opacity:0"/>
		</linearGradient>
		
			<polygon style="opacity:0.4;fill:url(#SVGID_00000052067364034212463220000010619430437491284892_);enable-background:new    ;" points="    47,84.2 46.9,142.3 94.2,152.2 141.3,143.9 141.4,84.2   "/>
		<path class="st2" d="M94.7,176c-30.2,0-58.4-15.2-74.9-40.5c-0.3-0.4-0.4-1-0.2-1.5c0.1-0.5,0.4-0.9,0.9-1.2L42.7,120    c0.3-0.2,0.6-0.3,1-0.3c0.6,0,1.2,0.3,1.6,0.8c18.7,27.3,56.1,34.3,83.4,15.6c6.1-4.2,11.4-9.5,15.6-15.6c0.4-0.5,0.9-0.8,1.6-0.8    c0.4,0,0.7,0.1,1,0.3l22.3,12.9c0.5,0.3,0.8,0.7,0.9,1.2c0.1,0.5,0,1-0.2,1.5C153.1,160.8,124.9,176.1,94.7,176z"/>
		<path class="st0" d="M43.6,133.2l2.1,1.5c0.2,0.1,0.3,0.3,0.4,0.5c0.1,0.2,0.1,0.4,0,0.6l-3.5,9.6c-0.1,0.2-0.2,0.5-0.3,0.8    s-0.2,0.5-0.4,0.8c0.2-0.2,0.5-0.4,0.7-0.6s0.4-0.4,0.7-0.5l8.3-6.1c0.4-0.3,0.9-0.3,1.2,0l0.7,0.5c0.2,0.1,0.3,0.3,0.4,0.5    c0.1,0.2,0.1,0.4,0,0.6l-3.1,9.8c-0.2,0.5-0.4,1.1-0.6,1.6l0.6-0.6c0.2-0.2,0.4-0.4,0.6-0.5l8-6.3c0.2-0.1,0.4-0.2,0.6-0.2    c0.2,0,0.5,0.1,0.7,0.2l2,1.4L49,157.2l-2.2-1.6l3.6-11.2l0.2-0.5c0-0.2,0.1-0.3,0.2-0.5l-0.4,0.4l-0.4,0.3l-9.5,7l-2.2-1.6    L43.6,133.2z"/>
		<path class="st0" d="M74,150.6l-0.9,2.3l-6.8-2.6l-1.7,4.2l5.3,2.1l-0.8,2.2l-5.3-2.1l-1.7,4.4l6.8,2.6l-0.9,2.3l-9.6-3.8l6-15.3    L74,150.6z"/>
		<path class="st0" d="M76.9,165.4l6.4,1.3l-0.5,2.5l-9.4-1.9l3.2-16.1l3,0.6L76.9,165.4z"/>
		<path class="st0" d="M98.4,166c0.2,0,0.3,0.1,0.4,0.2l1.2,1.3c-0.7,0.8-1.5,1.4-2.5,1.9c-1.1,0.5-2.3,0.7-3.5,0.6    c-1.1,0-2.2-0.2-3.3-0.7c-0.9-0.4-1.8-1-2.5-1.8c-0.7-0.8-1.2-1.7-1.5-2.7c-0.4-1.1-0.5-2.2-0.5-3.4c0-1.2,0.2-2.3,0.7-3.4    c0.4-1,1-1.9,1.8-2.6c0.8-0.7,1.7-1.3,2.7-1.7c1.1-0.4,2.3-0.6,3.4-0.6c1.1,0,2.2,0.2,3.2,0.6c0.9,0.4,1.6,0.9,2.3,1.6l-1,1.4    c-0.1,0.1-0.1,0.2-0.2,0.2c-0.1,0.1-0.3,0.1-0.4,0.1c-0.2,0-0.4-0.1-0.5-0.2c-0.2-0.2-0.4-0.3-0.7-0.5c-0.3-0.2-0.7-0.3-1.1-0.5    c-0.5-0.2-1.1-0.2-1.6-0.2c-0.7,0-1.5,0.1-2.1,0.4c-0.6,0.2-1.2,0.6-1.7,1.1c-0.5,0.5-0.9,1.1-1.1,1.8c-0.3,0.8-0.4,1.6-0.4,2.4    c0,0.8,0.1,1.7,0.3,2.5c0.2,0.7,0.6,1.3,1,1.8c0.4,0.5,0.9,0.9,1.5,1.2c0.6,0.3,1.3,0.4,1.9,0.4c0.4,0,0.8,0,1.1,0    c0.3,0,0.6-0.1,0.9-0.2c0.3-0.1,0.6-0.2,0.8-0.4c0.3-0.2,0.5-0.4,0.8-0.6c0.1-0.1,0.2-0.1,0.2-0.2C98.2,166.1,98.3,166,98.4,166z"/>
		<path class="st0" d="M119.4,158.1c0.3,1.1,0.3,2.3,0.1,3.4c-0.2,1-0.5,2.1-1.1,2.9c-0.6,0.9-1.3,1.7-2.2,2.3c-1,0.6-2,1.1-3.2,1.3    c-1.1,0.3-2.3,0.3-3.5,0.1c-1-0.2-2.1-0.6-2.9-1.2c-0.9-0.6-1.6-1.4-2.2-2.2c-1.2-1.9-1.8-4.3-1.4-6.5c0.2-1,0.5-2,1.1-2.9    c0.6-0.9,1.3-1.7,2.2-2.3c2-1.3,4.3-1.8,6.7-1.4c2.1,0.4,4,1.6,5.1,3.4C118.7,155.9,119.2,157,119.4,158.1z M116.4,158.8    c-0.2-0.8-0.4-1.6-0.8-2.3c-0.4-0.6-0.8-1.1-1.4-1.6c-0.5-0.4-1.2-0.7-1.8-0.8c-0.7-0.1-1.5-0.1-2.2,0.1c-0.7,0.1-1.4,0.4-2,0.8    c-0.6,0.4-1,0.9-1.4,1.5c-0.3,0.6-0.6,1.3-0.6,2c-0.1,1.6,0.2,3.3,1,4.7c0.3,0.6,0.8,1.1,1.4,1.6c0.5,0.4,1.2,0.7,1.8,0.8    c0.7,0.1,1.5,0.1,2.2-0.1c0.7-0.1,1.4-0.4,2-0.8c0.6-0.4,1-0.9,1.3-1.4c0.3-0.6,0.6-1.3,0.6-2    C116.6,160.4,116.5,159.6,116.4,158.8L116.4,158.8z"/>
		<path class="st0" d="M132,154.7l0.7,0.6c0-0.3-0.1-0.6-0.1-0.9c0-0.3,0-0.6,0-0.8l0.1-10.3c0-0.1,0-0.2,0-0.3    c0-0.1,0.1-0.2,0.1-0.2c0.1-0.1,0.1-0.1,0.2-0.2l0.3-0.2l2-1.1l7.7,14.5l-2.4,1.2l-4.9-9.4c-0.1-0.2-0.2-0.4-0.3-0.6    s-0.2-0.4-0.3-0.6L135,157c0,0.2-0.1,0.4-0.2,0.6c-0.1,0.2-0.3,0.4-0.5,0.4l-0.4,0.2c-0.2,0.1-0.4,0.2-0.6,0.1    c-0.2,0-0.4-0.1-0.6-0.2l-8.8-6c0.1,0.2,0.3,0.4,0.4,0.6s0.2,0.4,0.3,0.6l4.9,9.4l-2.4,1.2l-7.6-14.6l2-1.1l0.3-0.2    c0.1,0,0.2-0.1,0.3-0.1c0.1,0,0.2,0,0.3,0c0.1,0,0.2,0.1,0.3,0.1l8.6,5.8C131.5,154.3,131.8,154.5,132,154.7z"/>
		<path class="st0" d="M145.4,132.4l1.6,1.8l-5.5,4.8l3,3.4l4.3-3.8l1.5,1.8l-4.3,3.8l3,3.5l5.5-4.8l1.6,1.8l-7.8,6.8l-10.8-12.4    L145.4,132.4z"/>
	</g>
</g>
</svg>