<?xml version="1.0" encoding="UTF-8"?>
<!-- Generator: Adobe Illustrator 25.4.1, SVG Export Plug-In . SVG Version: 6.00 Build 0)  -->
<svg version="1.1" id="圖層_1" xmlns="http://www.w3.org/2000/svg" xmlns:xlink="http://www.w3.org/1999/xlink" x="0px" y="0px" viewBox="0 0 527.5 192" style="enable-background:new 0 0 527.5 192;" xml:space="preserve">
<style type="text/css">
	.st0{fill:#FFFFFF;}
	.st1{fill:#222939;}
	.st2{fill:#C9334E;}
	.st3{font-family:'Lato-Regular';}
	.st4{font-size:39.994px;}
	.st5{enable-background:new    ;}
	.st6{fill:#A07333;}
	.st7{fill-rule:evenodd;clip-rule:evenodd;fill:#329C69;}
	.st8{fill-rule:evenodd;clip-rule:evenodd;fill:url(#SVGID_1_);}
	.st9{fill-rule:evenodd;clip-rule:evenodd;fill:#FFFFFF;}
	.st10{fill-rule:evenodd;clip-rule:evenodd;fill:url(#SVGID_00000066501065818094166380000014860534154608364451_);}
	.st11{fill-rule:evenodd;clip-rule:evenodd;fill:url(#SVGID_00000047027616900979438790000002028254796209701297_);}
	.st12{fill:url(#SVGID_00000037660297825699780970000018436976423699134107_);}
	.st13{opacity:0.75;fill:#329C69;enable-background:new    ;}
	.st14{fill:#CAAB72;}
</style>
<g>
	<g id="圖層_1_00000064317631969247973270000016853794318655103896_">
		<path class="st0" d="M522.6,32.7c-3.4-3.9-8.4-6.1-13.6-6H182c0,0-0.6-3.7-0.6-3.8c-1.5-8.4-8.8-14.4-17.3-14.4    c-4.6,0-9,1.8-12.2,5l-4.1,4.1C131.5,6.1,112.1-0.1,92.2,0c-15,0-29.7,3.6-42.9,10.6c-10.9,5.8-20.5,13.8-28.2,23.6    c0,0,0,0.1-0.1,0.1c-1.3,1.7-2.4,3.2-3.4,4.6C9,51.6,3.8,66.3,2.5,81.6C1.9,87.8,3.5,94,7,99.2c-1.1,0.8-2.1,1.8-3,2.9    c-3.2,3.9-4.6,9-3.7,14l9.2,53c1.5,8.3,8.8,14.4,17.3,14.4c4.6,0,9-1.8,12.2-5.1l4.1-4.1C59.3,185.9,78.7,192,98.5,192    c15,0,29.7-3.6,42.9-10.6c7.8-4.2,15-9.5,21.3-15.8h230.1c6.6-0.1,12.1-5,13.1-11.4l5.3-37.9c0.2-1.5,0.1-3.1-0.2-4.6h87.2    c11.6,0,16.9-8,16.9-8c2.9-3.2,4.7-7.2,5.4-11.4l6.3-45C527.5,42,526,36.7,522.6,32.7z"/>
		<path class="st1" d="M516.4,91.6l6.3-45c1.2-8.8-4.9-16-13.8-16H82.7v77h415.5C507,107.6,515.1,100.5,516.4,91.6z"/>
		<path class="st2" d="M392.8,161.6H117.2c-3.7,0.1-6.9-2.8-7-6.6c0-0.5,0-0.9,0.1-1.4l5.3-37.9c0.7-4.5,4.6-7.9,9.1-8h275.6    c3.7-0.1,6.9,2.8,7,6.6c0,0.5,0,0.9-0.1,1.4l-5.3,37.9C401.2,158.1,397.4,161.4,392.8,161.6z"/>
		<text transform="matrix(0.9901 0 -0.14 0.9901 264.1992 152.0603)" class="st3 st4"> </text>
		<g class="st5">
			<path class="st0" d="M216.3,137.7c-0.4,2.6-1.2,5-2.6,7.1c-1.4,2.1-3,3.8-5,5c-1.6,1-3.1,1.6-4.7,1.9s-3.5,0.4-5.8,0.4h-6.6     l2-14.3h-3.2l0.4-2.8h3.2l1.7-11.7h6.6c2.7,0,4.8,0.2,6.3,0.6c1.5,0.4,2.7,1,3.7,1.7c1.7,1.2,2.9,2.9,3.6,4.9     C216.6,132.5,216.7,134.9,216.3,137.7z M212.4,137.6c0.3-2.2,0.2-4.1-0.3-5.7c-0.5-1.6-1.4-2.8-2.7-3.7c-0.9-0.6-2-1.1-3.1-1.3     c-1.1-0.3-2.5-0.4-4.3-0.4H199l-1.2,8.4h6.3l-0.4,2.8h-6.3l-1.6,11h2.9c1.7,0,3.2-0.1,4.5-0.4c1.3-0.3,2.6-0.8,3.7-1.5     c1.5-0.9,2.6-2.1,3.5-3.6C211.5,141.8,212.1,139.9,212.4,137.6z"/>
			<path class="st0" d="M218.5,152.1l4.1-28.8h18l-0.5,3.4h-14.2l-1.1,7.9H238l-0.5,3.4h-13.2l-1.5,10.7H237l-0.5,3.4H218.5z      M238.7,119.8h-3.1l-2.9-5l-4.3,5h-3l5.4-7.3h4.4L238.7,119.8z M245.7,112.4l-4.9,5.1h-2.5l3.1-5.1H245.7z"/>
			<path class="st0" d="M261.3,152.1H257l-9.2-24.8l-3.5,24.8h-3.6l4.1-28.8h5.4l8.4,22.8l3.2-22.8h3.6L261.3,152.1z"/>
		</g>
		<text transform="matrix(0.9901 0 -0.14 0.9901 264.1992 152.0603)" class="st0 st3 st4"> </text>
		<g class="st5">
			<path class="st0" d="M295.8,137.7c-0.4,2.5-0.9,4.7-1.7,6.5c-0.8,1.8-1.7,3.4-2.9,4.6c-1.1,1.2-2.4,2.1-3.7,2.7     c-1.4,0.6-2.8,0.9-4.3,0.9c-1.5,0-2.8-0.3-4-0.9c-1.2-0.6-2.2-1.5-2.9-2.7c-0.8-1.2-1.3-2.7-1.6-4.6c-0.3-1.8-0.2-4,0.1-6.5     c0.4-2.5,0.9-4.7,1.7-6.5c0.8-1.8,1.7-3.4,2.8-4.6c1.1-1.2,2.3-2.1,3.7-2.7c1.4-0.6,2.8-0.9,4.3-0.9c1.5,0,2.8,0.3,4,0.9     c1.2,0.6,2.2,1.5,3,2.7c0.8,1.2,1.3,2.7,1.6,4.6C296.2,133.1,296.2,135.2,295.8,137.7z M290.8,137.7c0.3-2.1,0.4-3.8,0.3-5.1     c-0.1-1.4-0.4-2.4-0.8-3.2c-0.4-0.8-0.9-1.4-1.5-1.7c-0.6-0.3-1.3-0.5-2-0.5c-0.7,0-1.4,0.2-2.1,0.5c-0.7,0.3-1.4,0.9-2,1.7     c-0.6,0.8-1.2,1.9-1.7,3.2c-0.5,1.4-0.9,3.1-1.2,5.1c-0.3,2.1-0.4,3.8-0.3,5.1c0.1,1.4,0.4,2.4,0.7,3.2c0.4,0.8,0.9,1.4,1.5,1.7     s1.3,0.5,2,0.5c0.7,0,1.4-0.2,2.1-0.5c0.7-0.3,1.4-0.9,2-1.7c0.6-0.8,1.2-1.9,1.7-3.2C290.1,141.5,290.5,139.8,290.8,137.7z"/>
			<path class="st0" d="M296.6,149.4c0.1-0.4,0.2-0.8,0.4-1.2c0.2-0.4,0.5-0.7,0.8-1c0.3-0.3,0.7-0.5,1-0.6c0.4-0.2,0.8-0.2,1.2-0.2     c0.4,0,0.8,0.1,1.1,0.2c0.3,0.2,0.6,0.4,0.9,0.6c0.2,0.3,0.4,0.6,0.5,1c0.1,0.4,0.1,0.8,0.1,1.2c-0.1,0.4-0.2,0.8-0.4,1.2     c-0.2,0.4-0.5,0.7-0.8,0.9c-0.3,0.3-0.6,0.5-1,0.6c-0.4,0.2-0.8,0.2-1.2,0.2c-0.4,0-0.8-0.1-1.2-0.2c-0.3-0.2-0.6-0.4-0.9-0.6     s-0.4-0.6-0.5-0.9C296.6,150.2,296.6,149.8,296.6,149.4z"/>
			<path class="st0" d="M320.2,123.1c1.3,0,2.5,0.2,3.5,0.6c1,0.4,1.8,0.9,2.5,1.6c0.7,0.7,1.1,1.4,1.4,2.3c0.3,0.9,0.3,1.9,0.2,2.9     c-0.1,0.9-0.3,1.7-0.6,2.4s-0.7,1.3-1.1,1.8c-0.5,0.5-1,1-1.6,1.3c-0.6,0.4-1.3,0.7-2,0.9c1.6,0.5,2.8,1.4,3.5,2.5     c0.7,1.1,0.9,2.5,0.7,4.2c-0.2,1.4-0.6,2.7-1.3,3.8c-0.7,1.1-1.5,2-2.5,2.8c-1,0.7-2.1,1.3-3.4,1.7s-2.5,0.6-3.8,0.6     c-1.4,0-2.7-0.2-3.7-0.5c-1-0.3-1.9-0.8-2.6-1.5s-1.3-1.4-1.7-2.4c-0.4-0.9-0.7-2-1-3.2l2.3-0.9c0.4-0.2,0.8-0.2,1.2-0.2     c0.3,0,0.6,0.1,0.9,0.2c0.2,0.1,0.4,0.4,0.5,0.6c0.2,0.5,0.4,0.9,0.6,1.4c0.2,0.4,0.5,0.8,0.8,1.2c0.3,0.4,0.8,0.6,1.3,0.9     c0.5,0.2,1.1,0.3,1.9,0.3c0.8,0,1.6-0.1,2.2-0.4s1.2-0.6,1.7-1.1c0.5-0.4,0.9-0.9,1.1-1.5c0.3-0.5,0.5-1.1,0.5-1.6     c0.1-0.7,0.1-1.3,0-1.9s-0.3-1-0.7-1.4s-1-0.7-1.9-0.9c-0.8-0.2-2-0.3-3.4-0.3l0.5-3.5c1.2,0,2.2-0.1,3-0.3     c0.8-0.2,1.5-0.5,2-0.9c0.5-0.4,0.9-0.8,1.2-1.4c0.3-0.5,0.4-1.1,0.5-1.7c0.2-1.4,0-2.4-0.7-3.1s-1.6-1-2.9-1     c-1.2,0-2.2,0.3-3,0.9c-0.9,0.6-1.5,1.4-1.9,2.4c-0.2,0.5-0.5,0.9-0.8,1.1c-0.3,0.2-0.7,0.3-1.1,0.3c-0.2,0-0.4,0-0.7-0.1     l-2.5-0.4c0.4-1.4,0.9-2.6,1.7-3.6c0.7-1,1.5-1.9,2.5-2.6c1-0.7,2-1.2,3.2-1.6C317.7,123.3,318.9,123.1,320.2,123.1z"/>
			<path class="st0" d="M343.2,123.1c1.3,0,2.5,0.2,3.5,0.6c1,0.4,1.8,0.9,2.5,1.6s1.1,1.4,1.4,2.3c0.3,0.9,0.3,1.9,0.2,2.9     c-0.1,0.9-0.3,1.7-0.6,2.4c-0.3,0.7-0.7,1.3-1.1,1.8c-0.5,0.5-1,1-1.6,1.3c-0.6,0.4-1.3,0.7-2,0.9c1.6,0.5,2.8,1.4,3.5,2.5     c0.7,1.1,0.9,2.5,0.7,4.2c-0.2,1.4-0.6,2.7-1.3,3.8c-0.7,1.1-1.5,2-2.5,2.8c-1,0.7-2.1,1.3-3.4,1.7c-1.2,0.4-2.5,0.6-3.8,0.6     c-1.4,0-2.7-0.2-3.7-0.5c-1-0.3-1.9-0.8-2.6-1.5c-0.7-0.6-1.3-1.4-1.7-2.4c-0.4-0.9-0.7-2-1-3.2l2.3-0.9c0.4-0.2,0.8-0.2,1.2-0.2     c0.3,0,0.6,0.1,0.9,0.2c0.2,0.1,0.4,0.4,0.5,0.6c0.2,0.5,0.4,0.9,0.6,1.4s0.5,0.8,0.9,1.2c0.3,0.4,0.8,0.6,1.3,0.9     c0.5,0.2,1.1,0.3,1.9,0.3c0.8,0,1.6-0.1,2.2-0.4c0.7-0.3,1.2-0.6,1.7-1.1c0.5-0.4,0.9-0.9,1.1-1.5s0.5-1.1,0.5-1.6     c0.1-0.7,0.1-1.3,0-1.9s-0.3-1-0.7-1.4c-0.4-0.4-1-0.7-1.9-0.9s-2-0.3-3.4-0.3l0.5-3.5c1.2,0,2.2-0.1,3-0.3     c0.8-0.2,1.5-0.5,2-0.9c0.5-0.4,0.9-0.8,1.2-1.4c0.3-0.5,0.4-1.1,0.5-1.7c0.2-1.4,0-2.4-0.7-3.1c-0.6-0.7-1.6-1-2.9-1     c-1.2,0-2.2,0.3-3,0.9s-1.5,1.4-1.9,2.4c-0.2,0.5-0.5,0.9-0.8,1.1c-0.3,0.2-0.7,0.3-1.1,0.3c-0.2,0-0.4,0-0.7-0.1l-2.5-0.4     c0.4-1.4,0.9-2.6,1.7-3.6c0.7-1,1.5-1.9,2.5-2.6c0.9-0.7,2-1.2,3.2-1.6C340.7,123.3,341.9,123.1,343.2,123.1z"/>
			<path class="st0" d="M377.6,124.2c0.2-0.2,0.4-0.4,0.7-0.5c0.3-0.2,0.6-0.2,1-0.2h3.5l-25.2,27.9c-0.2,0.2-0.4,0.4-0.7,0.5     c-0.3,0.1-0.6,0.2-0.9,0.2h-3.6L377.6,124.2z M367.2,130.4c-0.2,1.1-0.5,2.1-1,2.9s-1.1,1.6-1.8,2.2c-0.7,0.6-1.5,1.1-2.3,1.4     s-1.7,0.5-2.6,0.5c-1,0-1.8-0.2-2.6-0.5s-1.4-0.8-1.9-1.4c-0.5-0.6-0.9-1.4-1.1-2.2c-0.2-0.9-0.2-1.8-0.1-2.9     c0.2-1.1,0.5-2.1,0.9-3c0.5-0.9,1-1.7,1.7-2.3c0.7-0.6,1.4-1.1,2.3-1.4c0.9-0.3,1.8-0.5,2.7-0.5c1,0,1.8,0.2,2.6,0.5     c0.8,0.3,1.4,0.8,1.9,1.4c0.5,0.6,0.9,1.4,1.1,2.3C367.3,128.2,367.3,129.2,367.2,130.4z M363.4,130.4c0.1-0.8,0.1-1.4,0.1-1.9     c-0.1-0.5-0.2-0.9-0.4-1.2s-0.5-0.5-0.8-0.7s-0.7-0.2-1.1-0.2c-0.4,0-0.8,0.1-1.1,0.2c-0.4,0.1-0.7,0.4-1,0.7s-0.5,0.7-0.8,1.2     c-0.2,0.5-0.4,1.2-0.5,1.9c-0.1,0.7-0.1,1.4-0.1,1.9c0.1,0.5,0.2,0.9,0.4,1.2c0.2,0.3,0.5,0.5,0.8,0.7c0.3,0.1,0.7,0.2,1.1,0.2     s0.8-0.1,1.1-0.2c0.4-0.1,0.7-0.3,1-0.7c0.3-0.3,0.6-0.7,0.8-1.2C363.1,131.7,363.3,131.1,363.4,130.4z M381.2,145.3     c-0.2,1.1-0.5,2.1-1,2.9s-1.1,1.6-1.8,2.2c-0.7,0.6-1.5,1.1-2.3,1.4c-0.9,0.3-1.7,0.5-2.6,0.5c-1,0-1.8-0.2-2.6-0.5     c-0.8-0.3-1.4-0.8-1.9-1.4c-0.5-0.6-0.9-1.4-1.1-2.2s-0.2-1.8-0.1-2.9c0.2-1.1,0.5-2.1,0.9-3c0.5-0.9,1-1.7,1.7-2.3     c0.7-0.6,1.4-1.1,2.3-1.4c0.9-0.3,1.8-0.5,2.7-0.5c1,0,1.8,0.2,2.6,0.5c0.8,0.3,1.4,0.8,1.9,1.4c0.5,0.6,0.9,1.4,1.1,2.3     C381.3,143.2,381.4,144.2,381.2,145.3z M377.4,145.3c0.1-0.8,0.1-1.4,0-1.9c-0.1-0.5-0.2-0.9-0.4-1.2c-0.2-0.3-0.5-0.5-0.8-0.7     c-0.3-0.1-0.7-0.2-1.1-0.2c-0.4,0-0.8,0.1-1.1,0.2s-0.7,0.4-1,0.7c-0.3,0.3-0.5,0.7-0.8,1.2c-0.2,0.5-0.4,1.2-0.5,1.9     c-0.1,0.7-0.1,1.4,0,1.9s0.2,0.9,0.4,1.2s0.5,0.5,0.8,0.7c0.3,0.1,0.7,0.2,1.1,0.2c0.4,0,0.8-0.1,1.1-0.2c0.4-0.1,0.7-0.3,1-0.7     s0.6-0.7,0.8-1.2C377.2,146.7,377.3,146.1,377.4,145.3z"/>
		</g>
		<g class="st5">
			<path class="st0" d="M231.8,93.4h-10.1l2.5-17.9h-13.8l-2.5,17.9h-10.1l5.7-40.3h10.1l-2.1,14.8h13.8l2.1-14.8h10.1L231.8,93.4z"/>
			<path class="st0" d="M279.7,73.2c-0.9,6.5-3.4,11.6-7.4,15.4c-4,3.7-9,5.6-15.1,5.6c-6.1,0-10.6-1.9-13.5-5.7     c-2.9-3.8-3.9-8.9-3-15.3c0.9-6.5,3.4-11.6,7.4-15.4c4-3.8,9-5.6,15.1-5.6c6.1,0,10.6,1.9,13.5,5.6     C279.6,61.6,280.6,66.7,279.7,73.2z M269.2,73.2c0.3-2.4,0.4-4.4,0.1-6.1c-0.3-1.7-0.7-3.1-1.4-4.2c-0.7-1.1-1.6-1.9-2.6-2.4     c-1-0.5-2.1-0.7-3.3-0.7c-1.2,0-2.4,0.2-3.5,0.7c-1.1,0.4-2.2,1.2-3.3,2.4c-1,1-1.8,2.4-2.6,4.2c-0.8,1.7-1.3,3.8-1.6,6.2     c-0.4,2.5-0.4,4.5-0.1,6.2c0.3,1.6,0.7,3,1.4,4.1c0.7,1.1,1.6,1.9,2.6,2.4c1,0.5,2.1,0.7,3.3,0.7c1.2,0,2.4-0.3,3.6-0.8     c1.2-0.5,2.3-1.3,3.2-2.4c1-1.2,1.9-2.5,2.6-4.1C268.3,77.8,268.9,75.7,269.2,73.2z"/>
			<path class="st0" d="M278.5,93.4l19.3-40.3h11l7.9,40.3h-10.4l-1.4-8.2h-12.7l-3.7,8.2H278.5z M303.8,77.8l-2.2-13.3l-6,13.3     H303.8z M309.8,48.6h-6.4l-6.6-10.6h9L309.8,48.6z"/>
			<path class="st0" d="M355.3,93.4h-9.7L334,65.3l-4,28.1h-9.3l5.7-40.3h12.4l9.6,23.1l3.3-23.1h9.3L355.3,93.4z"/>
			<path class="st0" d="M387.5,93.4l4.6-32.6h-11.9l1.1-7.7h33.9l-1.1,7.7h-11.9l-4.6,32.6H387.5z"/>
			<path class="st0" d="M450.9,93.4h-12.3l-9.1-14.8h-3.6l-2.1,14.8h-10.1l5.7-40.3h16.2c2.2,0,4.2,0.1,5.8,0.4     c1.6,0.3,3.1,0.9,4.4,1.7c1.3,0.9,2.3,2.1,2.9,3.5c0.6,1.4,0.8,3.2,0.5,5.4c-0.4,3.1-1.5,5.6-3.1,7.5c-1.7,1.9-3.7,3.5-6.2,4.6     L450.9,93.4z M438.6,65.4c0.1-1,0.1-1.9-0.2-2.6c-0.3-0.7-0.9-1.3-1.7-1.7c-0.6-0.3-1.3-0.4-2-0.5c-0.8-0.1-1.7-0.1-2.9-0.1h-3.4     l-1.5,10.9h2.9c1.4,0,2.6-0.1,3.6-0.3c1-0.2,1.9-0.5,2.7-1.1c0.7-0.5,1.3-1.1,1.7-1.8C438.1,67.5,438.4,66.6,438.6,65.4z"/>
			<path class="st0" d="M449.6,93.4l19.3-40.3h11l7.9,40.3h-10.4l-1.4-8.2h-12.7l-3.7,8.2H449.6z M474.9,77.8l-2.2-13.3l-6,13.3     H474.9z M481.7,42.1c-0.2,1.3-0.7,2.3-1.4,3c-0.8,0.7-1.7,1.2-2.8,1.5l-0.2,1.6h-4.8l0.4-3c0.9-0.2,1.6-0.5,2.1-1     c0.5-0.4,0.8-1,0.9-1.7c0.1-0.4-0.1-0.8-0.4-1c-0.3-0.3-0.8-0.4-1.4-0.4c-0.6,0-1,0-1.4,0.1c-0.3,0.1-0.7,0.2-1.2,0.4h-0.1     l0.4-3.1c0.4-0.1,0.9-0.2,1.6-0.3c0.7-0.1,1.5-0.2,2.2-0.2c2.2,0,3.7,0.4,4.7,1.2C481.4,40,481.8,41,481.7,42.1z"/>
		</g>
		<path class="st1" d="M183.7,87.4c2.5-3,3.5-6.9,2.8-10.8l-9.2-52.8v-0.1c-1.2-6.5-6.8-11.2-13.4-11.2c-3.5,0-6.9,1.4-9.4,3.9    l-6.6,6.6C132,10.7,112.4,4,92.2,4c-14.3,0-28.4,3.5-41,10.1c-10.5,5.6-19.7,13.2-27,22.5l-0.1,0.1c-1.2,1.6-2.3,3-3.2,4.4    C12.7,53.3,7.7,67.3,6.5,81.9c-0.6,6.9,1.9,13.7,6.7,18.5c-6.3,2-10.2,8.4-9,15l9.2,52.8c0,0,0,0.1,0,0.1    c1.2,6.4,6.8,11.1,13.4,11.1c3.5,0,6.9-1.4,9.4-3.9l6.6-6.6c16,12.3,35.6,18.9,55.8,18.9c14.3,0,28.4-3.5,41-10.1    c10.5-5.6,19.6-13.2,26.9-22.5l0.1-0.1c1.2-1.6,2.3-3,3.2-4.4c8.2-12.1,13.2-26.2,14.5-40.8c0.6-6.9-1.9-13.7-6.7-18.5    C179.9,90.8,182.1,89.3,183.7,87.4z"/>
		<path class="st6" d="M46.7,63.8c-3.8,6.9-6.1,14.4-6.9,22.2c-0.5,5.6-5.4,9.8-11,9.3c-0.3,0-0.7-0.1-1-0.1    c-5.8-1-9.8-6.3-9.3-12.2c1.1-12.6,5.3-24.7,12.4-35.1c22.9-27.2,63.5-30.6,90.7-7.7c4.7,4,8.9,8.6,12.3,13.8    C117,37.7,93.1,33.4,73.2,41.1c-7.7,3-14.6,7.7-20.2,13.9C53,55,48.3,60.6,46.7,63.8z"/>
		<path class="st6" d="M163.1,96.8c-5.5-1-10.9,2.6-11.9,8.1c-0.1,0.3-0.1,0.7-0.1,1c-1.6,20.2-14.6,37.6-33.5,44.9    c-19.5,7.6-42.8,3.6-59.6-12l0,0l-0.4-0.4L57,138c19.5,29.7,59.4,37.9,89.1,18.4c5.2-3.4,9.8-7.5,13.8-12.3    c7.1-10.4,11.4-22.5,12.4-35.1C172.8,103.2,168.8,97.9,163.1,96.8z"/>
		<path class="st7" d="M95.9,46.5c27.2,0,49.3,22.1,49.3,49.3S123.1,145,95.9,145S46.6,123,46.6,95.8C46.6,68.6,68.7,46.5,95.9,46.5    z"/>
		<path class="st7" d="M95.9,144.3c26.8,0,48.6-21.7,48.6-48.6s-21.7-48.6-48.6-48.6c-26.8,0-48.6,21.7-48.6,48.6c0,0,0,0,0,0    C47.4,122.6,69.1,144.3,95.9,144.3z"/>
		
			<linearGradient id="SVGID_1_" gradientUnits="userSpaceOnUse" x1="62.9446" y1="134.8432" x2="118.0646" y2="73.6332" gradientTransform="matrix(1 0 0 -1 0 194)">
			<stop offset="0" style="stop-color:#E7E8E9"/>
			<stop offset="0.11" style="stop-color:#EBECED"/>
			<stop offset="0.6" style="stop-color:#FAFAFA"/>
			<stop offset="1" style="stop-color:#FFFFFF"/>
		</linearGradient>
		<path class="st8" d="M95.9,62c18.6,0,33.7,15.1,33.7,33.7s-15.1,33.7-33.7,33.7c-18.6,0-33.7-15.1-33.7-33.7    C62.1,77.1,77.2,62,95.9,62C95.9,62,95.9,62,95.9,62z"/>
		<path class="st7" d="M90.8,67.5l-0.7-3.8c3.7-0.7,7.6-0.7,11.3,0l-0.7,3.8C97.5,66.9,94.1,66.9,90.8,67.5L90.8,67.5z M105.6,68.8    l1.4-3.7c3.6,1.3,6.9,3.2,9.8,5.7l-2.5,3C111.7,71.6,108.8,69.9,105.6,68.8L105.6,68.8z M117.8,77.3l3-2.5c1.2,1.5,2.3,3,3.2,4.6    c0.9,1.6,1.7,3.4,2.4,5.1l-3.7,1.3C121.6,82.8,119.9,79.9,117.8,77.3L117.8,77.3z M124.1,90.7l3.9-0.7c0.3,1.9,0.5,3.8,0.5,5.7    c0,1.9-0.2,3.8-0.5,5.7l-3.9-0.7c0.3-1.6,0.4-3.3,0.4-4.9C124.5,94.1,124.3,92.4,124.1,90.7L124.1,90.7z M122.8,105.5l3.7,1.3    c-1.3,3.6-3.2,6.9-5.7,9.8l-3-2.5C120,111.6,121.7,108.6,122.8,105.5L122.8,105.5z M114.3,117.7l2.5,3c-1.5,1.2-3,2.3-4.7,3.2    c-1.6,0.9-3.4,1.8-5.1,2.4l-1.3-3.7C108.9,121.5,111.8,119.8,114.3,117.7z M100.9,124l0.7,3.8c-3.7,0.7-7.6,0.7-11.3,0L91,124    C94.3,124.6,97.7,124.6,100.9,124L100.9,124z M86.1,122.8l-1.3,3.6c-1.8-0.6-3.5-1.5-5.2-2.4c-1.6-1-3.2-2.1-4.6-3.3l2.5-2.9    C80,119.9,83,121.6,86.1,122.8L86.1,122.8z M73.9,114.3l-3,2.5c-1.2-1.5-2.3-3-3.3-4.7c-0.9-1.6-1.7-3.3-2.3-5.1l3.6-1.3    C70,108.8,71.7,111.8,73.9,114.3L73.9,114.3z M67.6,100.8l-3.8,0.7c-0.7-3.7-0.7-7.6,0-11.3l3.8,0.7c-0.3,1.6-0.4,3.3-0.4,4.9    C67.1,97.4,67.3,99.1,67.6,100.8L67.6,100.8z M68.8,86l-3.6-1.3c0.7-1.8,1.5-3.5,2.4-5.2c0.9-1.6,2-3.2,3.2-4.6l2.9,2.5    C71.7,79.9,70,82.9,68.8,86L68.8,86z M77.4,73.8l-2.5-3c2.9-2.4,6.2-4.4,9.8-5.7l1.3,3.7C82.9,69.9,79.9,71.6,77.4,73.8z"/>
		<path class="st7" d="M95.9,123.2c15.2,0,27.4-12.3,27.4-27.4c0-15.2-12.3-27.4-27.4-27.4c-15.2,0-27.4,12.3-27.4,27.4c0,0,0,0,0,0    C68.5,110.9,80.7,123.2,95.9,123.2z"/>
		<path class="st9" d="M118,57.5c1.1,0.6,1.5,2,0.8,3.1s-2,1.5-3.1,0.8c-1.1-0.6-1.5-2-0.8-3.1c0,0,0,0,0,0    C115.5,57.2,116.9,56.8,118,57.5z"/>
		<path class="st9" d="M140.1,95.8c0,1.3-1,2.3-2.3,2.3c-1.3,0-2.3-1-2.3-2.3c0-1.3,1-2.3,2.3-2.3C139.1,93.5,140.1,94.5,140.1,95.8    C140.1,95.8,140.1,95.8,140.1,95.8z"/>
		<path class="st9" d="M118,134.1c-1.1,0.6-2.5,0.3-3.1-0.8c-0.6-1.1-0.3-2.5,0.8-3.1c1.1-0.6,2.5-0.3,3.1,0.8c0,0,0,0,0,0    C119.5,132,119.1,133.4,118,134.1z"/>
		<path class="st9" d="M73.8,134.1c-1.1-0.6-1.5-2-0.8-3.1c0.6-1.1,2-1.5,3.1-0.8c1.1,0.6,1.5,2,0.8,3.1c0,0,0,0,0,0    C76.3,134.3,74.9,134.7,73.8,134.1C73.8,134.1,73.8,134.1,73.8,134.1z"/>
		<path class="st9" d="M51.7,95.8c0-1.3,1-2.3,2.3-2.3s2.3,1,2.3,2.3c0,1.3-1,2.3-2.3,2.3C52.7,98.1,51.7,97,51.7,95.8L51.7,95.8z"/>
		<path class="st9" d="M73.8,57.5c1.1-0.6,2.5-0.3,3.1,0.8c0.6,1.1,0.3,2.5-0.8,3.1c-1.1,0.6-2.5,0.3-3.1-0.8c0,0,0,0,0,0    C72.3,59.5,72.7,58.1,73.8,57.5C73.8,57.5,73.8,57.5,73.8,57.5z"/>
		
			<linearGradient id="SVGID_00000037658347188085415240000006876510278592326539_" gradientUnits="userSpaceOnUse" x1="121.9403" y1="58.1102" x2="70.0403" y2="138.0202" gradientTransform="matrix(1 0 0 -1 0 194)">
			<stop offset="0" style="stop-color:#808285"/>
			<stop offset="6.000000e-02" style="stop-color:#8B8C8F"/>
			<stop offset="0.37" style="stop-color:#BCBEBF"/>
			<stop offset="0.64" style="stop-color:#E1E1E2"/>
			<stop offset="0.86" style="stop-color:#F7F7F7"/>
			<stop offset="1" style="stop-color:#FFFFFF"/>
		</linearGradient>
		<path style="fill-rule:evenodd;clip-rule:evenodd;fill:url(#SVGID_00000037658347188085415240000006876510278592326539_);" d="    M95.9,59.2c-1.9,0-3.7,0.1-5.6,0.4c-2.3,0.3-4.4-1.2-4.8-3.5l-2.1-8.6c8.2-2.1,16.8-2.1,25,0l-2.1,8.6c-0.4,2.3-2.5,3.8-4.8,3.5    C99.6,59.3,97.7,59.2,95.9,59.2z M127.6,77.5c-0.9-1.6-2-3.2-3.2-4.6c-1.4-1.8-1.2-4.4,0.6-5.9l6.4-6.1c5.9,6,10.2,13.5,12.5,21.6    l-8.4,2.5c-2.2,0.8-4.5-0.3-5.4-2.5C129.3,80.8,128.5,79.1,127.6,77.5L127.6,77.5z M127.6,114.1c1-1.6,1.8-3.3,2.4-5.1    c0.9-2.1,3.3-3.2,5.4-2.4l8.4,2.5c-2.3,8.2-6.6,15.6-12.5,21.6l-6.4-6.1c-1.8-1.5-2-4.1-0.6-5.9    C125.6,117.2,126.6,115.7,127.6,114.1L127.6,114.1z M95.9,132.3c1.9,0,3.7-0.2,5.6-0.4c2.3-0.3,4.4,1.2,4.8,3.5l2.1,8.6    c-8.2,2.1-16.8,2.1-25,0l2.1-8.6c0.4-2.3,2.5-3.8,4.8-3.5C92.1,132.2,94,132.3,95.9,132.3z M64.2,114.1c0.9,1.6,2,3.2,3.2,4.6    c1.4,1.8,1.2,4.4-0.6,5.9l-6.4,6.1c-5.9-6-10.2-13.5-12.5-21.7l8.5-2.5c2.2-0.8,4.6,0.3,5.4,2.5C62.4,110.8,63.2,112.5,64.2,114.1    L64.2,114.1z M64.2,77.5c-0.9,1.6-1.8,3.3-2.4,5.1c-0.8,2.2-3.2,3.3-5.4,2.5l-8.5-2.5c2.3-8.2,6.6-15.6,12.5-21.7l6.4,6.1    c1.8,1.5,2,4.1,0.6,5.9C66.2,74.3,65.1,75.8,64.2,77.5z"/>
		
			<linearGradient id="SVGID_00000109746800344138080170000012131973570951604145_" gradientUnits="userSpaceOnUse" x1="58.5358" y1="133.0663" x2="132.5458" y2="64.0563" gradientTransform="matrix(1 0 0 -1 0 194)">
			<stop offset="0" style="stop-color:#E7E8E9"/>
			<stop offset="1" style="stop-color:#FFFFFF"/>
		</linearGradient>
		<path style="fill-rule:evenodd;clip-rule:evenodd;fill:url(#SVGID_00000109746800344138080170000012131973570951604145_);" d="    M127.6,77.5c-0.9-1.6-2-3.2-3.2-4.6c-1.4-1.8-1.2-4.4,0.6-5.9l5.8-5.5c5.9,5.9,10.1,13.3,12.3,21.3l-7.7,2.3    c-2.2,0.8-4.5-0.3-5.4-2.5C129.3,80.8,128.5,79.1,127.6,77.5L127.6,77.5z M127.6,114.1c1-1.6,1.8-3.3,2.4-5.1    c0.9-2.1,3.3-3.2,5.4-2.4l7.7,2.2c-2.2,8-6.5,15.4-12.3,21.3l-5.8-5.5c-1.8-1.5-2-4.1-0.6-5.9    C125.6,117.2,126.6,115.7,127.6,114.1L127.6,114.1z M95.9,132.3c1.9,0,3.7-0.2,5.6-0.4c2.3-0.3,4.4,1.2,4.8,3.5l1.9,7.8    c-8.1,2.1-16.5,2.1-24.6,0l1.9-7.8c0.4-2.3,2.5-3.8,4.8-3.5C92.1,132.2,94,132.3,95.9,132.3z M64.2,114.1c0.9,1.6,2,3.2,3.2,4.6    c1.4,1.8,1.2,4.4-0.6,5.9l-5.8,5.5c-5.9-5.9-10.1-13.3-12.3-21.3l7.7-2.2c2.2-0.8,4.6,0.3,5.4,2.5    C62.4,110.8,63.2,112.5,64.2,114.1L64.2,114.1z M64.2,77.5c-0.9,1.6-1.8,3.3-2.4,5.1c-0.8,2.2-3.2,3.3-5.4,2.5l-7.7-2.3    c2.2-8,6.5-15.4,12.3-21.3l5.8,5.5c1.8,1.5,2,4.1,0.6,5.9C66.2,74.3,65.1,75.8,64.2,77.5L64.2,77.5z M95.9,59.2    c-1.9,0-3.7,0.1-5.6,0.4c-2.3,0.3-4.4-1.2-4.8-3.5l-1.9-7.8c8.1-2.1,16.5-2.1,24.6,0l-1.9,7.8c-0.4,2.3-2.5,3.8-4.8,3.5    C99.6,59.3,97.7,59.2,95.9,59.2z"/>
		
			<radialGradient id="SVGID_00000024721540968383715280000007488831501204425618_" cx="13.0149" cy="145.1779" r="46.7" gradientTransform="matrix(0.9862 -2.832279e-03 -2.832279e-03 -0.9862 89.6638 247.2538)" gradientUnits="userSpaceOnUse">
			<stop offset="0" style="stop-color:#FFFFFF"/>
			<stop offset="0.28" style="stop-color:#F8F9F9"/>
			<stop offset="0.68" style="stop-color:#E5E7E7"/>
			<stop offset="1" style="stop-color:#D1D3D4"/>
		</radialGradient>
		<circle style="fill:url(#SVGID_00000024721540968383715280000007488831501204425618_);" cx="95.9" cy="95.8" r="25.3"/>
		<path class="st13" d="M111.8,105c-0.1,0-0.2,0-0.4,0.2c-0.1,0.1-0.2,0.1-0.4,0.1c-0.4,0-1-0.4-2-1.2c-0.3-0.2-0.4-0.6-0.4-1V85.2    c0-0.4-0.1-0.5-0.8-0.8c-2.2-0.9-3.9-1.5-4-1.5s-2,1.5-2.6,2c-2.1,1.8-2.5,2-2.9,2.1c0-0.8-0.1-0.8-0.6-1.1    c-0.5-0.3-0.9-0.6-1.4-1c-0.1-0.1-0.2-0.1-0.4-0.2l-0.4-0.2c-1.8-1.4-2-1.6-2.2-1.6c-1.1,0.4-2.2,0.9-3.1,1.6    c-0.7,0.5-1.5,1-2.4,1.2c-0.6-0.3-1.2-0.7-1.8-1.1c-1-0.8-2.2-1.4-3.4-1.9c-0.1,0-0.1,0-0.2,0.1h-0.1l-2.8,2.8l-0.1,0.1    c-0.2,0.2-0.2,0.2-0.2,0.4s0,0.1,0.1,0.1H80c0.8,0,2.9,1.5,3.5,2c0.5,0.4,0.8,1,0.8,1.6v2.5c-0.4,0-0.7-0.1-1-0.4    c-0.4-0.4-1-0.6-1.6-0.6c-1.6,0.1-2.8,1.5-2.8,3.1c0,0.8,0.1,1.2,0.4,1.2s0.4,0,0.4-0.4c0.1-0.6,0.4-0.9,1-0.9    c1.9,0,3.5,3.2,3.5,7c0.2,1.8-0.5,3.7-1.8,5c-1.8,1.8-2.1,2.2-2.1,2.4c0.1,0.2,0.2,0.3,0.4,0.4l0.2-0.2l0.1-0.1l0.6-0.6    c0.1-0.1,0.4-0.2,0.5-0.4c1.1,0.4,2.2,0.9,3.2,1.5c0.1-0.1,0.4-0.2,0.6-0.5c0.9-0.8,2.2-1.9,2.8-1.9h0.6v1.6    c0,0.4,0.1,0.5,0.4,0.5s0.4-0.2,0.4-0.5V95.8h4.4v10.2c0,0.1,2.2,2.9,2.6,2.9c0.1,0,0.4-0.2,0.6-0.5c0.6-0.7,1.5-1.3,2.4-1.5v1.6    c0,0.4,0.1,0.5,0.2,0.5s0.4-0.2,0.4-0.5V87.2c0-0.4,0.4-0.6,0.9-0.6c1,0,1.5,0.2,3.2,1.2l0.2,0.1c0.4-0.2,0.8-0.5,1.1-0.8    c0.5-0.4,1.1-0.7,1.6-1c0.2,0,0.1,0.4-0.8,1.5c-1.8,2.4-2.2,3.4-2.2,4.9v12.5c0,0.6,0,0.6,0.4,1c1.1,1,2.3,1.9,3.6,2.5    c1.2-0.9,2.3-2.1,3.1-3.4C112,105.1,111.9,105,111.8,105z M89.4,106c-1.4,0.1-3.8-0.4-4.5-1.4c0.4-0.5,0.6-0.6,1.1-1.2l0.1-0.1    c1.2-1.2,1.8-1.9,1.8-6.5v-9.7c0-0.2,1.1-1,1.4-0.9s0.2,0.1,0.2,0.9L89.4,106z M94.1,92.6h-4v-5.8c0-0.5,0.2-0.8,0.6-0.8    c0.9,0,3.4,2,3.4,2.8V92.6z M99.8,105.9c-1,0-1.9-0.8-1.9-1.8c0-0.1,0-0.2,0-0.3v-7.2c0.1-0.5,0.2-0.8,0.6-0.8h1.2V105.9z     M99.9,92.8h-1.4c-0.1,0-0.5-0.1-0.5-0.4v-3.5c0-0.2,0.1-0.4,0.6-0.6l0.8-0.5c0.1,0,0.2-0.1,0.4-0.1s0.1,0,0.1,0.1V92.8z"/>
		<path class="st14" d="M173.3,80.1l-30.5-5.3l-22.4-3.9c-0.8-0.1-1.4-0.9-1.3-1.7c0-0.3,0.1-0.6,0.3-0.8L133.8,54l0,0    c-19.5-29.7-59.5-37.9-89.1-18.4c-5.2,3.4-9.8,7.5-13.8,12.3c0.9-1.3,1.8-2.5,2.8-3.8c6.3-8,14.2-14.6,23.2-19.4    c28.9-15.4,66.4-10.4,91.8,14.6l14.4-14.5c0.7-0.5,1.6-0.4,2.1,0.2c0.2,0.2,0.3,0.5,0.3,0.8l9.2,52.9c0.1,0.7-0.3,1.4-1,1.5    C173.6,80.2,173.4,80.2,173.3,80.1z"/>
		<path class="st14" d="M110.7,166.9C89.1,167,68.9,156.1,57,138l0,0l14.4-14.4c0.5-0.7,0.4-1.6-0.2-2.2c-0.2-0.2-0.5-0.3-0.8-0.3    L48,117.2l-30.5-5.3c-0.7-0.1-1.3,0.3-1.5,1c0,0.1,0,0.3,0,0.4l9.2,52.8c0.1,0.8,0.9,1.4,1.7,1.3c0.3,0,0.5-0.1,0.8-0.3l14.4-14.4    c25.4,24.9,62.9,29.9,91.8,14.6c9-4.8,16.9-11.4,23.2-19.4c1-1.2,1.9-2.5,2.8-3.8C147.7,158.6,129.7,167,110.7,166.9z"/>
	</g>
</g>
</svg>