<svg width="268" height="121" viewBox="0 0 268 121" fill="none" xmlns="http://www.w3.org/2000/svg">
    <path d="M80.037 78.638c-.644.172-1.224.343-1.811.441-6.203 1.078-10.577-2.4-10.757-9.632-.293-12.146 10.781-32.903 15.637-38.985-8.324 5.616-30.294 35.345-30.147 41.573.033 1.192-4.064-.245-4.121-2.825-.156-6.358 12.772-33.368 17.105-38.797-8.022 6.13-19.497 20.13-27.625 31.467-7.5 10.718-11.156 17.42-11.115 19.183.016.816 3.484-1.804 3.256-1.51-1.412 2.334-4.489 3.877-5.664 4.08-.996.172-1.959-.799-1.991-1.99-.196-8.057 28.857-51.328 28.637-60.266-.074-2.954-2.775-2.995-4.946-2.62-16.387 2.833-42.658 37.1-42.56 41.058.016.76.67 1.02 1.2.93.587-.097 2.277-.71 2.856-1.003.017.563-3.46 2.685-4.807 2.922-1.869.327-3.142-1.037-3.182-2.922-.245-10.13 28.963-39.532 46.46-42.568 5.558-.964 8.619 1.534 8.741 6.693.147 5.975-9.206 22.83-16.714 35.507C54.852 36.12 69.501 22.08 72.138 21.622c1.868-.326 4.962 1.094 5.32 3.567-.244-.334-.889-.35-1.297-.277-2.342.408-16.535 25.998-22.28 41.156 11.41-23.606 38.088-50.666 42.005-51.351 1.992-.343 4.824 2.514 5.093 3.918-.539-.286-1.355-.147-1.885-.05-5.272.915-28.197 37.124-27.854 51.532.147 6.04 2.66 8.064 8.92 6.79l-.123 1.731z" fill="url(#a)"/>
    <path d="M97.608 51.114c-1.713 2.049-12.894 13.787-15.35 14.195-.115.016-.417-.049-.531-.09-1.07-.359-2.644-2.342-2.669-3.518-.155-6.407 12.936-21.704 23.708-23.467 2.228-.368 5.174.097 5.24 2.856.024.996-.482 2.082-1.045 2.947-.114.074-.237.041-.179-.032.277-.58.612-1.34.595-2.22-.041-1.764-1.175-2.466-2.93-2.058-3.395.735-7.606 3.902-11.335 7.755-5.444 5.673-9.663 13.795-9.124 13.999.114.04.236.024.408-.066 1.918-.963 9.972-8.236 12.951-11.321 1.029-1.11 4.75-5.436 6.195-6.498 1.158-.775 3.223 2.123 3.011 2.874-.31-.54-5.419 6.726-7.084 10.774-.334.882-.547 1.625-.538 2.09 3.664-1.665 11.841-11.085 15.383-15.085.286-.342.588.082.416.286-4.962 6.416-14.265 17.795-17.775 18.366-.293.05-.587-.024-1.003-.188-.833-.334-1.975-1.387-2-2.448-.016-.588.204-1.331.416-2.253.653-2.286 2.163-5.249 3.24-6.898z" fill="url(#b)"/>
    <path d="M119.635 35.89c.343-.293.58-.391.816-.424 1.404-.228 3.689 1.698 3.722 3.167.008.237-.18-.032-.645-.008-.881.082-2.873 2.71-4.57 5.347-1.526 2.375-3.51 5.469-4.693 7.844 3.003-4.563 8.741-10.456 13.686-14.921 2.245-2.017 3.975-3.306 5.199-3.625.645-.163 3.101 1.968 2.701 2.506-1.257 1.56-6.015 6.645-7.834 11.55 2.807-.693 6.781-4 10.332-7.827.057-.066.408-.188.465-.074-1.02 1.584-7.884 9.314-11.924 9.975-1.052.171-2.856-1.6-2.881-2.302-.04-1.649 1.755-5.363 3.232-7.37-5.313 4.056-8.006 6.856-11.882 11.917-2.906 3.722-6.293 9.468-4.995 9.844-1.689.685-3.134-.906-3.591-2.482-.13-.506.139-1.673.808-3.142 1.379-3.592 3.917-8.073 6.178-11.803 2-3.355 4.44-6.76 5.876-8.171z" fill="url(#c)"/>
    <path d="M133.076 56.926c-.946-.14-2.44-1.372-2.464-2.425-.082-3.404 8.095-17.606 11.768-21.214.286-.343.636-.457.873-.498 1.347-.22 3.746 1.746 3.779 3.216.008.236-.294-.008-.767.008-2.408.155-10.104 14.864-10.749 17.395 3.55-1.527 11.899-11.094 15.384-15.142.4-.36.71.065.539.27-4.962 6.358-14.037 17.459-17.661 18.349-.237.024-.408.057-.702.04zm18.844-32.692c.539.498.914 1.322.678 1.363-.115.017-.588-.138-1.225.262-.987.57-3.623 3.42-4.3 4.538-.792 1.192-2.057.155-2.139-.89-.098-1.698 2.032-5.877 3.542-6.595 1.339-.4 2.661.563 3.444 1.322z" fill="url(#d)"/>
    <path d="M161.951 40.584c-1.714 2.049-12.895 13.787-15.351 14.195-.115.016-.417-.05-.531-.09-1.069-.36-2.644-2.343-2.669-3.518-.155-6.408 12.936-21.705 23.708-23.468 2.228-.367 5.175.098 5.24 2.857.024.996-.482 2.082-1.045 2.947-.114.073-.236.04-.179-.033.277-.58.612-1.338.595-2.22-.04-1.763-1.175-2.465-2.929-2.057-3.395.735-7.607 3.902-11.336 7.755-5.444 5.672-9.655 13.794-9.124 13.998.122.041.236.025.408-.065 1.918-.963 9.973-8.236 12.951-11.322 1.029-1.11 4.75-5.436 6.195-6.497 1.159-.775 3.223 2.122 3.011 2.873-.31-.538-5.419 6.726-7.084 10.775-.334.882-.546 1.624-.538 2.09 3.664-1.666 11.841-11.085 15.383-15.085.286-.343.588.082.417.286-4.962 6.416-14.266 17.794-17.775 18.366-.294.049-.588-.025-1.004-.188-.833-.335-1.975-1.388-2-2.449-.016-.587.204-1.33.417-2.253.644-2.285 2.162-5.248 3.24-6.897z" fill="url(#e)"/>
    <path d="M185.3 18.553c2.374-1.568 9.295-11.844 9.271-12.669-.009-.294.399-.596.75-.653 1.29-.212 2.914 1.412 2.938 2.53.041 1.707-7.924 10.326-12.894 11.135-.114.016-.237-.14-.065-.343z" fill="url(#f)"/>
    <path d="M197.214 32.005c-.212 1.036 1.216 1.747 1.812 2.18 9.238-6.825 16.706-9.339 17.465-9.47.114-.016.351.058.359.237.53.09-10.985 5.045-17.277 9.91.775.465 2.277 1.926 2.138 3.191-.726 3.951-8.381 8.334-12.184 8.955-1.29.212-1.959-.743-2.286-1.984.115-2.555 8.602-8.897 10.634-10.056-.661-.718-4.17-2.27-3.705-4.939.833-4.62 9.157-10.407 14.307-11.248 1.64-.269 2.464 2.31 2.334 4.04-.041.833-3.64 4.964-5.223 5.225-.058.008-.18-.204-.123-.212.18-.033 3.999-4.784 4.089-5.975-2.71.196-11.646 7.264-12.34 10.146zm-8.471 12.121c2.269-1.02 9.434-5.966 9.385-8.203-3.46 2.58-7.728 6.22-9.385 8.203z" fill="url(#g)"/>
    <path d="M116.918 115.183c3.338-.465 6.782-1.984 10.128-4.955.522-.49.628-.245.31.057-4.121 4.384-8.504 6.506-12.731 7.094-10.855 1.51-21.08-6.988-25.675-13.191-.31-.376-.735-.939-1.151-1.559-4.856 7.093-9.132 13.901-9.132 15.15 0 .31.049.514.522.449 1.46-.205 2.555-.613 4.015-1.657-1.2 1.371-3.289 3.175-5.117 3.428-1.567.22-1.77-1.061-1.77-1.943 0-3.6 5.116-12.766 9.344-19.41l-.212-.548c-.417-1.142-.678-1.991-.572-2.53.678-3.485 4.644-5.55 3.812-4.44-.31.465-.474 1.216-.31 2.024.048.302.154.653.31 1.004 6.055-8.881 16.232-22.407 20.925-23.06 1.877-.26 3.55.343 4.488 1.257-3.232-1.06-17.326 17.648-22.908 25.476 11.899-2.228 34.546-16.178 34.024-25.508-.368-5.796-8.3-7.412-14.299-6.571C91.3 68.476 71.412 87.16 71.412 93.266c0 2.09 1.672 3.265 2.921 3.192 0 0-.155.285-1.355.449-3.55.49-5.272-1.51-5.272-4.278 0-9.395 21.138-25.328 41.124-28.112 7.043-.98 18.942-.073 19.513 9.347.572 9.738-18.835 23.761-34.023 25.867a31.199 31.199 0 0 1-3.183.286c.416.832.987 1.64 1.51 2.351 4.284 5.681 13.882 14.26 24.271 12.815z" fill="url(#h)"/>
    <path d="M142.029 76.639c-10.666 2.17-23.283 24.488-20.003 25.23 3.281.678 11.85-10.44 15.89-17.24-.286-.464-.849-2.113-.604-2.75.188-.62 1.983-2.743 2.75-2.963.588-.18 1.233.163 1.347.31 1.094 1.592 2.489 2.661 4.848 2 3.958-1.159 6.17-3.894 6.814-3.967-.31.882-2.693 3.306-5.598 4.832a13.728 13.728 0 0 1-3.485 1.241c-.881.18-1.469.18-1.763.123-1.706 8.138-14.037 19.092-20.28 20.006-2.71.376-4.448-1.494-4.415-3.73.138-9.583 13.196-21.786 22.508-23.688 2.236-.457 3.175 0 3.583.27.294.113.114.154-.123.203-.587.057-1.053.033-1.469.123z" fill="url(#i)"/>
    <path d="M165.427 71.872c-10.666 2.171-23.283 24.488-20.003 25.23 3.281.678 11.85-10.44 15.89-17.239-.286-.473-.849-2.114-.604-2.75.188-.621 1.983-2.743 2.75-2.964.588-.18 1.233.164 1.347.31 1.094 1.592 2.489 2.662 4.848 2 3.958-1.159 6.169-3.893 6.814-3.967-.31.882-2.693 3.306-5.598 4.833a13.61 13.61 0 0 1-3.485 1.24c-.881.18-1.469.18-1.763.123-1.706 8.138-14.037 19.092-20.28 20.006-2.71.376-4.448-1.493-4.415-3.73.138-9.583 13.196-21.786 22.508-23.688 2.236-.457 3.175 0 3.583.27.293.114.114.154-.123.203-.579.058-1.053.041-1.469.123z" fill="url(#j)"/>
    <path d="M192.563 88.9c-1.379-.115-3.036-1.609-3.02-2.727.049-3.347 6.619-14.473 9.728-17.917-10.838 9.59-17.122 21.002-18.77 21.345-.824.171-2.685-1.33-2.669-2.506.033-2.236 4.701-11.623 8.7-16.007-6.007 4.8-11.573 11.436-15.947 17.134-1.02 1.322-1.681 2.22-2.097 2.832-1.681 2.277-1.992 3.51-1.11 3.739-1.771.775-3.281-.735-3.73-2.286-.114-.392.147-2.024 1.722-5.036 2.604-5.273 6.219-11.404 9.524-15.885.841-1.167 1.681-2.155 2.334-2.816.237-.286.596-.416.767-.449 1.478-.302 3.681 1.535 3.657 3.004 0 .237-.237-.008-.702.024-.408.025-1.249.784-2.024 1.878-2.579 3.395-7.876 12.154-9.271 14.717 3.844-5.763 16.746-19.819 19.235-20.856a.935.935 0 0 1 .351-.13c1.176-.237 3.077 2.302 2.481 3.012-3.052 3.787-8.487 13.33-8.512 15.386 5.648-8.121 17.008-21.271 19.481-21.777 1.297-.262 3.191 2.514 2.416 3.314-1.494 1.477-10.879 16.105-10.912 18.684 0 0 3.869 2.318 24.026-14.88 0 .007-17.097 18.896-25.658 18.202z" fill="url(#k)"/>
    <path d="M73.125 76.01s2.424 3.616 11.034-2.155c8.61-5.771-.294 2.824-.294 2.824s-2.75 2.727-7.174 2.58c-4.431-.156-3.566-3.25-3.566-3.25z" fill="url(#l)"/>
    <path d="M241.048 49.873c7.532-8.097 13.849-17.174 19.178-26.855 2.244-4.081 4.424-8.301 5.827-12.766.776-2.465 1.91-6.35-.024-8.587-2.514-2.914-7.859-1.33-10.724.04-3.942 1.886-7.035 5.306-9.483 8.857-2.432 3.518-4.383 7.38-6.056 11.313-.987 2.335-1.983 4.735-2.668 7.184a6.444 6.444 0 0 1-.115.367c1.453-.057 2.914-.122 4.367-.18 1.526-5.901 2.774-12.464 1.697-18.561-.661-3.73-2.628-7.135-6.831-7.061-5.28.098-9.85 3.771-12.086 8.342-1.216 2.49-1.877 5.224-2.318 7.942-.506 3.118-.343 5.616.09 8.759.644 4.718 2.424 8.26 3.909 10.39 1.485 2.131 5.035 4.188 4.195 2.523-.392-.775-.792-1.714-1.216-2.767a49.623 49.623 0 0 1-2.22-6.906c-1.314-5.51-1.004-11.068.571-16.496.637-2.196 1.526-4.326 2.963-6.122 1.297-1.617 2.864-2.629 4.709-3.102-.221.057.342-.065.416-.082.098-.024.187-.032.285-.049 0 0-.481.025-.244.033.489.024-.302-.049.057-.008.375.04.081-.008.098 0 .4.122.783.285 1.118.62 1.11 1.094 1.632 2.596 1.958 4.09 1.355 6.08.025 12.733-1.509 18.643-.449 1.722 3.933 1.298 4.366-.18a68.967 68.967 0 0 1 6.39-14.88c1.999-3.46 4.374-6.906 7.524-9.403.841-.662 1.233-.94 2.122-1.412.196-.107.4-.205.596-.303.449-.22-.057.009.278-.122.204-.082.408-.155.62-.228.139-.05.751-.22.522-.164-.269.066.351-.065.441-.09.114-.024.702-.106.383-.065-.318.033.221-.008.327-.016.098-.008.196 0 .294-.008-.106 0-.408-.033-.139 0l.449.049c.024 0-.302-.115.041.024.065.025.457.188.22.074-.22-.107.147.098.212.138.114.074.278.245.082.05.081.081.163.163.236.252.074.098.139.188.204.286.049.074.204.4.098.163.221.523.319 1.094.351 1.65.082 1.403-.269 2.921-.677 4.35-1.175 4.13-3.11 8.056-5.133 11.836-4.824 9.003-10.406 19.868-17.171 27.532-5.844 6.62-13.483 15.452-20.395 20.946.008.008 16.347-14.162 21.815-20.04z" fill="#A22E2E"/>
    <defs>
        <linearGradient id="a" x1="53.413" y1="27.412" x2="60.407" y2="47.656" gradientUnits="userSpaceOnUse">
            <stop stop-color="#F3F3F1"/>
            <stop offset="1" stop-color="#F0E6C5"/>
        </linearGradient>
        <linearGradient id="b" x1="97.953" y1="43.14" x2="100.948" y2="50.92" gradientUnits="userSpaceOnUse">
            <stop stop-color="#F3F3F1"/>
            <stop offset="1" stop-color="#F0E6C5"/>
        </linearGradient>
        <linearGradient id="c" x1="123.706" y1="38.499" x2="127.186" y2="46.27" gradientUnits="userSpaceOnUse">
            <stop stop-color="#F3F3F1"/>
            <stop offset="1" stop-color="#F0E6C5"/>
        </linearGradient>
        <linearGradient id="d" x1="142.279" y1="29.111" x2="147.719" y2="36.065" gradientUnits="userSpaceOnUse">
            <stop stop-color="#F3F3F1"/>
            <stop offset="1" stop-color="#F0E6C5"/>
        </linearGradient>
        <linearGradient id="e" x1="162.295" y1="32.61" x2="165.29" y2="40.39" gradientUnits="userSpaceOnUse">
            <stop stop-color="#F3F3F1"/>
            <stop offset="1" stop-color="#F0E6C5"/>
        </linearGradient>
        <linearGradient id="f" x1="192.115" y1="7.737" x2="193.977" y2="11.245" gradientUnits="userSpaceOnUse">
            <stop stop-color="#F3F3F1"/>
            <stop offset="1" stop-color="#F0E6C5"/>
        </linearGradient>
        <linearGradient id="g" x1="202.912" y1="23.978" x2="206.55" y2="31.513" gradientUnits="userSpaceOnUse">
            <stop stop-color="#F3F3F1"/>
            <stop offset="1" stop-color="#F0E6C5"/>
        </linearGradient>
        <linearGradient id="h" x1="99.787" y1="74.506" x2="106.804" y2="89.579" gradientUnits="userSpaceOnUse">
            <stop stop-color="#F3F3F1"/>
            <stop offset="1" stop-color="#F0E6C5"/>
        </linearGradient>
        <linearGradient id="i" x1="136.329" y1="80.951" x2="139.427" y2="88.821" gradientUnits="userSpaceOnUse">
            <stop stop-color="#F3F3F1"/>
            <stop offset="1" stop-color="#F0E6C5"/>
        </linearGradient>
        <linearGradient id="j" x1="159.727" y1="76.185" x2="162.825" y2="84.054" gradientUnits="userSpaceOnUse">
            <stop stop-color="#F3F3F1"/>
            <stop offset="1" stop-color="#F0E6C5"/>
        </linearGradient>
        <linearGradient id="k" x1="192.504" y1="69.362" x2="195.278" y2="78.885" gradientUnits="userSpaceOnUse">
            <stop stop-color="#F3F3F1"/>
            <stop offset="1" stop-color="#F0E6C5"/>
        </linearGradient>
        <linearGradient id="l" x1="80.914" y1="73.227" x2="81.49" y2="75.514" gradientUnits="userSpaceOnUse">
            <stop stop-color="#F3F3F1"/>
            <stop offset="1" stop-color="#F0E6C5"/>
        </linearGradient>
    </defs>
</svg>