<svg width="160" height="56" viewBox="0 0 160 56" xmlns="http://www.w3.org/2000/svg">
    <path fill="#B5B5B5" d="M130.993 14h27.076c1.144 0 2.097 1 1.907 2.2v11.206c0 1.2-.954 2.2-2.098 2.2h-26.885c-1.144 0-2.097-1-2.097-2.2V16.2c0-1.2.953-2.201 2.097-2.201zm10.678 13.205c.953 0 1.525-.4 1.716-1.2 0-.3.048-.65.095-1 .048-.35.096-.7.096-1a2.712 2.712 0 0 0-.382-.156c-.254-.09-.508-.178-.762-.445 0 .429-.055.8-.106 1.145a5.9 5.9 0 0 0-.085.856c0 .6-.381.8-.763.8h-.572c-.381 0-.572-.2-.572-.8v-7.203h-3.432V15.8h-.953v2.4h-3.242v1.001h3.242c0 1.6-.191 2.801-.382 3.401-.381 1.601-1.525 3.002-3.05 4.002.19.4.381.6.572.8 1.716-1 2.86-2.6 3.432-4.401.191-.8.381-2.001.381-3.802h2.67v6.403c-.191 1 .381 1.6 1.334 1.6h.763zm5.53.4h.953v-9.003c.212-.335.366-.794.526-1.273.127-.38.258-.774.427-1.128l-.953-.4c-.763 2.2-1.526 4.202-2.479 5.602 0 .073.026.173.058.3.056.22.133.52.133.9.572-.6.953-1.2 1.335-2v7.003zm3.05-7.002-.762.6c.572.8 1.144 1.8 1.525 2.801l.763-.6c-.315-.661-.63-1.2-.913-1.686-.231-.396-.441-.756-.613-1.115zm4.767-1.2h1.716v-1.001h-1.525V15.8h-.954v2.6h-5.148v1.001h5.148v5.602c0 .6 0 .8-.19 1-.191.201-.382.201-.763.201h-1.716c0 .2.048.35.095.5.048.15.096.3.096.5h1.716c.953 0 1.525-.6 1.525-1.8v-6.003zM29.413 14.756h-4.101v3.275h4.1v-3.275zm0 5.975h-4.101v15.684h4.1V20.732zM4.742 14.757H0l.002 21.659h4.28V20.49h.107l11.684 15.926h4.742V14.757h-4.279v15.956h-.072L4.742 14.757zm28.767 5.975h3.885v2.306l.073.06a6.43 6.43 0 0 1 2.444-2.046 7.435 7.435 0 0 1 3.344-.744 7.805 7.805 0 0 1 4.818 1.325 4.713 4.713 0 0 1 1.762 4.005v10.768h-4.099v-9.858a3.824 3.824 0 0 0-.935-2.684 3.756 3.756 0 0 0-2.697-.835 5.13 5.13 0 0 0-1.87.32 4.047 4.047 0 0 0-2.626 3.805v9.252H33.51V20.732zm23.785 10.496a5.176 5.176 0 0 1-.305-1.759l13.673-.017a7.617 7.617 0 0 0-.27-3.408 7.775 7.775 0 0 0-1.673-2.925 8.431 8.431 0 0 0-2.894-2.05 9.626 9.626 0 0 0-3.937-.772 9.883 9.883 0 0 0-3.739.668 8.582 8.582 0 0 0-2.822 1.804 7.892 7.892 0 0 0-1.798 2.64 8.128 8.128 0 0 0-.63 3.169 9.108 9.108 0 0 0 .594 3.337 7.022 7.022 0 0 0 1.762 2.61 8.193 8.193 0 0 0 2.858 1.703c1.25.425 2.564.63 3.885.608.974.003 1.947-.114 2.893-.35a8.901 8.901 0 0 0 2.5-1.03 7.204 7.204 0 0 0 1.896-1.683A6.041 6.041 0 0 0 70.4 31.5h-3.882a3.931 3.931 0 0 1-1.638 1.957 5.611 5.611 0 0 1-2.892.652 5.903 5.903 0 0 1-2.23-.38 4.378 4.378 0 0 1-1.546-1.014 4.164 4.164 0 0 1-.918-1.488zm8.846-5.61c.226.5.366 1.034.414 1.58h-9.58c.02-.57.161-1.13.415-1.64a4.328 4.328 0 0 1 1.005-1.325 4.54 4.54 0 0 1 1.518-.879 5.697 5.697 0 0 1 1.959-.32 4.94 4.94 0 0 1 1.896.349c.532.212 1.02.52 1.439.91.395.377.712.827.934 1.326zm7.39-10.86h10.931c.802.006 1.601.077 2.391.211.861.136 1.69.429 2.445.864a5.467 5.467 0 0 1 1.897 1.85c.544.955.807 2.044.759 3.142a5.142 5.142 0 0 1-2.086 4.396A9.876 9.876 0 0 1 83.9 26.77h-8.774v9.655h-1.582l-.014-21.668zm1.582 10.859h9.025a8.621 8.621 0 0 0 2.93-.44 5.415 5.415 0 0 0 1.925-1.135 4.291 4.291 0 0 0 1.042-1.547c.212-.544.321-1.121.324-1.704a5.893 5.893 0 0 0-.216-1.44 4.104 4.104 0 0 0-.863-1.608 5.003 5.003 0 0 0-1.815-1.305 7.618 7.618 0 0 0-3.111-.53h-9.241v9.709zm30.166 7.705h.071v.818c-.002.3.029.6.092.894.053.262.17.507.341.713.198.224.453.39.736.485.423.139.867.203 1.312.19.376 0 .749-.04 1.115-.122v-.969a7.652 7.652 0 0 1-1.006.089c-.251.016-.5-.041-.719-.165a.917.917 0 0 1-.36-.44 1.891 1.891 0 0 1-.126-.609c-.017-.214-.017-.433-.017-.651V24.47a3.416 3.416 0 0 0-1.529-2.897 8.416 8.416 0 0 0-4.872-1.108 8.845 8.845 0 0 0-5.16 1.288 4.787 4.787 0 0 0-1.958 3.87h1.365a3.848 3.848 0 0 1 1.673-3.124 7.027 7.027 0 0 1 4.008-1.034 9.86 9.86 0 0 1 2.372.244c.564.126 1.1.352 1.584.667.373.247.682.58.899.97.191.366.289.772.286 1.184.007.458-.028.916-.107 1.367-.066.353-.257.67-.539.894a3.2 3.2 0 0 1-1.276.547c-.765.157-1.541.253-2.32.287l-2.121.152c-.744.059-1.517.163-2.319.303a7.791 7.791 0 0 0-2.193.714 4.598 4.598 0 0 0-1.637 1.363 3.62 3.62 0 0 0-.647 2.23 3.707 3.707 0 0 0 1.618 3.323 8.207 8.207 0 0 0 4.568 1.077c.823.007 1.644-.085 2.445-.275a8.082 8.082 0 0 0 1.995-.757 6.385 6.385 0 0 0 1.491-1.108 4.72 4.72 0 0 0 .935-1.325zm-1.457-5.066a2.75 2.75 0 0 0 1.528-.697l-.002 2.923c-.027.395-.09.786-.188 1.169a4.702 4.702 0 0 1-.917 1.789 6.245 6.245 0 0 1-2.086 1.637 8.072 8.072 0 0 1-3.705.714 6.549 6.549 0 0 1-3.56-.833 2.841 2.841 0 0 1-1.293-2.565c-.03-.63.147-1.254.504-1.774a3.473 3.473 0 0 1 1.313-1.078 6.569 6.569 0 0 1 1.815-.568 26.95 26.95 0 0 1 2.012-.255l2.303-.19a22.401 22.401 0 0 0 2.276-.272zm4.658-7.431h1.618l6.868 14.226 6.328-14.226h1.545l-7.91 17.26a30.46 30.46 0 0 1-1.061 1.986c-.263.49-.638.91-1.095 1.23a3.738 3.738 0 0 1-1.707.592c-.866.08-1.736.114-2.606.106v-1.002c.772.022 1.543-.041 2.301-.19a3.74 3.74 0 0 0 1.546-.804c.354-.351.635-.769.827-1.228.288-.597.647-1.41 1.079-2.44l-7.733-15.51z"/>
</svg>