<svg width="126" height="56" viewBox="0 0 126 56" xmlns="http://www.w3.org/2000/svg">
    <path fill="#B5B5B5" d="m10.798 36.088-.314.153c-1.727.614-3.61-.153-4.238-1.842L.282 19.509c-.785-1.69.157-3.531 1.727-4.145l.156-.154a3.509 3.509 0 0 1 4.395 1.842l5.758 14.007a23.73 23.73 0 0 0 .902-9.093l-1.01-2.458c-.627-1.688.157-3.53 1.884-4.144l.157-.154c1.726-.614 3.61.154 4.237 1.842l6.122 14.89c.627 1.69-.157 3.532-1.884 4.146l-.157.153c-1.726.614-3.61-.153-4.238-1.842l-3.094-7.528c-.825 3.89-1.87 6.162-2.602 7.384a3.313 3.313 0 0 1-1.837 1.833zm48.968-1.843V21.504c0-.614.157-1.075.471-1.382.314-.307.628-.46 1.1-.46.47 0 .784.153 1.098.46.314.307.47.768.47 1.382v12.741c0 .614-.156 1.075-.47 1.382-.314.307-.628.46-1.099.46-.47 0-.785-.153-1.099-.46-.314-.307-.47-.768-.47-1.382zm-18.834-3.377h-5.807c0 .614.157 1.228.471 1.842.314.46.628.921 1.099 1.075.47.307.941.46 1.412.46.314 0 .628 0 .942-.153a2.36 2.36 0 0 1 .314-.12c.21-.068.419-.136.628-.34.314-.154.47-.308.785-.615.156-.153.47-.46.941-.767.157-.154.314-.154.628-.154s.628.154.785.307c.157.154.314.46.314.768 0 .307-.157.614-.314.92-.081.16-.287.277-.532.416-.23.132-.496.283-.724.506-.47.307-.942.614-1.57.768-.627.153-1.412.307-2.197.307-1.883 0-3.453-.614-4.551-1.69-1.099-1.074-1.57-2.609-1.57-4.45 0-.922.157-1.69.471-2.457.314-.768.628-1.382 1.099-1.842a5.653 5.653 0 0 1 1.883-1.228 6.636 6.636 0 0 1 2.511-.46c1.099 0 2.198.306 2.982.767a5.352 5.352 0 0 1 1.884 1.842c.47.767.628 1.535.628 2.302 0 .768-.157 1.229-.628 1.382-.471.46-1.099.614-1.884.614zm-5.807-1.688h5.493c0-1.075-.313-1.69-.784-2.303a2.628 2.628 0 0 0-1.884-.768c-.784 0-1.412.307-1.883.768-.628.46-.942 1.228-.942 2.303zm31.547-4.76h-.313c-.471 0-.942 0-1.413.308a1.16 1.16 0 0 0-.314.767c0 .307.157.614.314.768.157.153.47.307.942.307h.47v5.68c0 .92 0 1.535.157 2.149.157.46.471.921.942 1.228.471.307 1.256.46 2.197.46 1.1 0 1.884 0 2.355-.306.47-.307.784-.614.784-1.075a1.16 1.16 0 0 0-.313-.768c-.157-.153-.314-.307-.628-.307a.572.572 0 0 0-.206.058c-.108.043-.238.096-.422.096-.314.153-.628.153-.785.153-.314 0-.47-.153-.628-.307-.157-.153-.314-.307-.314-.614v-6.601h.628c.628 0 1.099-.153 1.413-.307.314-.153.47-.307.47-.767 0-.307-.156-.614-.313-.768-.157-.153-.471-.307-.942-.307h-1.099v-1.995c0-.254-.047-.461-.09-.647a1.936 1.936 0 0 1-.066-.428c0-.154-.157-.46-.314-.614a1.715 1.715 0 0 0-1.1-.46c-.313 0-.627 0-.784.153l-.47.46c0 .154-.04.27-.08.384-.038.115-.078.23-.078.384v2.917zm10.673-2.916v4.298c.215-.314.502-.558.763-.778.121-.102.236-.2.336-.296.157-.077.353-.154.55-.23a7.77 7.77 0 0 0 .548-.23c.471-.154.942-.154 1.413-.154.785 0 1.413.153 2.04.46a3.047 3.047 0 0 1 1.413 1.382c.157.307.314.767.47 1.228 0 .214.035.427.07.656.043.265.088.55.088.879v5.68c0 .614-.157 1.075-.471 1.382-.314.306-.628.46-1.099.46-.941 0-1.412-.614-1.412-1.842v-4.913c0-.92-.157-1.688-.471-2.149-.314-.46-.785-.767-1.57-.767-.47 0-.941.153-1.412.46-.471.307-.785.768-.942 1.229-.157.46-.314 1.227-.314 2.302V34.4c0 .614-.157 1.075-.47 1.382-.315.306-.629.46-1.1.46-.941 0-1.412-.614-1.412-1.842V21.504c0-.614.157-1.075.314-1.382.314-.307.628-.46 1.099-.46.47 0 .784.153 1.098.46.314.307.471.768.471 1.382zm-56.66-5.68 5.965 14.584s4.395-8.136 2.668-11.974c.157-.154-1.57-4.913-8.632-2.61zm34.687 20.57c-.766 0-1.382-.583-1.411-1.324a5.413 5.413 0 0 1-2.984.864c-3.296 0-5.807-2.61-5.807-5.833 0-3.224 2.668-5.834 5.807-5.834 1.153 0 2.2.331 3.063.918a1.405 1.405 0 0 1 1.332-.918c.785 0 1.413.614 1.413 1.382v9.364c0 .768-.628 1.382-1.413 1.382zm-4.395-9.517c-1.883 0-3.296 1.535-3.296 3.377 0 1.842 1.57 3.378 3.296 3.378 2.04 0 2.982-1.69 2.982-3.378 0-1.688-.941-3.377-2.982-3.377zm60.426 8.904c0 .307.314.614.785.614.314 0 .628-.307.628-.614V24.88c0-.307-.314-.614-.628-.614h-.157c-.314 0-.628.307-.628.614v1.494c-.988-1.118-2.425-1.8-4.08-1.8-3.139 0-5.807 2.609-5.807 5.68 0 3.07 2.511 5.68 5.807 5.68a5.421 5.421 0 0 0 4.08-1.864v1.71zm-4.08-9.825c2.187 0 4.064 1.825 4.08 4.265v.068c-.016 2.439-1.737 4.264-4.08 4.264-2.354 0-4.395-1.996-4.395-4.299 0-2.303 1.884-4.298 4.395-4.298zm-17.422 9.671c0 .46.314.768.785.768.47 0 .785-.307.785-.768v-6.14h4.08c1.57-.154 4.866-1.535 4.866-5.22 0-3.684-2.982-4.912-4.552-4.912h-5.964v16.272zm5.65-7.522h-4.08v-7.369h4.551c.314 0 3.14.308 3.14 3.531 0 3.378-3.61 3.838-3.61 3.838zm25.74 8.29c-1.726 0-2.982-.46-3.923-1.382-1.256-1.228-1.256-2.917-1.256-3.07v-7.215h1.412v7.215s0 1.228.785 1.995c.628.614 1.57.921 2.825.921 3.139 0 3.453-2.763 3.453-3.07v-7.061H126V35.78c0 1.842-1.57 5.219-5.964 5.219-.314 0-1.884-.154-2.825-.768l.941-1.074c.314.307 1.256.46 1.884.46 4.237 0 4.551-3.837 4.551-3.99v-.432c-.734.697-1.799 1.199-3.296 1.199z"/>
</svg>