<svg width="32" height="32" viewBox="0 0 32 32" fill="none" xmlns="http://www.w3.org/2000/svg">
<path d="M25 0H7C3.134 0 0 3.134 0 7V25C0 28.866 3.134 32 7 32H25C28.866 32 32 28.866 32 25V7C32 3.134 28.866 0 25 0Z" fill="#F5F5F5"/>
<path d="M19.0629 11.4079C16.5278 9.71781 13.1036 10.4089 11.4146 12.9396C10.5674 14.2028 10.9117 15.9193 12.1793 16.7643C13.4458 17.6094 15.1568 17.2662 16.0018 15.9986C16.8469 14.731 18.5589 14.3921 19.8255 15.2327C21.0941 16.0778 21.4353 17.7943 20.5891 19.0574C22.2792 16.5223 21.596 13.0981 19.0629 11.4079Z" fill="#FF4B55"/>
<path d="M11.4146 12.9395C10.5674 14.2026 10.9118 15.9191 12.1793 16.7641C13.4459 17.6092 15.1568 17.266 16.0019 15.9984C16.8469 14.7308 18.559 14.3919 19.8256 15.2326C21.0941 16.0776 21.4353 17.7941 20.5891 19.0573C18.9013 21.5968 15.4781 22.279 12.943 20.589C10.4101 18.8989 9.72457 15.4746 11.4146 12.9395Z" fill="#41479B"/>
<path d="M21.8701 9.32424L22.8723 10.8306C22.9565 10.9571 22.9224 11.128 22.7961 11.2126L22.542 11.3827C22.4152 11.4677 22.2435 11.4335 22.1589 11.3065L21.1555 9.80049C21.071 9.67381 21.1052 9.50262 21.2318 9.41812L21.4872 9.24762C21.6141 9.16293 21.7856 9.19731 21.8701 9.32424Z" fill="#464655"/>
<path d="M23.4162 11.6471L24.4216 13.1525C24.5065 13.2796 24.4718 13.4516 24.3443 13.5359L24.0891 13.7046C23.9625 13.7883 23.792 13.7539 23.7077 13.6277L22.7028 12.1239C22.6182 11.9972 22.6522 11.826 22.7788 11.7413L23.0335 11.571C23.1602 11.4863 23.3315 11.5203 23.4162 11.6471Z" fill="#464655"/>
<path d="M22.9429 8.60825L25.4947 12.4379C25.5792 12.5646 25.5449 12.7359 25.4182 12.8204L25.1618 12.9913C25.035 13.0758 24.8637 13.0416 24.7792 12.9148L22.2265 9.0855C22.142 8.95869 22.1763 8.78731 22.3032 8.70287L22.5604 8.53169C22.6873 8.44719 22.8585 8.4815 22.9429 8.60825Z" fill="#464655"/>
<path d="M24.0132 7.89354L25.0176 9.40285C25.1021 9.52997 25.0674 9.7016 24.94 9.78585L24.6846 9.95466C24.5578 10.0384 24.3873 10.004 24.3029 9.87754L23.2978 8.37022C23.2133 8.24347 23.2475 8.07216 23.3743 7.98766L23.6305 7.81691C23.7573 7.73229 23.9287 7.76666 24.0132 7.89354Z" fill="#464655"/>
<path d="M25.5605 10.2207L26.5634 11.7269C26.6477 11.8535 26.6136 12.0245 26.4871 12.109L26.2324 12.2794C26.1056 12.3642 25.934 12.3299 25.8494 12.2029L24.8466 10.6967C24.7622 10.5701 24.7964 10.3991 24.9229 10.3145L25.1776 10.1442C25.3044 10.0594 25.4759 10.0937 25.5605 10.2207Z" fill="#464655"/>
<path d="M8.29512 18.3738L10.8466 22.1993C10.9311 22.326 10.897 22.4972 10.7703 22.5818L10.5147 22.7524C10.388 22.837 10.2166 22.8029 10.1321 22.676L7.58056 18.8505C7.49606 18.7239 7.53025 18.5526 7.65687 18.468L7.91243 18.2974C8.03925 18.2128 8.21056 18.247 8.29512 18.3738Z" fill="#464655"/>
<path d="M7.22398 19.0897L8.22567 20.5922C8.31004 20.7189 8.27604 20.8899 8.14961 20.9745L7.89548 21.1446C7.76879 21.2294 7.59729 21.1954 7.51261 21.0686L6.50961 19.5664C6.42498 19.4397 6.45917 19.2684 6.58586 19.1837L6.84123 19.0132C6.96804 18.9286 7.13942 18.9629 7.22398 19.0897Z" fill="#464655"/>
<path d="M8.77201 21.413L9.77494 22.9194C9.85926 23.046 9.82513 23.217 9.69863 23.3015L9.44376 23.4719C9.31694 23.5567 9.14544 23.5225 9.06088 23.3955L8.05732 21.8895C7.97288 21.7628 8.00707 21.5917 8.13369 21.5071L8.38919 21.3365C8.51601 21.2519 8.68751 21.2861 8.77201 21.413Z" fill="#464655"/>
<path d="M6.15264 19.8055L8.70252 23.6312C8.78696 23.7578 8.75283 23.9289 8.62627 24.0135L8.37145 24.1838C8.2447 24.2686 8.07327 24.2344 7.98864 24.1076L5.43727 20.2824C5.3527 20.1556 5.38695 19.9843 5.51377 19.8998L5.77008 19.7289C5.89683 19.6445 6.06814 19.6788 6.15264 19.8055Z" fill="#464655"/>
<path d="M7.58101 13.1527L10.1321 9.3241C10.2167 9.19722 10.3881 9.16297 10.5149 9.24766L10.7703 9.41822C10.897 9.50279 10.9311 9.67404 10.8466 9.80072L8.29451 13.6271C8.2102 13.7535 8.03951 13.788 7.91276 13.7041L7.65833 13.5357C7.53095 13.4514 7.49633 13.2798 7.58101 13.1527Z" fill="#464655"/>
<path d="M6.50922 12.4386L9.06085 8.60926C9.14541 8.48232 9.31691 8.44813 9.44372 8.53288L9.69854 8.70319C9.82504 8.78775 9.85916 8.95882 9.77479 9.08544L7.22385 12.915C7.13935 13.0419 6.96791 13.0762 6.8411 12.9915L6.5856 12.8209C6.45897 12.7364 6.42479 12.5653 6.50922 12.4386Z" fill="#464655"/>
<path d="M5.43691 11.7266L7.98873 7.89352C8.07329 7.76652 8.24485 7.73227 8.37166 7.81708L8.62648 7.98746C8.75291 8.07202 8.7871 8.24296 8.70285 8.36958L6.15254 12.2032C6.0681 12.3301 5.89673 12.3645 5.76985 12.28L5.51354 12.1091C5.38679 12.0246 5.35248 11.8534 5.43691 11.7266Z" fill="#464655"/>
<path d="M21.1558 22.2001L22.1588 20.6979C22.2435 20.5711 22.415 20.537 22.5418 20.6218L22.7959 20.792C22.9223 20.8767 22.9563 21.0477 22.872 21.1743L21.8702 22.6768C21.7857 22.8036 21.6143 22.8378 21.4875 22.7532L21.2322 22.5827C21.1054 22.4981 21.0712 22.3268 21.1558 22.2001Z" fill="#464655"/>
<path d="M22.7027 19.8837L23.7073 18.374C23.7917 18.2471 23.9631 18.2128 24.09 18.2973L24.346 18.468C24.4728 18.5525 24.507 18.724 24.4223 18.8507L23.4156 20.358C23.3313 20.4843 23.1605 20.5187 23.0338 20.4347L22.78 20.2665C22.6528 20.1822 22.6182 20.0107 22.7027 19.8837Z" fill="#464655"/>
<path d="M22.2267 22.9191L23.2304 21.413C23.3149 21.2862 23.4862 21.2519 23.613 21.3364L23.8695 21.5075C23.9962 21.592 24.0305 21.7631 23.946 21.8899L22.9431 23.3962C22.8587 23.523 22.6874 23.5574 22.5606 23.4729L22.3034 23.3017C22.1766 23.2173 22.1422 23.046 22.2267 22.9191Z" fill="#464655"/>
<path d="M23.775 20.592L24.7792 19.0894C24.8637 18.9628 25.0349 18.9287 25.1615 19.0132L25.4178 19.184C25.5447 19.2686 25.5789 19.44 25.4942 19.5668L24.4901 21.0695C24.4055 21.196 24.2344 21.2302 24.1077 21.1457L23.8513 20.9748C23.7245 20.8902 23.6903 20.7188 23.775 20.592Z" fill="#464655"/>
<path d="M23.2982 23.63L24.3029 22.1265C24.3872 22.0003 24.5577 21.966 24.6843 22.0497L24.9398 22.2185C25.0673 22.3027 25.102 22.4745 25.0172 22.6017L24.0133 24.1072C23.9288 24.2339 23.7575 24.2682 23.6307 24.1837L23.3745 24.0129C23.2477 23.9283 23.2135 23.7568 23.2982 23.63Z" fill="#464655"/>
<path d="M24.847 21.3109L25.8493 19.8056C25.9338 19.6786 26.1054 19.6444 26.2322 19.7292L26.4867 19.8993C26.6133 19.9839 26.6473 20.1551 26.5628 20.2818L25.5598 21.7851C25.4755 21.9115 25.3046 21.9459 25.178 21.8619L24.9243 21.6937C24.7971 21.6095 24.7625 21.4379 24.847 21.3109Z" fill="#464655"/>
</svg>
