<svg width="32" height="32" viewBox="0 0 32 32" fill="none" xmlns="http://www.w3.org/2000/svg">
<g clip-path="url(#clip0_64_6841)">
<path fill-rule="evenodd" clip-rule="evenodd" d="M18.1396 2.52547C21.4228 2.98734 24.448 4.50566 26.7855 6.89341C29.5032 9.66961 31 13.3257 31 17.1881C31 21.1448 29.4397 24.8646 26.6066 27.6624C23.7734 30.4602 20.0067 32.001 16 32.001C11.9933 32.001 8.22656 30.4601 5.39341 27.6625C2.56027 24.8646 1 21.1448 1 17.1881C1 14.0716 1.96896 11.0897 3.8022 8.56498C5.59575 6.09491 8.06929 4.25141 10.9555 3.23384C11.4492 3.05978 11.9925 3.31391 12.1688 3.80153C12.345 4.28922 12.0877 4.8256 11.5939 4.99972C9.07331 5.88835 6.91261 7.49904 5.34525 9.65761C3.74467 11.8619 2.89868 14.4659 2.89868 17.1881C2.89868 24.322 8.77597 30.126 16 30.126C23.224 30.126 29.1013 24.322 29.1012 17.188C29.1012 13.8146 27.794 10.6213 25.4203 8.19654C23.5383 6.27404 21.146 4.99691 18.5376 4.49285L19.0753 5.02379C19.446 5.38991 19.446 5.98354 19.0753 6.3496C18.89 6.53266 18.6469 6.62423 18.404 6.62423C18.1611 6.62423 17.9182 6.53266 17.7328 6.3496L15.3287 3.97547C14.9579 3.60934 14.9579 3.01572 15.3287 2.64965L17.7329 0.275524C18.1036 -0.0905393 18.7047 -0.0905393 19.0754 0.275524C19.4462 0.64165 19.4462 1.23521 19.0754 1.60134L18.1396 2.52547ZM16 26.8203C10.6217 26.8203 6.24614 22.4993 6.24614 17.1881C6.24614 11.8768 10.6216 7.55573 16 7.55573C21.3783 7.55573 25.7539 11.8769 25.7539 17.1881C25.7539 22.4993 21.3783 26.8203 16 26.8203ZM13.8501 16.7245C14.4245 17.1694 15.2163 17.5454 16.5828 18.0225C17.4504 18.3254 17.4319 19.0173 17.3835 19.3007C17.2847 19.8809 16.7904 20.508 15.9385 20.5136C15.0732 20.5196 14.8247 20.4806 14.1676 20.056C13.7289 19.7726 13.1404 19.8939 12.8534 20.3273C12.5664 20.7606 12.6894 21.3417 13.1281 21.6251C13.8369 22.083 14.3639 22.2751 14.9955 22.3484V22.7051C14.9955 23.2228 15.4205 23.6426 15.9448 23.6426C16.4691 23.6426 16.8942 23.2228 16.8942 22.7051V22.2562C17.3803 22.1177 17.8238 21.8722 18.2043 21.5269C18.7577 21.0248 19.1311 20.3446 19.2559 19.6116C19.5101 18.1185 18.6901 16.7694 17.2155 16.2547C16.4094 15.9733 15.5184 15.6337 15.0218 15.2492C14.8792 15.1388 14.8187 14.8794 14.8713 14.6037C14.898 14.4642 15.0221 13.9979 15.5019 13.8551C16.314 13.6135 16.8688 13.9327 17.0698 14.0811C17.4899 14.3911 18.0846 14.3063 18.3986 13.8916C18.7125 13.4768 18.6266 12.8894 18.2067 12.5793C18.0196 12.4412 17.557 12.142 16.8942 11.9887V11.6709C16.8942 11.1532 16.4691 10.7334 15.9448 10.7334C15.4205 10.7334 14.9955 11.1532 14.9955 11.6709V12.0484C14.9891 12.0503 14.9828 12.052 14.9765 12.0537C14.9691 12.0557 14.9617 12.0576 14.9542 12.0599C13.9539 12.3574 13.2073 13.1992 13.0055 14.2566C12.8195 15.2312 13.1431 16.1769 13.8501 16.7245Z" fill="#222939"/>
</g>
<defs>
<clipPath id="clip0_64_6841">
<rect width="32" height="32" fill="white"/>
</clipPath>
</defs>
</svg>