<svg width="142" height="56" viewBox="0 0 142 56" fill="none" xmlns="http://www.w3.org/2000/svg">
    <path d="M0 15h14.116v4.558h-7.73v3.208h6.554v4.221H6.386v3.377h8.066v4.22H0V15zM34.114 28.338H22.518c.168 1.013.337 1.688.673 2.026.504.675 1.344 1.013 2.184 1.013.504 0 1.177-.17 1.68-.507.337-.169.673-.506 1.009-1.013l5.714.507c-.84 1.52-1.849 2.7-3.193 3.376-1.345.675-3.025 1.013-5.378 1.013-2.016 0-3.529-.337-4.705-.844-1.176-.506-2.017-1.52-2.857-2.701a8.945 8.945 0 0 1-1.176-4.39c0-2.364.672-4.39 2.184-5.74 1.849-1.52 3.865-2.195 6.554-2.195 2.185 0 3.865.338 5.041 1.013a7.783 7.783 0 0 1 2.857 2.87c.673 1.182 1.009 2.87 1.009 4.896v.676zm-5.882-2.87c-.168-1.182-.336-1.858-.84-2.364-.504-.507-1.177-.675-1.849-.675-.84 0-1.68.337-2.184 1.181-.505.338-.673 1.013-.84 1.858h5.713zM80.999 28.338H69.403c.169 1.013.337 1.688.673 2.026.504.675 1.344 1.013 2.184 1.013.504 0 1.177-.17 1.68-.507.337-.169.673-.506 1.01-1.013l5.713.507c-.84 1.52-1.849 2.7-3.193 3.376-1.345.675-3.025 1.013-5.378 1.013-2.016 0-3.529-.337-4.705-.844-1.176-.506-2.017-1.52-2.857-2.701a8.945 8.945 0 0 1-1.176-4.39c0-2.364.672-4.39 2.184-5.74 1.849-1.52 3.865-2.195 6.554-2.195 2.185 0 3.865.338 5.042 1.013a7.784 7.784 0 0 1 2.856 2.87c.673 1.182 1.009 2.87 1.009 4.896v.676zm-5.882-2.87c-.168-1.182-.336-1.858-.84-2.364-.504-.507-1.176-.675-1.849-.675-.84 0-1.68.337-2.184 1.181-.504.338-.672 1.013-.84 1.858h5.713zM36.802 19.39H50.75v3.376l-7.562 7.767h7.898v3.883H36.13V30.7l7.226-7.428h-6.554V19.39zM53.271 15h6.554v3.377H54.95c-1.344 0-1.68-3.377-1.68-3.377zm2.017 4.22h4.537v15.364h-4.37s-1.848-.168-1.848-1.857V21.416c0-1.52 1.68-2.195 1.68-2.195z" fill="#000"/>
    <path d="M84.528 15h10.587c2.352 0 4.033.507 5.209 1.52 1.177 1.012 1.681 2.532 1.681 4.39 0 2.025-.672 3.544-1.849 4.558-1.176 1.012-3.193 1.688-5.713 1.688h-3.53v7.26h-6.385V15zm6.554 8.273h1.512c1.176 0 2.185-.17 2.689-.676.504-.337.672-.844.672-1.52 0-.674-.168-1.18-.672-1.519-.504-.337-1.177-.675-2.353-.675h-1.848v4.39zM109.903 23.948l-5.882-.506c.168-1.013.504-1.689 1.009-2.195.336-.507 1.008-1.013 1.848-1.52.504-.337 1.344-.675 2.353-.844 1.008-.169 2.016-.169 3.193-.169 1.848 0 3.361.17 4.369.338 1.176.169 2.016.675 2.689 1.182.504.337.84 1.013 1.176 1.688.336.844.504 1.52.504 2.195v6.584c0 .676 0 1.182.168 1.689.168.337.336.844.672 1.52h-5.713c-.168-.338-.336-.676-.504-.845-.168-.169-.168-.506-.168-1.013-.841.675-1.513 1.182-2.353 1.52-1.008.337-2.353.675-3.697.675-1.849 0-3.361-.338-4.369-1.182-1.009-.844-1.513-1.857-1.513-3.039 0-1.182.336-2.026 1.008-2.87.673-.675 2.017-1.35 3.866-1.688 2.352-.507 3.697-.676 4.369-.845.672-.168 1.344-.337 2.184-.675 0-.675-.168-1.182-.504-1.52-.336-.337-.84-.506-1.68-.506-1.009 0-1.681.169-2.185.507-.336.337-.504.844-.84 1.52zm5.209 3.04c-.84.337-1.68.506-2.688.674-1.177.338-2.017.676-2.353.845-.336.337-.504.675-.504 1.012 0 .507.168.845.504 1.182.336.338.84.507 1.512.507.673 0 1.345-.169 1.849-.507.504-.337 1.008-.675 1.176-1.181.168-.507.336-1.013.336-1.689v-.844h.168zM123.347 19.052h6.386l3.192 10.299 3.025-10.299H142l-6.218 16.714c-.672 1.857-1.512 3.208-2.184 3.883-1.009 1.013-2.689 1.351-4.874 1.351-.84 0-2.184-.169-4.033-.338l-.504-4.22c.84.337 1.848.337 2.857.337.672 0 1.344-.169 1.68-.506.336-.338.84-.844 1.177-1.689l-6.554-15.532z" fill="#E90B29"/>
</svg>