<svg width="131" height="56" viewBox="0 0 131 56" xmlns="http://www.w3.org/2000/svg">
    <path fill="#B5B5B5" d="M20.799 19.716H7.916l-1.087 5.42h4.812l-.776 3.716H6.209l-2.173 9.91H0L4.656 16h16.919l-.776 3.716zm43.149 15.33h-3.26l1.087-5.42h-1.863l-1.086 5.42h-3.26l2.173-11.304c.156-.93.777-1.548 1.863-2.168.931-.31 1.863-.62 2.794-.62 1.086 0 1.862.156 2.638.62.932.465 1.242 1.239 1.087 2.168l-2.173 11.303zm-1.863-7.123.776-4.336c.156-.62-.155-.929-.776-.929-.62 0-.93.31-1.086.93l-.776 4.335h1.862zm-6.053.619c.31-.465.62-.929.62-1.239l.932-3.561c.155-.929-.155-1.703-1.086-2.168-.776-.31-6.985-.155-6.985-.155l-2.639 13.626h3.26l.931-4.645h.621c1.863 0 3.415-.62 4.346-1.858zm-3.725-4.955s2.018-.464 1.862.93c-.155.464-.62 3.096-.62 3.096-.156.774-.932 1.239-2.173 1.239l.93-5.265zM16.918 38.761h4.036l2.794-14.09c.155-1.239-.31-2.013-1.397-2.632-.931-.31-2.018-.62-3.26-.62-1.397 0-2.483.155-3.57.62-1.241.62-2.017 1.548-2.328 2.632l-2.638 14.09h4.035l1.242-6.658h2.328l-1.242 6.658zm2.794-14.09-1.086 5.265h-2.484l1.087-5.265c.155-.774.62-1.084 1.397-1.084.776 0 1.086.31 1.086 1.084zm14.59 2.787.466-2.013c.31-1.548 0-2.632-.621-3.251-.45-.27-1.057-.487-1.82-.622l.578-2.475H29.49l-.562 2.402c-2.471.287-3.857 1.344-4.25 3.172l-.465 2.013c-.155.929.155 2.013 1.087 2.942l2.638 2.322c.932.93 1.397 1.704 1.242 2.323l-.31 1.394c-.155.929-.621 1.393-1.552 1.393-.777 0-1.087-.464-.932-1.084l.621-3.251h-4.19l-.466 2.322c-.377 2.258.468 3.602 2.701 4.03l-.218.925h3.26l.198-.842c2.638-.268 4.06-1.329 4.458-3.184l.31-2.322c.156-.93-.155-1.858-1.086-2.787l-2.639-2.323c-.93-.93-1.241-1.858-1.086-3.097l.155-.929c.063-.311.175-.573.338-.774h1.936c.208.383.226 1.002.054 1.858l-.31 1.858h3.88zm12.107-3.406h-3.415L40.2 38.762h-4.035l2.794-14.71h-3.57l.465-2.168h11.02l-.465 2.168zm24.99 5.884 4.966-8.517H73.26l-2.95 6.04-.62-6.04h-3.26l1.552 8.517-.93 5.11h3.414l.931-5.11zm-26.232 6.658h81.177l-.466 2.477H44.701l.466-2.477zm82.263-3.562H75.123l-.465 2.478h52.306l.466-2.478zm-51.22-3.716h52.307l-.311 2.478H75.744l.466-2.478zm53.393-3.716H77.296l-.31 2.323h52.307l.31-2.323zm-50.91-4.026H131l-.466 2.478H78.228l.465-2.478z"/>
</svg>