<svg width="213" height="56" viewBox="0 0 213 56" fill="none" xmlns="http://www.w3.org/2000/svg">
    <path fill-rule="evenodd" clip-rule="evenodd" d="M33.845 29.548c.226.233.452.233.677.233 0 2.561.452 4.425 1.128 5.822h-.225c-.451 0-1.128-.233-1.354-.699-.226.466-.903.699-1.354.699-.451 0-1.128-.466-1.354-.932-.225.466-.902.699-1.354.699-.45 0-1.128-.466-1.353-.932-.226.699-.677.932-1.354.932s-1.128-.466-1.354-1.164c-.226.465-.677.931-1.354.931s-1.354-.699-1.354-1.397c0-.699.452-1.398 1.129-1.398-.677 0-1.128-.698-1.128-1.397 0-.698.45-1.397 1.128-1.397-.677 0-1.128-.699-1.128-1.397 0-.699.45-1.398 1.128-1.398-.677 0-1.128-.698-1.128-1.397 0-.699.45-1.397 1.128-1.397-.677 0-1.128-.699-1.128-1.397 0-.699.676-1.398 1.353-1.398.677 0 1.128.466 1.58 1.165.225-.699.677-1.165 1.354-1.165.45 0 .902.233 1.353.699.226-.466.677-.931 1.354-.931s1.128.232 1.354.698c.226-.466.677-.931 1.354-.931s1.128.232 1.354.698c.225-.465.677-.698 1.353-.698.452 0 1.129.232 1.354.698a1.236 1.236 0 0 1 1.128-.698c-1.353 1.63-3.384 4.657-3.61 8.616l-.225-.233c-.087.09-.14.178-.185.254-.074.123-.127.212-.267.212zM34.502 24c-.12-.076-.205-.131-.205-.275-.113 0-.17.058-.226.116-.056.059-.113.117-.226.117.226.233.226.233.452.698l.45-.465a1.261 1.261 0 0 0-.245-.191zm0 2.794c-.12-.076-.205-.13-.205-.275-.113 0-.17.059-.226.117-.056.058-.113.116-.226.116.113.117.17.233.226.35.056.116.113.233.226.349.086-.089.14-.178.185-.254.073-.123.126-.212.266-.212-.086-.089-.172-.144-.246-.19zM26.85 23.96c-.452-.233-.677-.466-.903-.932 0 .466-.451.932-1.128.932.451 0 .902.466 1.128.931.226-.465.451-.698.903-.931zm0 2.794c-.452-.233-.677-.465-.903-.931 0 .698-.451.931-1.128.931.451 0 .902.466 1.128.932.226-.466.451-.699.903-.932zm-2.031 5.822c.451 0 .902.466 1.128.932.226-.466.451-.932.903-.932-.452-.233-.677-.465-.903-.931-.226.466-.677.931-1.128.931zm0-2.794c.451 0 .902.466 1.128.931.226-.465.451-.931.903-.931-.452-.233-.677-.466-.903-.932-.226.466-.677.932-1.128.932zm4.513-5.822-.677-.699c0 .466-.226.699-.677.699l.677.698.677-.698zm0 2.794-.677-.698c0 .465-.226.698-.677.698l.677.699.677-.699zm-1.354 5.822.677.699c.225-.466.451-.699.677-.699l-.677-.698-.677.698zm0-2.794.677.698c.225-.465.451-.698.677-.698l-.677-.699-.677.699zm3.425 3.006a1.3 1.3 0 0 0 .185.254c0-.233.226-.466.451-.466-.14 0-.192-.089-.266-.212-.046-.075-.099-.164-.185-.253 0 .144-.086.199-.205.274-.074.047-.16.102-.246.191.14 0 .192.09.266.212zm0-2.794c.046.076.099.165.185.254 0-.233.226-.466.451-.466-.14 0-.192-.09-.266-.212-.046-.076-.099-.165-.185-.254 0 .144-.086.199-.205.275-.074.047-.16.102-.246.19.14 0 .192.09.266.213zm0-2.795c.046.076.099.165.185.254 0-.233.226-.466.451-.466-.14 0-.192-.089-.266-.212-.046-.076-.099-.165-.185-.254 0 .145-.086.2-.205.275-.074.047-.16.102-.246.191.14 0 .192.09.266.212zm0-2.794c.046.076.099.165.185.253 0-.232.226-.465.451-.465-.14 0-.192-.09-.266-.212-.046-.076-.099-.165-.185-.254 0 .144-.086.199-.205.275-.074.047-.16.102-.246.19.14 0 .192.09.266.213zm2.852 8.383c.074-.123.127-.212.266-.212 0-.116-.056-.174-.113-.233-.056-.058-.112-.116-.112-.232-.087.089-.14.178-.185.253-.074.123-.127.212-.267.212.226 0 .226.233.226.466.086-.089.14-.178.185-.254zm-13.723-9.992c0-.699.677-1.398 1.354-1.398s1.353.466 1.353 1.398c0 .694-.668 1.388-1.34 1.397.672.006 1.34.471 1.34 1.397 0 .694-.667 1.388-1.34 1.397.673.01 1.34.704 1.34 1.397 0 .699-.676 1.398-1.353 1.398-.677 0-1.354-.699-1.354-1.398 0-.693.667-1.387 1.34-1.397-.673-.01-1.34-.703-1.34-1.397 0-.695.669-1.39 1.342-1.397-.673-.008-1.342-.703-1.342-1.397zm1.359 9.78c.745-.003 1.348-.627 1.348-1.397 0-.772-.606-1.397-1.353-1.397-.748 0-1.354.625-1.354 1.397 0 .77.603 1.394 1.348 1.397-.745.003-1.348.628-1.348 1.398 0 .771.606 1.397 1.354 1.397.747 0 1.353-.626 1.353-1.397 0-.77-.603-1.395-1.348-1.398zm-2.713-11.178c-.677 0-1.128.466-1.128 1.165 0 .698.451 1.164 1.128 1.164.677 0 1.128-.466 1.128-1.164 0-.699-.451-1.165-1.128-1.165zm-1.128 3.96c0-.7.451-1.165 1.128-1.165.677 0 1.128.698 1.128 1.164 0 .699-.451 1.164-1.128 1.164-.677 0-1.128-.465-1.128-1.164zm1.128 4.191c.623 0 1.128-.521 1.128-1.164 0-.643-.505-1.165-1.128-1.165-.623 0-1.128.522-1.128 1.165s.505 1.164 1.128 1.164zm1.128 1.63c0 .643-.505 1.164-1.128 1.164-.623 0-1.128-.52-1.128-1.164 0-.643.505-1.164 1.128-1.164.623 0 1.128.521 1.128 1.164zm-1.128 3.959c.623 0 1.128-.522 1.128-1.165s-.505-1.164-1.128-1.164c-.623 0-1.128.521-1.128 1.164 0 .643.505 1.165 1.128 1.165zm-3.836-12.343c0-.698.451-1.164 1.128-1.164.677 0 1.128.466 1.128 1.164 0 .699-.45 1.165-1.128 1.165-.677 0-1.128-.466-1.128-1.165zm1.128 1.63c-.677 0-1.128.466-1.128 1.165 0 .699.451 1.164 1.128 1.164.677 0 1.128-.465 1.128-1.164 0-.699-.45-1.165-1.128-1.165zm-1.128 3.96c0-.699.451-1.165 1.128-1.165.677 0 1.128.466 1.128 1.165 0 .698-.45 1.164-1.128 1.164-.677 0-1.128-.466-1.128-1.164zm1.128 1.63c-.677 0-1.128.465-1.128 1.164 0 .699.451 1.164 1.128 1.164.677 0 1.128-.465 1.128-1.164 0-.699-.45-1.164-1.128-1.164zm-1.128 3.958c0-.698.451-1.164 1.128-1.164.677 0 1.128.466 1.128 1.164 0 .699-.45 1.165-1.128 1.165-.677 0-1.128-.466-1.128-1.165zm-1.58-12.342c-.45 0-.902.466-.902.931 0 .7.451.932.903.932.451 0 .902-.466.902-.931 0-.466-.451-.932-.902-.932zm-.902 3.726c0-.466.451-.932.903-.932.451 0 .902.466.902.932s-.451.931-.902.931-.903-.465-.903-.931zm.903 1.863c-.451 0-.903.466-.903.932s.451.931.903.931c.451 0 .902-.465.902-.931s-.451-.932-.902-.932zm-.903 3.959c0-.466.451-.931.903-.931.451 0 .902.465.902.931s-.451.931-.902.931-.903-.465-.903-.931zm.903 1.863c-.451 0-.903.466-.903.932 0 .465.451.931.903.931.451 0 .902-.466.902-.931 0-.466-.451-.932-.902-.932zm-3.385-10.48c0-.232.226-.698.677-.698.451 0 .677.233.677.699 0 .465-.226.931-.677.931-.451 0-.902-.466-.677-.931zm.677 2.096c-.451 0-.677.466-.677.7 0 .465.451.698.677.698.451.233.677-.233.677-.699 0-.466-.226-.699-.677-.699zm.677 3.727a.688.688 0 0 1-.677.698.688.688 0 0 1-.677-.698c0-.386.303-.7.677-.7.374 0 .677.314.677.7zm-.677 3.493a.688.688 0 0 0 .677-.699.688.688 0 0 0-.677-.699.688.688 0 0 0-.677.699c0 .386.303.699.677.699zm.677 2.096a.688.688 0 0 1-.677.698.688.688 0 0 1-.677-.698c0-.386.303-.7.677-.7.374 0 .677.314.677.7zm-3.384-12.11c-.452 0-.677.233-.677.699 0 .465.225.698.677.698.45 0 .676-.233.676-.698-.075-.078-.15-.181-.225-.285-.15-.207-.301-.414-.451-.414zm-.677 3.726c0-.466.225-.699.677-.699.225 0 .45 0 .45.466s0 .932-.45.932c-.452 0-.677-.233-.677-.7zm.677 3.493a.688.688 0 0 0 .676-.698.688.688 0 0 0-.676-.7.688.688 0 0 0-.677.7c0 .385.303.698.677.698zm.676 2.096a.688.688 0 0 1-.676.699.688.688 0 0 1-.677-.699c0-.386.303-.699.677-.699.373 0 .676.313.676.699zm-.676 3.493a.688.688 0 0 0 .676-.698.688.688 0 0 0-.676-.7.688.688 0 0 0-.677.7c0 .385.303.698.677.698zm-3.16-12.11c0-.232.226-.465.452-.465s.451.233.451.466c0 .232-.225.465-.451.465s-.451-.233-.451-.465zm.452 3.26c.25 0 .451-.208.451-.465a.459.459 0 0 0-.451-.466.459.459 0 0 0-.451.466c0 .257.202.466.45.466zm.451 2.563a.459.459 0 0 1-.451.465.459.459 0 0 1-.451-.465c0-.258.202-.466.45-.466.25 0 .452.208.452.466zm-.451 3.26c.25 0 .451-.209.451-.466a.459.459 0 0 0-.451-.466.459.459 0 0 0-.451.466c0 .257.202.466.45.466zm.451 2.329a.459.459 0 0 1-.451.465.459.459 0 0 1-.451-.465c0-.258.202-.466.45-.466.25 0 .452.209.452.466zM2.708 22.329s-.226 0-.226.232c0 .233.226.233.226.233l.226-.233c.226-.232 0-.232-.226-.232zm-.226 3.027.226-.233c.226 0 .226.466.226.466l-.226.233-.226-.466zm.226 2.562s-.226.233-.226.466c0 .232.226.232.226.232l.226-.232s0-.466-.226-.466zm.226 3.26a.23.23 0 0 1-.226.233.23.23 0 0 1-.226-.233.23.23 0 0 1 .226-.233.23.23 0 0 1 .226.233zm-.226 3.027a.23.23 0 0 0 .226-.232.23.23 0 0 0-.226-.233.23.23 0 0 0-.226.233.23.23 0 0 0 .226.233zM.204 22.736c-.025.011-.081-.046-.204-.173h.225c0 .106 0 .164-.02.173zM0 25.356c.123.127.179.185.204.173.021-.009.021-.067.021-.173H0zm.452 3.027s-.226.233-.452 0c.113-.116.17-.174.226-.174.056 0 .113.058.226.175zM0 31.178c.226.233.452 0 .452 0s-.226-.233-.452 0zm.452 2.795s-.226.233-.452 0c.113-.117.17-.175.226-.175.056 0 .113.058.226.175z" fill="#42B2FD"/>
    <path d="M50.091 31.644c-.451.931-.903 1.63-1.58 2.096l1.354 1.63L48.06 37l-1.58-1.863c-.676.233-1.127.466-1.579.699-.677.233-1.58.233-2.482.233-2.03 0-3.384-.7-4.512-1.864-1.354-1.397-1.805-3.493-1.354-6.287.902-2.329 2.03-4.425 3.836-6.055C41.969 20.699 43.547 20 45.353 20c1.805 0 3.384.699 4.512 1.863 1.354 1.397 1.58 3.493 1.354 6.055a11.993 11.993 0 0 1-1.128 3.726zm-5.867 1.863c.226 0 .452-.233.677-.233l-1.354-1.397 1.806-1.63 1.353 1.397.677-1.397c.226-.466.452-1.165.452-1.863.225-1.63.225-3.028-.452-3.96-.45-.93-1.354-1.397-2.707-1.397-1.129 0-2.257.466-3.16 1.398-.902.931-1.353 2.328-1.804 3.959-.452 2.096 0 3.726.902 4.424.677.699 1.354.932 2.257.932.676 0 .902 0 1.353-.233zM54.604 20.698h3.159l-1.58 9.316c-.225 1.164-.225 1.863 0 2.328.226.932.903 1.398 2.257 1.398 1.353 0 2.03-.466 2.707-1.398.226-.465.451-1.164.677-2.328l1.58-9.316h3.158l-1.579 9.548c-.226 1.63-.677 2.795-1.354 3.726-1.128 1.63-2.933 2.562-5.64 2.562-2.483 0-4.062-.931-4.74-2.562-.225-.931-.45-2.095 0-3.726l1.355-9.547zM69.496 36.068h-3.16l2.483-15.37h3.159l-2.482 15.37zM75.814 22.329c1.353-1.165 2.933-1.863 4.738-1.863 2.482 0 4.061.931 4.964 2.561.451.932.677 1.863.451 2.795h-3.159c0-.699-.225-1.397-.451-1.63-.451-.699-1.128-.932-2.256-.932-1.129 0-2.031.466-2.934 1.398a8.996 8.996 0 0 0-1.58 3.958c-.225 1.63-.225 3.028.452 3.96.451.93 1.354 1.397 2.257 1.397 1.128 0 2.03-.466 2.707-1.165.451-.465.677-.931 1.128-1.863h3.16c-.452 1.63-1.355 3.028-2.708 4.192-1.354 1.164-2.708 1.63-4.513 1.63-2.03 0-3.61-.698-4.513-2.096-.902-1.397-1.354-3.26-.902-5.822.45-3.027 1.58-5.123 3.159-6.52zM89.352 20.698h2.933l-1.128 6.288 6.769-6.288h4.061l-6.994 6.288 4.964 9.082h-4.062l-3.385-6.753-1.805 1.63-.902 5.123H86.87l2.482-15.37z" fill="#40AAF4"/>
    <path d="m119.812 20.698-.451 2.795h-4.287l-2.031 12.575h-2.933l1.805-12.575h-4.287l.451-2.794h11.733zM130.417 21.164c.452.233.903.699 1.128 1.165.226.465.452.931.452 1.397v1.63c-.226.699-.452 1.397-.903 2.096-.451.698-1.128 1.164-2.031 1.397.677.233 1.129.699 1.129 1.165.225.465.225 1.397 0 2.328l-.226.932c0 .698-.226 1.164-.226 1.397 0 .466.226.699.452.932v.465h-3.385V33.74l.226-1.398c.225-.931 0-1.63-.226-1.863-.226-.233-.902-.465-1.579-.465h-2.934l-.902 6.054h-2.933l2.482-15.37h6.769c1.579 0 2.256.233 2.707.466zm-6.543 2.096-.677 4.192h3.384c.677 0 1.129 0 1.58-.233.677-.233.902-.931 1.128-1.63.226-.932 0-1.63-.451-1.863-.226-.233-.677-.233-1.354-.233h-3.61v-.233zM139.668 20.698h3.385l2.708 15.37h-3.385l-.451-3.26h-5.19l-1.579 3.26h-3.159l7.671-15.37zm-1.805 9.548h3.611l-.903-6.054-2.708 6.054zM149.596 20.698h3.159l4.062 10.713 1.805-10.713h2.707l-2.482 15.37h-2.933l-4.061-10.945-1.805 10.945h-2.708l2.256-15.37zM164.488 31.178c0 .699 0 1.165.226 1.63.451.699 1.128.932 2.482.932.677 0 1.354 0 1.805-.233.903-.233 1.354-.932 1.58-1.863 0-.466 0-.932-.452-1.164a7.481 7.481 0 0 0-1.805-.7l-1.579-.465c-1.58-.466-2.482-.699-2.934-1.164-.902-.699-1.128-1.863-.902-3.26.226-1.398.902-2.562 2.031-3.494 1.128-.931 2.482-1.397 4.287-1.397 1.579 0 2.707.466 3.61 1.397.902.932 1.354 2.096 1.128 3.726h-2.933c0-.931-.226-1.63-.903-1.863-.451-.233-.902-.466-1.805-.466-.902 0-1.354.233-2.031.466-.451.233-.902.699-.902 1.397 0 .466 0 .932.451 1.165.226.233.903.466 1.805.698l2.482.7c1.128.232 1.805.698 2.257 1.164.677.698.902 1.863.677 3.027-.226 1.397-.903 2.562-2.031 3.493-1.128.932-2.708 1.397-4.513 1.397-1.805 0-3.384-.465-4.287-1.397-.903-.931-1.354-2.096-1.128-3.726h3.384zM177.124 20.698h10.154l-.452 2.795h-7.22l-.451 3.493h6.317l-.451 2.562h-6.318l-1.128 6.52h-2.933l2.482-15.37zM199.236 23.493h-7.671l-.452 3.26h6.995l-.451 2.562h-6.995l-.677 3.959h7.897l-.451 2.794h-10.83l2.482-15.37h10.604l-.451 2.795zM211.421 21.164c.451.233.902.699 1.128 1.165.225.465.451.931.451 1.397v1.63c-.226.699-.451 1.397-.903 2.096-.451.698-1.128 1.164-2.03 1.397.677.233 1.128.699 1.128 1.165.226.465.226 1.397 0 2.328l-.226.932c0 .698-.225 1.164-.225 1.397 0 .466.225.699.451.932v.465h-3.385V33.74l.226-1.398c.226-.931 0-1.63-.226-1.863-.225-.233-.902-.465-1.579-.465h-2.933l-.903 6.054h-2.933l2.482-15.37h6.769c1.354 0 2.031.233 2.708.466zm-6.77 2.096-.676 4.192h3.158c.677 0 1.129 0 1.58-.233.677-.233.902-.931 1.128-1.63.226-.932 0-1.63-.451-1.863-.226-.233-.677-.233-1.354-.233h-3.385v-.233z" fill="#CD4642"/>
</svg>