<svg width="101" height="56" viewBox="0 0 101 56" fill="none" xmlns="http://www.w3.org/2000/svg">
    <path d="M85.08 28.857c-1.212-1.44-2.752-2.153-4.62-2.153-1.857 0-3.384.713-4.609 2.14-1.111 1.305-1.667 2.853-1.667 4.63 0 1.79.581 3.352 1.755 4.698 1.175 1.346 2.677 2.005 4.508 2.005.467 0 .921-.04 1.338-.134v-2.867a3.403 3.403 0 0 1-1.338.255 3.438 3.438 0 0 1-1.819-.498 3.474 3.474 0 0 1-1.313-1.426 4.19 4.19 0 0 1-.492-2.006c0-1.104.354-2.06 1.073-2.84.72-.78 1.566-1.171 2.55-1.171.998 0 1.844.39 2.563 1.171.707.78 1.073 1.723 1.073 2.827v7.066h2.652v-7.08c0-1.763-.556-3.311-1.654-4.617zM88.45 26.758h3.043l3.08 7.928 3.397-7.928H101L93.59 44H90.52l2.437-5.559-4.507-11.683zM64.779 12.005h-10.68c-1.01 0-1.175.97-1.175.97l-1.376 9.745s-.038.282-.114.794c1.844-1.992 4.596-3.406 8.724-3.406v-2.826l8.118 5.37v.97l-8.118 6.191v-2.611c-5.012 0-8.067 2.113-9.873 4.253-.48 3.298-.96 6.488-1.123 7.417-.366 2.153.96 1.87.96 1.87h5.529c1.704 0 1.755-.901 1.755-2.382 0-2.894 1.59-2.665 1.59-2.665h3.851s12.36-.39 12.36-12.343C75.195 11.386 64.78 12.005 64.78 12.005z" fill="#3164FF"/>
    <path d="M4.356 24.321H0v-1.669h10.605v1.683h-4.38V39.72h-1.87V24.32zM21.437 26.758h1.528v5.895c0 1.44.076 2.423.215 2.975.214.767.63 1.386 1.25 1.83.618.445 1.35.673 2.196.673.846 0 1.566-.215 2.159-.66.593-.43.997-1.009 1.225-1.722.151-.485.227-1.521.227-3.096v-5.895h1.553v6.191c0 1.736-.19 3.056-.568 3.93a4.567 4.567 0 0 1-1.717 2.073c-.77.498-1.73.754-2.879.754s-2.12-.256-2.891-.754c-.77-.498-1.35-1.198-1.73-2.086-.378-.888-.568-2.234-.568-4.038v-6.07zM44.604 35.197l1.288.713c-.417.889-.91 1.589-1.465 2.14a5.831 5.831 0 0 1-1.868 1.239c-.694.283-1.477.417-2.348.417-1.932 0-3.447-.673-4.533-2.019-1.085-1.346-1.628-2.88-1.628-4.576 0-1.602.467-3.029 1.388-4.28 1.174-1.589 2.74-2.396 4.697-2.396 2.02 0 3.636.82 4.835 2.45.859 1.157 1.288 2.597 1.313 4.32H35.628c.025 1.467.467 2.665 1.313 3.607.846.943 1.893 1.414 3.143 1.414.606 0 1.187-.108 1.755-.337.568-.229 1.06-.525 1.452-.888.417-.39.846-.983 1.313-1.804zm0-3.405c-.202-.862-.505-1.562-.884-2.073a4.083 4.083 0 0 0-1.54-1.252 4.422 4.422 0 0 0-2.02-.471 4.19 4.19 0 0 0-2.992 1.198c-.606.579-1.073 1.454-1.389 2.611h8.825v-.013z" fill="#FFB300"/>
    <path d="M60.145 26.152s-11.514-.04-12.284 9.745c0 0-1.464-15.789 12.285-15.789v-2.826l8.117 5.37-8.118 6.07v-2.57z" fill="url(#dvpoyeyj4a)"/>
    <path d="M60.145 26.152s-11.514-.04-12.284 9.745c0 0-1.464-15.789 12.285-15.789v-2.826l8.117 5.37-8.118 6.07v-2.57z" fill="url(#ywnwc6hwsb)"/>
    <path d="M17.41 26.758c-1.149 0-2.108.255-2.879.753-.77.498-1.338 1.185-1.717 2.073-.378.889-.568 2.194-.568 3.93v6.192H13.8v-5.895c0-1.575.076-2.612.227-3.096a3.31 3.31 0 0 1 1.225-1.723c.593-.43 1.313-.66 2.159-.66.682 0 1.3.148 1.83.445l.897-1.373c-.745-.431-1.654-.646-2.727-.646z" fill="#FFB300"/>
    <defs>
        <linearGradient id="dvpoyeyj4a" x1="68.264" y1="26.584" x2="47.814" y2="26.584" gradientUnits="userSpaceOnUse">
            <stop offset=".144" stop-color="#FFE11A"/>
            <stop offset=".741" stop-color="#FFB91B"/>
        </linearGradient>
        <linearGradient id="ywnwc6hwsb" x1="71.383" y1="26.996" x2="56.909" y2="26.694" gradientUnits="userSpaceOnUse">
            <stop offset=".186" stop-color="#FF671B"/>
            <stop offset=".264" stop-color="#FF6B22" stop-opacity=".904"/>
            <stop offset=".376" stop-color="#FF7834" stop-opacity=".767"/>
            <stop offset=".507" stop-color="#FF8C53" stop-opacity=".606"/>
            <stop offset=".652" stop-color="#FFA97D" stop-opacity=".427"/>
            <stop offset=".811" stop-color="#FFCDB4" stop-opacity=".233"/>
            <stop offset=".977" stop-color="#FFF8F5" stop-opacity=".029"/>
            <stop offset="1" stop-color="#fff" stop-opacity="0"/>
        </linearGradient>
    </defs>
</svg>