<svg width="142" height="56" viewBox="0 0 142 56" xmlns="http://www.w3.org/2000/svg">
    <path fill="#B5B5B5" d="M14.116 15H0v19.584h14.452v-4.22H6.386v-3.377h6.554v-4.22H6.386v-3.209h7.73V15zm8.402 13.338h11.596v-.676c0-2.026-.336-3.714-1.009-4.896a7.782 7.782 0 0 0-2.856-2.87c-1.177-.675-2.857-1.013-5.042-1.013-2.689 0-4.705.675-6.554 2.195-1.512 1.35-2.184 3.377-2.184 5.74 0 1.688.504 3.208 1.176 4.39.84 1.182 1.68 2.195 2.857 2.701 1.176.507 2.689.844 4.705.844 2.353 0 4.033-.337 5.378-1.013 1.344-.675 2.352-1.857 3.193-3.376l-5.714-.507c-.336.507-.672.844-1.008 1.013a3.23 3.23 0 0 1-1.68.507c-.841 0-1.681-.338-2.185-1.013-.336-.338-.505-1.013-.673-2.026zm4.874-5.234c.504.506.672 1.182.84 2.364h-5.714c.168-.845.337-1.52.84-1.858.505-.844 1.345-1.181 2.185-1.181.672 0 1.345.168 1.849.675zm53.607 5.234H69.403c.169 1.013.337 1.688.673 2.026.504.675 1.344 1.013 2.184 1.013.504 0 1.177-.17 1.68-.507.337-.169.673-.506 1.01-1.013l5.713.507c-.84 1.52-1.849 2.7-3.193 3.376-1.345.676-3.025 1.013-5.378 1.013-2.016 0-3.529-.337-4.705-.844-1.176-.506-2.017-1.52-2.857-2.701a8.945 8.945 0 0 1-1.176-4.39c0-2.364.672-4.39 2.184-5.74 1.849-1.52 3.865-2.195 6.554-2.195 2.185 0 3.865.338 5.042 1.013a7.783 7.783 0 0 1 2.856 2.87c.673 1.182 1.009 2.87 1.009 4.896v.676zm-5.882-2.87c-.168-1.182-.336-1.858-.84-2.364-.504-.507-1.176-.675-1.849-.675-.84 0-1.68.337-2.184 1.181-.504.338-.672 1.013-.84 1.858h5.713zM50.75 19.39H36.802v3.883h6.554L36.13 30.7v3.715h14.956v-3.883h-7.898l7.562-7.767V19.39zM53.271 15h6.554v3.377H54.95c-1.344 0-1.68-3.377-1.68-3.377zm2.017 4.22h4.537v15.364h-4.37s-1.848-.168-1.848-1.857V21.416c0-1.52 1.68-2.195 1.68-2.195zM95.114 15H84.528v19.416h6.386v-7.26h3.529c2.52 0 4.537-.675 5.713-1.688 1.177-1.014 1.849-2.533 1.849-4.559 0-1.857-.504-3.377-1.681-4.39C99.148 15.508 97.467 15 95.114 15zm-2.521 8.273h-1.512v-4.39h1.848c1.176 0 1.849.338 2.353.675.504.338.672.845.672 1.52s-.168 1.182-.672 1.52c-.504.506-1.513.675-2.689.675zm17.309.675-5.882-.506c.168-1.013.504-1.689 1.009-2.195.336-.507 1.008-1.013 1.848-1.52.504-.337 1.344-.675 2.353-.844 1.008-.169 2.016-.169 3.193-.169 1.848 0 3.361.17 4.369.338 1.176.169 2.016.675 2.689 1.182.504.337.84 1.013 1.176 1.688.336.844.504 1.52.504 2.195V30.7c0 .676 0 1.182.168 1.689.07.14.139.308.221.506.115.28.254.617.451 1.013h-5.713c-.168-.338-.336-.675-.504-.844-.168-.169-.168-.506-.168-1.013-.841.675-1.513 1.182-2.353 1.52-1.008.337-2.353.675-3.697.675-1.849 0-3.361-.338-4.369-1.182-1.009-.844-1.513-1.857-1.513-3.039 0-1.182.336-2.026 1.008-2.87.673-.675 2.017-1.35 3.866-1.688a78.2 78.2 0 0 1 3.12-.603c.555-.098.963-.17 1.249-.242.672-.168 1.344-.337 2.184-.675 0-.675-.168-1.182-.504-1.52-.336-.337-.84-.506-1.68-.506-1.009 0-1.681.169-2.185.507-.246.247-.402.584-.6 1.013-.072.156-.15.325-.24.506zm2.521 3.714c.941-.157 1.735-.315 2.52-.61v.78c0 .674-.168 1.181-.336 1.688-.168.506-.672.844-1.176 1.181-.504.338-1.176.507-1.849.507-.672 0-1.176-.169-1.512-.507-.336-.337-.504-.675-.504-1.181 0-.338.168-.676.504-1.014.336-.168 1.176-.506 2.353-.844zm17.309-8.61h-6.386l6.554 15.532c-.337.845-.841 1.351-1.177 1.689-.336.337-1.008.506-1.68.506-1.009 0-2.017 0-2.857-.337l.504 4.22c.549.05 1.053.1 1.513.146 1.089.108 1.929.192 2.52.192 2.185 0 3.865-.338 4.874-1.35.672-.676 1.512-2.027 2.184-3.884L142 19.052h-6.05l-3.025 10.299-3.192-10.299z"/>
</svg>