<svg width="213" height="56" viewBox="0 0 213 56" xmlns="http://www.w3.org/2000/svg">
    <path fill="#B5B5B5" d="M48.511 33.74c.677-.466 1.129-1.165 1.58-2.096.451-.932.902-2.096 1.128-3.726.226-2.562 0-4.658-1.354-6.055C48.737 20.699 47.158 20 45.353 20c-1.805 0-3.385.699-4.964 1.863-1.805 1.63-2.934 3.726-3.836 6.055-.451 2.794 0 4.89 1.354 6.288 1.128 1.164 2.482 1.862 4.512 1.862.903 0 1.806 0 2.482-.232a10.82 10.82 0 0 1 1.58-.699L48.06 37l1.804-1.63-1.354-1.63zm-3.948-.35c-.113.059-.226.117-.339.117-.45.233-.676.233-1.353.233-.903 0-1.58-.233-2.257-.932-.902-.698-1.353-2.328-.902-4.424.451-1.63.902-3.028 1.805-3.96.902-.93 2.03-1.397 3.159-1.397 1.353 0 2.256.466 2.707 1.398.677.931.677 2.328.452 3.959 0 .698-.226 1.397-.452 1.863l-.677 1.397-1.353-1.397-1.805 1.63 1.353 1.397c-.113 0-.225.058-.338.116zm13.2-12.692h-3.16l-1.353 9.549c-.451 1.63-.226 2.794 0 3.725.677 1.63 2.256 2.562 4.738 2.562 2.708 0 4.513-.931 5.641-2.562.677-.931 1.128-2.095 1.354-3.726l1.58-9.547h-3.16l-1.579 9.315c-.226 1.164-.451 1.863-.677 2.328-.677.932-1.354 1.398-2.707 1.398-1.354 0-2.031-.466-2.257-1.398-.225-.465-.225-1.164 0-2.328l1.58-9.316zm11.733 15.37h-3.16l2.483-15.37h3.159l-2.482 15.37zm11.056-15.602c-1.805 0-3.385.698-4.739 1.863-1.579 1.397-2.707 3.493-3.158 6.52-.452 2.562 0 4.425.902 5.822.903 1.398 2.482 2.096 4.513 2.096 1.805 0 3.159-.466 4.513-1.63 1.353-1.164 2.256-2.562 2.707-4.192h-3.159c-.451.932-.677 1.398-1.128 1.863-.677.699-1.58 1.165-2.707 1.165-.903 0-1.806-.466-2.257-1.398-.677-.931-.677-2.328-.451-3.958a8.996 8.996 0 0 1 1.58-3.96c.902-.93 1.804-1.397 2.933-1.397 1.128 0 1.805.233 2.256.932.226.233.451.931.451 1.63h3.16c.225-.931 0-1.863-.452-2.794-.903-1.63-2.482-2.562-4.964-2.562zm8.8.232h2.933l-1.128 6.288 6.769-6.288h4.061l-6.994 6.288 4.964 9.082h-4.062l-3.385-6.753-1.805 1.63-.902 5.123H86.87l2.482-15.37zm30.009 2.795.451-2.794h-11.733l-.451 2.794h4.287l-1.805 12.575h2.933l2.031-12.575h4.287zm11.056-2.329c.452.233.903.699 1.129 1.165.225.465.451.931.451 1.397v1.63c-.226.699-.452 1.397-.903 2.096-.451.699-1.128 1.164-2.03 1.397.676.233 1.128.699 1.128 1.165.225.465.225 1.397 0 2.328l-.226.932c0 .443-.091.792-.157 1.048-.038.147-.069.264-.069.35 0 .465.226.698.452.93v.466h-3.385V33.74l.226-1.398c.225-.931 0-1.63-.226-1.863-.225-.232-.902-.465-1.579-.465h-2.934l-.902 6.054h-2.933l2.482-15.37h6.769c1.579 0 2.256.233 2.707.466zm-6.543 2.096-.677 4.192h3.385c.676 0 1.128 0 1.579-.233.677-.233.903-.931 1.128-1.63.226-.931 0-1.63-.451-1.863-.226-.233-.677-.233-1.354-.233h-3.61v-.233zm19.179-2.562h-3.385l-7.671 15.37h3.159l1.579-3.26h5.19l.451 3.26h3.385l-2.708-15.37zm-2.482 3.494.903 6.055h-3.611l2.708-6.055zm9.025-3.494h3.159l4.062 10.713 1.805-10.713h2.707l-2.482 15.37h-2.933l-4.061-10.945-1.805 10.945h-2.708l2.256-15.37zm15.118 12.11c-.226-.465-.226-.931-.226-1.63h-3.384c-.226 1.63.225 2.795 1.128 3.726.903.932 2.482 1.397 4.287 1.397 1.805 0 3.385-.465 4.513-1.397 1.128-.931 1.805-2.096 2.031-3.493.225-1.164 0-2.329-.677-3.027-.452-.466-1.129-.932-2.257-1.165l-2.482-.699c-.902-.232-1.579-.465-1.805-.698-.451-.233-.451-.699-.451-1.165 0-.698.451-1.164.902-1.397.117-.04.226-.08.332-.118.513-.188.951-.348 1.699-.348.903 0 1.354.233 1.805.466.677.233.903.932.903 1.863h2.933c.226-1.63-.226-2.794-1.128-3.726-.903-.931-2.031-1.397-3.61-1.397-1.805 0-3.159.466-4.287 1.397-1.129.932-1.805 2.096-2.031 3.493-.226 1.398 0 2.562.902 3.26.413.426 1.202.657 2.539 1.05l.395.115 1.579.466c.903.233 1.354.466 1.805.699.452.232.452.698.452 1.164-.226.931-.677 1.63-1.58 1.863-.451.233-1.128.233-1.805.233-1.354 0-2.031-.233-2.482-.932zm12.41-12.11h10.154l-.452 2.795h-7.22l-.451 3.493h6.317l-.451 2.562h-6.318l-1.128 6.52h-2.933l2.482-15.37zm14.441 2.795h7.671l.451-2.794h-10.604l-2.482 15.37h10.83l.451-2.795h-7.897l.677-3.959h6.995l.451-2.562h-6.995l.452-3.26zm19.856-2.329c.451.233.902.699 1.128 1.165.225.465.451.931.451 1.397v1.63c-.226.699-.451 1.397-.903 2.096-.451.699-1.128 1.164-2.03 1.397.677.233 1.128.699 1.128 1.165.226.465.226 1.397 0 2.328l-.226.932c0 .443-.09.792-.157 1.048-.038.147-.068.264-.068.35 0 .465.225.698.451.93v.466h-3.385V33.74l.226-1.398c.226-.931 0-1.63-.226-1.863-.225-.232-.902-.465-1.579-.465h-2.933l-.903 6.054h-2.933l2.482-15.37h6.769c1.354 0 2.031.233 2.708.466zm-6.77 2.096-.676 4.192h3.158c.677 0 1.129 0 1.58-.233.677-.233.902-.931 1.128-1.63.226-.931 0-1.63-.451-1.863-.226-.233-.677-.233-1.354-.233h-3.385v-.233zM34.522 29.78c-.225 0-.451 0-.677-.232.14 0 .193-.089.267-.212.045-.076.098-.165.185-.254l.225.233c.226-3.959 2.257-6.986 3.61-8.616-.45 0-.902.232-1.128.698-.225-.465-.902-.698-1.354-.698-.676 0-1.128.232-1.353.698-.226-.465-.677-.698-1.354-.698s-1.128.465-1.354.931c-.226-.466-.677-.698-1.354-.698s-1.128.465-1.354.931c-.45-.466-.902-.699-1.354-.699-.676 0-1.128.466-1.353 1.165-.451-.699-.903-1.165-1.58-1.165s-1.354.699-1.354 1.398c0 .698.452 1.397 1.129 1.397-.677 0-1.128.698-1.128 1.397 0 .699.45 1.397 1.128 1.397-.677 0-1.128.7-1.128 1.398s.45 1.397 1.128 1.397c-.677 0-1.128.699-1.128 1.397 0 .699.45 1.398 1.128 1.398-.677 0-1.128.698-1.128 1.397 0 .698.676 1.397 1.353 1.397.677 0 1.128-.466 1.354-.931.226.698.677 1.164 1.354 1.164s1.128-.233 1.354-.932c.225.466.902.932 1.354.932.45 0 1.128-.233 1.353-.699.226.466.903.932 1.354.932.451 0 1.128-.233 1.354-.699.226.466.903.699 1.354.699h.225c-.676-1.398-1.128-3.26-1.128-5.822zm-.225-6.054c0 .144.086.199.205.275.073.047.16.102.246.19l-.451.466c-.226-.465-.226-.465-.452-.698.113 0 .17-.058.226-.116.056-.059.113-.117.226-.117zm0 2.795c0 .143.086.198.205.274.073.047.16.102.246.191-.14 0-.193.09-.266.212a1.3 1.3 0 0 1-.185.254 1.222 1.222 0 0 1-.226-.35 1.221 1.221 0 0 0-.226-.349c.113 0 .17-.058.226-.116.056-.058.113-.116.226-.116zm-8.349-3.494c.226.466.451.699.903.932-.452.233-.677.466-.903.931-.226-.465-.677-.931-1.128-.931.677 0 1.128-.466 1.128-.932zm0 2.795c.226.466.451.698.903.931-.452.233-.677.466-.903.932-.226-.466-.677-.932-1.128-.932.677 0 1.128-.232 1.128-.931zm0 7.685c-.226-.466-.677-.932-1.128-.932.451 0 .902-.465 1.128-.931.226.466.451.699.903.931-.452 0-.677.466-.903.932zm0-2.795c-.226-.465-.677-.931-1.128-.931.451 0 .902-.466 1.128-.932.226.466.451.699.903.932-.452 0-.677.466-.903.931zm2.708-7.452.677.699-.677.698-.677-.698c.451 0 .677-.233.677-.699zm0 2.795.677.698-.677.7-.677-.7c.451 0 .677-.232.677-.698zm0 7.219-.677-.699.677-.698.677.698c-.226 0-.452.233-.677.699zm0-2.794-.677-.7.677-.698.677.699c-.226 0-.452.233-.677.699zm2.933 2.561a1.3 1.3 0 0 1-.185-.254c-.074-.123-.127-.212-.266-.212.086-.089.172-.144.246-.19.119-.076.205-.131.205-.275.086.089.14.178.185.254.073.122.127.211.266.211-.225 0-.451.233-.451.466zm0-2.794a1.3 1.3 0 0 1-.185-.254c-.074-.123-.127-.212-.266-.212.086-.09.172-.144.246-.191.119-.076.205-.131.205-.275.086.089.14.178.185.254.073.123.127.212.266.212-.225 0-.451.233-.451.466zm0-2.795a1.3 1.3 0 0 1-.185-.254c-.074-.123-.127-.212-.266-.212.086-.089.172-.144.246-.19.119-.076.205-.131.205-.275.086.088.14.177.185.253.073.123.127.212.266.212-.225 0-.451.233-.451.466zm0-2.795c-.086-.088-.14-.177-.185-.253-.074-.123-.127-.212-.266-.212.086-.09.172-.144.246-.191.119-.076.205-.131.205-.275.086.089.14.178.185.254.073.123.127.212.266.212-.225 0-.451.233-.451.465zm2.933 7.918c-.14 0-.192.09-.266.212-.046.076-.099.165-.185.254 0-.233 0-.466-.226-.466.14 0 .193-.089.267-.212.045-.075.098-.164.185-.253 0 .116.056.174.112.233.057.058.113.116.113.232zM21.887 21.397c-.677 0-1.354.7-1.354 1.398 0 .694.669 1.389 1.342 1.397-.673.008-1.342.702-1.342 1.397 0 .694.667 1.388 1.34 1.397-.673.01-1.34.704-1.34 1.397 0 .699.677 1.398 1.354 1.398s1.353-.699 1.353-1.398c0-.693-.667-1.387-1.34-1.397.673-.01 1.34-.703 1.34-1.397 0-.925-.668-1.391-1.34-1.397.672-.01 1.34-.703 1.34-1.397 0-.932-.676-1.398-1.353-1.398zm1.353 9.781c0 .77-.603 1.394-1.348 1.397.745.003 1.348.628 1.348 1.398 0 .771-.606 1.397-1.353 1.397-.748 0-1.354-.626-1.354-1.397 0-.77.603-1.395 1.348-1.398-.745-.003-1.348-.627-1.348-1.397 0-.772.606-1.397 1.354-1.397.747 0 1.353.625 1.353 1.397zm-5.19-8.616c0-.699.452-1.165 1.129-1.165s1.128.466 1.128 1.165c0 .698-.451 1.164-1.128 1.164-.677 0-1.128-.466-1.128-1.164zm1.129 1.63c-.677 0-1.128.466-1.128 1.164 0 .699.451 1.165 1.128 1.165.677 0 1.128-.466 1.128-1.165 0-.466-.451-1.164-1.128-1.164zm1.128 4.192c0 .643-.505 1.164-1.128 1.164-.623 0-1.128-.521-1.128-1.164 0-.643.505-1.165 1.128-1.165.623 0 1.128.522 1.128 1.165zm-1.128 3.959c.623 0 1.128-.522 1.128-1.165s-.505-1.164-1.128-1.164c-.623 0-1.128.521-1.128 1.164 0 .643.505 1.165 1.128 1.165zm1.128 1.63c0 .642-.505 1.164-1.128 1.164-.623 0-1.128-.522-1.128-1.165s.505-1.164 1.128-1.164c.623 0 1.128.521 1.128 1.164zM16.471 21.63c-.677 0-1.128.466-1.128 1.164 0 .699.451 1.165 1.128 1.165.677 0 1.128-.466 1.128-1.165 0-.698-.45-1.164-1.128-1.164zm-1.128 3.959c0-.699.451-1.165 1.128-1.165.677 0 1.128.466 1.128 1.165 0 .699-.45 1.164-1.128 1.164-.677 0-1.128-.465-1.128-1.164zm1.128 1.63c-.677 0-1.128.466-1.128 1.165 0 .698.451 1.164 1.128 1.164.677 0 1.128-.466 1.128-1.164 0-.699-.45-1.165-1.128-1.165zm-1.128 3.96c0-.7.451-1.165 1.128-1.165.677 0 1.128.466 1.128 1.164 0 .699-.45 1.165-1.128 1.165-.677 0-1.128-.466-1.128-1.165zm1.128 1.629c-.677 0-1.128.466-1.128 1.164 0 .699.451 1.165 1.128 1.165.677 0 1.128-.466 1.128-1.165 0-.698-.45-1.164-1.128-1.164zm-3.61-10.247c0-.465.451-.931.903-.931.451 0 .902.466.902.931 0 .466-.451.932-.902.932s-.903-.233-.903-.931zm.903 1.863c-.451 0-.903.466-.903.932s.451.931.903.931c.451 0 .902-.465.902-.931s-.451-.932-.902-.932zm-.903 3.727c0-.466.451-.932.903-.932.451 0 .902.466.902.932s-.451.931-.902.931-.903-.465-.903-.931zm.903 2.096c-.451 0-.903.465-.903.931s.451.931.903.931c.451 0 .902-.465.902-.931s-.451-.931-.902-.931zm-.903 3.726c0-.466.451-.932.903-.932.451 0 .902.466.902.932 0 .465-.451.931-.902.931s-.903-.466-.903-.931zm-1.805-12.11c-.451 0-.677.466-.677.699-.225.465.226.931.677.931.451 0 .677-.466.677-.931 0-.466-.226-.699-.677-.699zm-.677 3.493c0-.233.226-.699.677-.699.451 0 .677.233.677.7 0 .465-.226.93-.677.698-.226 0-.677-.233-.677-.699zm.677 3.726a.688.688 0 0 0 .677-.698.688.688 0 0 0-.677-.7.688.688 0 0 0-.677.7c0 .385.303.698.677.698zm.677 2.096a.688.688 0 0 1-.677.699.688.688 0 0 1-.677-.699c0-.386.303-.699.677-.699.374 0 .677.313.677.699zm-.677 3.493a.688.688 0 0 0 .677-.698.688.688 0 0 0-.677-.699.688.688 0 0 0-.677.699c0 .385.303.698.677.698zm-3.384-12.11c0-.465.225-.698.677-.698.15 0 .3.207.45.414.076.104.151.207.226.285 0 .465-.225.698-.676.698-.452 0-.677-.233-.677-.698zm.677 2.33c-.452 0-.677.232-.677.698 0 .466.225.699.677.699.45 0 .45-.466.45-.932s-.225-.466-.45-.466zm.676 3.493a.688.688 0 0 1-.676.698.688.688 0 0 1-.677-.698c0-.386.303-.7.677-.7.373 0 .676.314.676.7zm-.676 3.493a.688.688 0 0 0 .676-.699.688.688 0 0 0-.676-.699.688.688 0 0 0-.677.699c0 .386.303.699.677.699zm.676 2.096a.688.688 0 0 1-.676.698.688.688 0 0 1-.677-.698c0-.386.303-.699.677-.699.373 0 .676.313.676.699zM5.641 22.096c-.226 0-.451.233-.451.466 0 .232.225.465.45.465.227 0 .452-.233.452-.465 0-.233-.225-.466-.451-.466zm.451 3.26a.459.459 0 0 1-.451.466.459.459 0 0 1-.451-.466c0-.257.202-.466.45-.466.25 0 .452.209.452.466zm-.451 3.493c.25 0 .451-.208.451-.465a.459.459 0 0 0-.451-.466.459.459 0 0 0-.451.466c0 .257.202.465.45.465zm.451 2.33a.459.459 0 0 1-.451.465.459.459 0 0 1-.451-.466c0-.257.202-.466.45-.466.25 0 .452.209.452.466zm-.451 3.26c.25 0 .451-.209.451-.466a.459.459 0 0 0-.451-.466.459.459 0 0 0-.451.466c0 .257.202.465.45.465zM2.48 22.56c0-.232.227-.232.227-.232.226 0 .452 0 .226.232l-.226.233s-.226 0-.226-.233zm.227 2.562-.226.233.226.466.226-.233s0-.466-.226-.466zm-.226 3.26c0-.232.226-.465.226-.465.226 0 .226.466.226.466l-.226.232s-.226 0-.226-.232zm.226 3.028a.23.23 0 0 0 .226-.233.23.23 0 0 0-.226-.233.23.23 0 0 0-.226.233.23.23 0 0 0 .226.233zm.226 2.562a.23.23 0 0 1-.226.233.23.23 0 0 1-.226-.233.23.23 0 0 1 .226-.233.23.23 0 0 1 .226.233zM0 22.562c.123.127.179.184.204.173.021-.01.021-.067.021-.173H0zm.204 2.967c-.025.012-.081-.046-.204-.173h.225c0 .106 0 .164-.02.173zM0 28.384c.226.232.452 0 .452 0-.113-.117-.17-.175-.226-.175-.057 0-.113.058-.226.175zm0 2.794c.226.233.452 0 .452 0s-.226-.233-.452 0zm0 2.795c.226.233.452 0 .452 0-.113-.117-.17-.175-.226-.175-.057 0-.113.058-.226.175z"/>
</svg>