<svg width="102" height="56" viewBox="0 0 102 56" xmlns="http://www.w3.org/2000/svg">
    <path d="M85.065 28.857c-1.212-1.44-2.751-2.153-4.62-2.153-1.855 0-3.383.713-4.607 2.14-1.11 1.305-1.666 2.853-1.666 4.63 0 1.79.58 3.352 1.754 4.698 1.174 1.346 2.676 2.005 4.507 2.005.467 0 .921-.04 1.338-.134v-2.867a3.402 3.402 0 0 1-1.338.255 3.437 3.437 0 0 1-1.818-.498 3.474 3.474 0 0 1-1.313-1.426 4.191 4.191 0 0 1-.492-2.006c0-1.104.353-2.06 1.073-2.84.72-.78 1.565-1.171 2.55-1.171.997 0 1.843.39 2.562 1.171.707.78 1.073 1.723 1.073 2.827v7.066h2.65v-7.08c0-1.763-.555-3.311-1.653-4.617zM88.436 26.758h3.042l3.08 7.928 3.395-7.928h3.03L93.573 44h-3.067l2.436-5.559-4.506-11.683zM64.768 12.005h-10.68c-1.009 0-1.173.97-1.173.97l-1.376 9.745s-.038.282-.114.794c1.843-1.992 4.595-3.406 8.723-3.406v-2.826l8.116 5.37v.97l-8.116 6.191v-2.611c-5.011 0-8.066 2.113-9.871 4.253-.48 3.298-.96 6.488-1.124 7.417-.366 2.153.96 1.87.96 1.87h5.529c1.704 0 1.754-.901 1.754-2.382 0-2.894 1.59-2.665 1.59-2.665h3.85s12.358-.39 12.358-12.343c-.012-11.966-10.426-11.347-10.426-11.347zM4.355 24.321H0v-1.669h10.603v1.683h-4.38V39.72H4.355V24.32zM21.434 26.758h1.527v5.895c0 1.44.076 2.423.215 2.975.214.767.63 1.386 1.25 1.83.618.445 1.35.673 2.196.673.845 0 1.565-.215 2.158-.66.593-.43.997-1.009 1.224-1.722.152-.485.228-1.521.228-3.096v-5.895h1.552v6.191c0 1.737-.189 3.056-.568 3.93a4.566 4.566 0 0 1-1.716 2.074c-.77.497-1.73.753-2.878.753-1.15 0-2.121-.256-2.891-.754-.77-.497-1.35-1.197-1.73-2.086-.378-.888-.567-2.234-.567-4.038v-6.07zM44.596 35.197l1.288.713c-.416.889-.909 1.589-1.464 2.14a5.829 5.829 0 0 1-1.868 1.239c-.695.283-1.477.417-2.348.417-1.931 0-3.446-.673-4.532-2.019-1.085-1.346-1.628-2.88-1.628-4.576 0-1.602.467-3.029 1.388-4.28 1.174-1.589 2.74-2.396 4.696-2.396 2.02 0 3.635.82 4.835 2.45.858 1.157 1.287 2.597 1.312 4.32H35.622c.025 1.467.467 2.665 1.313 3.607.845.943 1.893 1.414 3.142 1.414.606 0 1.187-.108 1.755-.337.568-.229 1.06-.525 1.452-.888.416-.39.846-.983 1.313-1.804zm0-3.405c-.201-.862-.504-1.562-.883-2.073a4.082 4.082 0 0 0-1.54-1.252 4.42 4.42 0 0 0-2.02-.471 4.19 4.19 0 0 0-2.991 1.198c-.606.579-1.073 1.454-1.389 2.611h8.823v-.013zM17.407 26.758c-1.149 0-2.108.255-2.878.754-.77.497-1.338 1.184-1.717 2.072-.378.889-.568 2.194-.568 3.93v6.192h1.553v-5.895c0-1.575.075-2.611.227-3.096a3.31 3.31 0 0 1 1.224-1.723c.594-.43 1.313-.66 2.159-.66.682 0 1.3.149 1.83.445l.897-1.373c-.745-.43-1.654-.646-2.727-.646z" fill="#B5B5B5"/>
</svg>