<svg width="177" height="56" viewBox="0 0 177 56" fill="none" xmlns="http://www.w3.org/2000/svg">
    <path d="M79.735 39.218H65.301v-25.14h6.533v19.43h7.901v5.71zM91.762 24.322c-2.907 0-4.775 2.166-4.775 4.822 0 2.796 1.768 5.092 4.575 5.092 2.707 0 4.965-1.997 4.965-4.922 0-2.955-2.088-4.992-4.765-4.992zm-10.948 4.922c0-5.61 4.146-10.573 9.74-10.573 2.447 0 3.985.819 5.783 2.466V19.07h6.013v20.148h-6.113v-1.967s-2.188 2.466-6.013 2.466c-5.584 0-9.41-4.013-9.41-10.473zM120.38 39.218h-14.444v-25.14h6.533v19.43h7.911v5.71zM129.161 39.218h-6.073V19.07h6.073v20.148zm-6.663-25.27c0-2.036 1.628-3.713 3.656-3.713 2.028 0 3.696 1.607 3.696 3.644a3.742 3.742 0 0 1-3.756 3.744c-1.998 0-3.596-1.608-3.596-3.674zM141.937 23.893c-2.837 0-4.246 2.326-4.246 4.822 0 2.596 1.539 4.722 4.216 4.722 3.036 0 4.665-2.426 4.665-4.692 0-2.686-1.499-4.852-4.635-4.852zm-10.159 4.862c0-5.451 3.466-10.074 8.76-10.074 2.547 0 4.276.819 6.004 2.656V19.07h5.823v17.752c0 6.23-4.675 9.485-10.298 9.485-4.935 0-9.25-2.496-9.899-7.029h6.822c.849 1.378 1.698 1.637 3.206 1.637 2.118 0 4.086-.978 4.086-3.175 0-.529.03-.988-.03-1.507-1.179 1.048-3.366 2.326-5.754 2.326-5.194.01-8.72-4.323-8.72-9.804zM165.92 24.322c-2.907 0-4.765 2.166-4.765 4.822 0 2.796 1.759 5.092 4.575 5.092 2.717 0 4.965-1.997 4.965-4.922-.01-2.955-2.098-4.992-4.775-4.992zm-10.948 4.922c0-5.61 4.146-10.573 9.74-10.573 2.457 0 3.985.819 5.783 2.466V19.07h6.014v20.148h-6.114v-1.967s-2.187 2.466-6.013 2.466c-5.584 0-9.41-4.013-9.41-10.473z" fill="#1A202C"/>
    <path d="M27.773 19.02c-5.155 0-9.34 4.194-9.34 9.336 0 5.151 4.195 9.334 9.34 9.334 5.154 0 9.34-4.193 9.34-9.334 0-5.142-4.186-9.335-9.34-9.335z" fill="#fff"/>
    <path d="M8.294 12.102c-.05.1-.05.22.02.32.03.05.07.08.12.1l9.77 5.67.02.01c.1.06.229.05.329-.02.03-.02.06-.05.08-.08a12.774 12.774 0 0 1 3.776-4.203 12.799 12.799 0 0 1 5.184-2.157c.01 0 .03 0 .04-.01a.314.314 0 0 0 .24-.36v-.019L25.785.281V.26a.333.333 0 0 0-.35-.26h-.03a24.88 24.88 0 0 0-9.919 4.164 24.806 24.806 0 0 0-7.192 7.937z" fill="#893A96"/>
    <path d="M2.71 33.547c.05.1.15.18.26.19.05 0 .11-.01.15-.03l10.538-4.064.02-.01c.11-.04.19-.15.19-.27 0-.039 0-.079-.01-.109-.01-.02-.01-.03-.02-.05a12.731 12.731 0 0 1-.889-5.52 12.71 12.71 0 0 1 1.558-5.392c.01-.01.01-.02.02-.03.02-.04.03-.08.03-.12a.32.32 0 0 0-.16-.3l-.02-.01-9.949-5.34-.02-.01a.309.309 0 0 0-.13-.03c-.12 0-.22.06-.28.149-.01.01-.01.02-.01.02a24.765 24.765 0 0 0-2.966 10.333c-.21 3.734.4 7.328 1.688 10.593z" fill="#0065B1"/>
    <path d="M16.105 51.159c.11.03.23 0 .31-.09.04-.04.06-.09.08-.14l3.356-10.772.01-.02a.32.32 0 0 0-.09-.32.208.208 0 0 0-.1-.06c-.02-.01-.03-.01-.05-.01a12.671 12.671 0 0 1-4.884-2.735 12.718 12.718 0 0 1-3.256-4.573c0-.01-.01-.02-.01-.04a.356.356 0 0 0-.07-.1.331.331 0 0 0-.33-.06l-.02.01L.683 36.732l-.02.01c-.04.02-.08.05-.11.08a.3.3 0 0 0-.06.31c0 .01.01.02.01.03a24.83 24.83 0 0 0 6.263 8.735 24.467 24.467 0 0 0 9.34 5.262z" fill="#0A9BD7"/>
    <path d="M38.131 51.688a.34.34 0 0 0 .13-.3.349.349 0 0 0-.06-.14l-6.293-9.374-.02-.02a.334.334 0 0 0-.31-.13c-.04.01-.07.02-.11.04-.02.01-.03.02-.04.03a12.696 12.696 0 0 1-5.194 2.087 12.7 12.7 0 0 1-5.604-.33c-.01 0-.02-.01-.04-.01a.245.245 0 0 0-.12 0c-.12.02-.22.11-.25.22l-.01.02-3.006 10.882v.02a.33.33 0 0 0 0 .14c.02.11.1.2.21.24.01 0 .02.01.03.01a24.78 24.78 0 0 0 20.687-3.385z" fill="#0FB05F"/>
    <path d="M52.465 34.875a.31.31 0 0 0-.16-.28.281.281 0 0 0-.15-.04l-11.257-.878h-.02a.298.298 0 0 0-.29.16c-.02.03-.03.07-.04.11v.05a12.709 12.709 0 0 1-1.578 5.36 12.641 12.641 0 0 1-3.736 4.194c-.01.01-.02.01-.03.02-.03.03-.06.06-.08.09-.06.11-.05.24.02.33l.01.02 6.673 9.105.01.02c.03.04.06.07.11.09.1.05.22.04.32-.01.01 0 .01-.01.02-.01a24.934 24.934 0 0 0 7.132-8.048c1.808-3.284 2.807-6.779 3.046-10.283z" fill="#FDDC2D"/>
    <path d="M48.21 13.16a.337.337 0 0 0-.32-.06.38.38 0 0 0-.13.09l-7.77 8.197-.02.02c-.08.09-.1.21-.06.33.02.04.04.07.06.1.01.01.02.029.04.039a12.796 12.796 0 0 1 4.085 10.144v.04c0 .04.01.08.02.12.05.12.16.19.27.2h.02l11.277.548h.02c.05 0 .09-.01.14-.03a.32.32 0 0 0 .19-.26v-.03c.19-3.504-.37-7.138-1.769-10.602a24.417 24.417 0 0 0-6.053-8.846z" fill="#F68D32"/>
    <path d="M28.462 3.066a.3.3 0 0 0-.24.22.29.29 0 0 0-.01.16l1.648 11.172v.02c.02.11.1.21.22.25.04.01.08.01.11.01.02 0 .04 0 .05-.01 1.808-.29 3.706-.2 5.584.339a12.694 12.694 0 0 1 4.914 2.705l.03.03c.03.02.07.04.11.06.12.04.24 0 .32-.09l.01-.02L48.6 9.376l.01-.02c.03-.04.05-.08.06-.12a.346.346 0 0 0-.08-.31l-.02-.02a24.805 24.805 0 0 0-9.44-5.15 24.27 24.27 0 0 0-10.668-.69z" fill="#EE3435"/>
    <path d="M34.555 33.627c.14-.38.19-.819.23-1.168-.19.18-.39.35-.61.51-.639.468-1.338.768-2.007.908L30.36 31.91l-.02.02 1.308 2.316a5.276 5.276 0 0 1-1.498 1.647c-.22.16-.44.3-.67.42.34.06.77.15 1.18.14-.91.319-1.878.499-2.897.499a8.697 8.697 0 0 1-2.897-.5c.4.02.839-.08 1.179-.14a5.31 5.31 0 0 1-.67-.419 5.275 5.275 0 0 1-1.498-1.647l1.309-2.316-.02-.02-1.808 1.967c-.67-.14-1.359-.45-2.008-.909-.22-.16-.42-.33-.61-.509.05.35.09.789.23 1.168a8.583 8.583 0 0 1-1.808-5.271c0-.09 0-.19.01-.28.1.4.34.799.51 1.118.04-.25.11-.509.19-.768.25-.77.639-1.428 1.108-1.947l2.587.519.01-.03-2.417-1.108c-.07-.68 0-1.428.25-2.177.08-.26.18-.5.3-.729-.33.16-.77.35-1.1.63a8.593 8.593 0 0 1 4.825-3.505c-.37.22-.699.589-.959.858.26-.04.52-.05.79-.05.799 0 1.548.17 2.177.45l.3 2.616h.03l.3-2.616a5.35 5.35 0 0 1 2.167-.45c.27 0 .54.02.79.05-.26-.269-.58-.638-.96-.858a8.566 8.566 0 0 1 4.815 3.494c-.32-.28-.76-.469-1.089-.629.11.23.21.48.3.73.24.758.32 1.507.25 2.186l-2.408 1.098.01.03 2.587-.52c.47.51.86 1.169 1.109 1.938.08.26.15.509.19.768.17-.31.4-.709.5-1.108 0 .09.01.18.01.27a8.38 8.38 0 0 1-1.789 5.291zm-6.782-14.606c-5.155 0-9.34 4.193-9.34 9.335 0 5.151 4.195 9.334 9.34 9.334 5.154 0 9.34-4.193 9.34-9.334 0-5.142-4.186-9.335-9.34-9.335z" fill="#000"/>
    <path d="m23.997 27.137 1.448 4.433h4.665l1.439-4.433-3.776-2.745-3.776 2.745z" fill="#000"/>
</svg>