<svg width="69" height="56" viewBox="0 0 69 56" fill="none" xmlns="http://www.w3.org/2000/svg">
<path d="M3.71474 55.8188C3.88758 54.5701 4.06042 53.3269 4.22818 52.0782C4.37561 51.0198 4.52304 49.9558 4.66029 48.8919C4.68571 48.6735 4.74163 48.4719 4.81789 48.2647C5.98204 45.0448 7.16653 41.8361 8.26967 38.5882C8.94071 36.6114 9.36773 34.5675 9.67274 32.4844C9.90151 30.922 10.0337 29.3429 10.0235 27.7637C10.0083 25.5294 9.749 23.3399 8.97629 21.2511C8.31033 19.4536 7.31902 17.9248 5.92102 16.7321C5.75326 16.5865 5.66685 16.4185 5.62618 16.1945C5.4635 15.2369 5.49401 14.285 5.74311 13.3498C6.03796 12.241 6.71407 11.513 7.68504 11.1043C7.85789 11.0315 8.00024 11.0371 8.17308 11.1155C10.4353 12.0786 12.7382 12.8962 15.1478 13.277C16.073 13.4226 17.0033 13.5178 17.9387 13.5682C18.0455 13.5682 18.1472 13.5738 18.2539 13.585C18.5793 13.613 18.5793 13.613 18.5996 13.9602C18.7368 16.6537 18.8741 19.3528 19.0165 22.0463C19.1486 24.5662 19.2808 27.0861 19.413 29.6117C19.4994 31.2804 19.5909 32.9436 19.6926 34.6067C19.7078 34.8363 19.6214 34.9875 19.4994 35.1443C18.259 36.729 17.0237 38.3138 15.7833 39.8985C11.6757 45.1624 7.64946 50.4934 3.80624 55.998C3.65373 56.0148 3.69949 55.9084 3.71982 55.8244L3.71474 55.8188Z" fill="#EA0D44"/>
<path d="M68.2666 0C68.1598 0.246392 68.0175 0.380788 67.8955 0.526383C65.1757 3.81908 62.1764 6.78699 59.0195 9.5645C58.3434 10.1581 58.3434 10.1413 57.4893 10.0349C56.3353 9.88929 55.1813 9.77729 54.0324 9.64289C52.5887 9.4805 51.15 9.31811 49.7063 9.15571C48.5777 9.02691 47.4542 8.90372 46.3257 8.78052C44.8565 8.61813 43.3924 8.45013 41.9232 8.28214C40.7947 8.15334 39.6712 8.03015 38.5426 7.90695C37.0887 7.74456 35.6348 7.57656 34.1809 7.41417C33.0269 7.28537 31.8729 7.16217 30.7189 7.03338C29.936 6.94378 29.1532 6.85418 28.3042 6.75899C28.7058 6.311 29.0566 5.91341 29.4175 5.51583C29.5039 5.42063 29.6412 5.42623 29.753 5.41503C31.0697 5.22463 32.3914 5.04544 33.7132 4.86065C35.2688 4.64225 36.8244 4.42386 38.3749 4.20547C39.9305 3.98707 41.486 3.76868 43.0366 3.55029C44.5921 3.33189 46.1427 3.1079 47.6982 2.88951C49.0302 2.70471 50.3621 2.51992 51.694 2.32953C53.2343 2.11113 54.7747 1.89834 56.3201 1.67995C57.652 1.48955 58.9839 1.30476 60.3158 1.11436C61.907 0.890372 63.5032 0.660779 65.0944 0.442386C66.1366 0.296791 67.1838 0.151195 68.2615 0.00559982L68.2666 0Z" fill="#EA0D44"/>
<path d="M26.3369 8.60688C26.7334 8.23729 27.135 7.8621 27.5316 7.48691C27.6434 7.38052 27.7553 7.43651 27.8671 7.45891C28.8126 7.64371 29.7582 7.8341 30.7037 8.0245C33.2303 8.53408 35.7518 9.04926 38.2784 9.55885C40.9219 10.0908 43.5603 10.6284 46.2037 11.1604C48.8726 11.698 51.5365 12.2412 54.2054 12.7843C54.4189 12.8291 54.6324 12.8795 54.8561 12.9299C54.7951 13.1035 54.6781 13.1539 54.5866 13.2267C51.5263 15.6291 48.3439 17.8186 45.0752 19.8625C44.8667 19.9913 44.7142 19.9969 44.5058 19.8625C38.5427 16.1834 32.5745 12.51 26.6114 8.83087C26.525 8.77487 26.4183 8.74127 26.342 8.60688H26.3369Z" fill="#EA0D44"/>
<path d="M40.5662 22.5002C39.0869 23.3122 37.5923 24.0345 36.0824 24.7177C35.5588 24.9529 35.0352 25.1881 34.5065 25.4177C34.171 25.5633 34.171 25.5633 33.9626 25.2497C33.139 24.0065 32.3155 22.769 31.4868 21.5258C29.1128 17.9531 26.7438 14.3804 24.3698 10.8077C24.2833 10.679 24.1817 10.567 24.1257 10.3822C24.4816 10.0966 24.8476 9.81658 25.2035 9.52539C25.356 9.39659 25.4475 9.51419 25.5441 9.59819C26.2405 10.1918 26.937 10.7909 27.6385 11.3845C31.8427 14.9796 36.0468 18.5691 40.2561 22.1642C40.3578 22.2538 40.4798 22.3154 40.5611 22.4946L40.5662 22.5002Z" fill="#EA0D44"/>
<path d="M27.4705 28.8447C27.1705 27.9432 26.8909 27.0976 26.6113 26.2576C25.0913 21.6378 23.5713 17.0179 22.0513 12.3925C22.031 12.3365 22.0208 12.2805 21.9954 12.2301C21.8937 12.0229 21.9344 11.8885 22.1276 11.7821C22.336 11.6589 22.5343 11.5077 22.7325 11.3733C23.1392 11.0989 23.0833 11.0821 23.2968 11.5301C23.795 12.5548 24.2881 13.574 24.7863 14.5988C26.7334 18.6139 28.6855 22.6345 30.6325 26.6496C30.846 27.092 30.9223 27.0416 30.4292 27.2768C29.4429 27.7584 28.4567 28.24 27.4654 28.8391L27.4705 28.8447Z" fill="#EA0D44"/>
<path d="M20.8009 12.5378C21.0195 13.3834 21.233 14.1898 21.4363 14.9961C22.6869 19.8792 23.9375 24.7622 25.188 29.6509C25.2084 29.7181 25.2185 29.7965 25.244 29.8581C25.3304 30.0597 25.2541 30.1661 25.0915 30.2725C24.3492 30.7709 23.6223 31.3028 22.9106 31.846C22.6411 32.0532 22.3717 32.2548 22.087 32.4732C21.965 32.1708 21.9752 31.874 21.9447 31.594C21.6092 28.8893 21.2889 26.1846 20.9585 23.4855C20.5518 20.148 20.1349 16.8161 19.7231 13.4786C19.6723 13.081 19.6723 13.081 20.0231 12.913C20.262 12.7954 20.5009 12.6778 20.7958 12.5322L20.8009 12.5378Z" fill="#EA0D44"/>
<path d="M1.1221 20.7922C0.811997 20.3778 0.517146 19.9522 0.191793 19.549C0.01895 19.3306 -0.0268057 19.1122 0.0138633 18.8322C0.19179 17.5555 0.354466 16.2787 0.522226 15.002C0.603564 14.3972 0.695073 13.798 0.756076 13.1932C0.786578 12.9188 0.898422 12.762 1.10177 12.6164C3.34873 11.0205 5.59061 9.41333 7.83757 7.81178C8.43236 7.3862 9.03222 6.95501 9.62701 6.53502C9.69818 6.48463 9.76427 6.39503 9.88628 6.42303C9.96253 6.87661 9.86085 7.3022 9.6931 7.71659C9.43383 8.35497 9.02206 8.85895 8.54928 9.30694C7.87824 9.94532 7.1767 10.5333 6.45483 11.0933C5.58044 11.7709 4.69589 12.426 3.8215 13.098C3.72491 13.1708 3.60799 13.2156 3.52665 13.3612C3.64866 13.4116 3.76558 13.4564 3.87742 13.5068C4.42137 13.7532 4.78231 14.1732 4.92465 14.8228C5.17375 15.9427 4.89924 16.8555 4.0706 17.5611C3.6385 17.9251 3.16063 18.1939 2.67769 18.4682C2.33708 18.6586 2.00156 18.8602 1.73213 19.1682C1.37628 19.577 1.11701 20.053 1.20852 20.6186C1.22377 20.7138 1.26952 20.809 1.1221 20.7978V20.7922Z" fill="#EA0D44"/>
</svg>